<?xml version="1.0" encoding="UTF-8"?>
<svg xmlns="http://www.w3.org/2000/svg" class="qr-svg qrcode" viewBox="0 0 47 47" preserveAspectRatio="xMidYMid">
<defs>
	<linearGradient id="rainbow" x1="1" y2="1">
		<stop stop-color="#e2453c" offset="0"/>
		<stop stop-color="#e07e39" offset="0.2"/>
		<stop stop-color="#e5d667" offset="0.4"/>
		<stop stop-color="#51b95b" offset="0.6"/>
		<stop stop-color="#1e72b7" offset="0.8"/>
		<stop stop-color="#6f5ba7" offset="1"/>
	</linearGradient>
	<style><![CDATA[
		.dark{fill: url(#rainbow);}
	]]></style>
</defs>
<path class="qr-data-dark dark qrcode" d="M1 1 h1 v1 h-1Z M2 1 h1 v1 h-1Z M3 1 h1 v1 h-1Z M4 1 h1 v1 h-1Z M5 1 h1 v1 h-1Z M6 1 h1 v1 h-1Z M7 1 h1 v1 h-1Z M10.1 1.5 a0.4 0.4 0 1 0 0.8 0 a0.4 0.4 0 1 0 -0.8 0Z M11.1 1.5 a0.4 0.4 0 1 0 0.8 0 a0.4 0.4 0 1 0 -0.8 0Z M12.1 1.5 a0.4 0.4 0 1 0 0.8 0 a0.4 0.4 0 1 0 -0.8 0Z M17.1 1.5 a0.4 0.4 0 1 0 0.8 0 a0.4 0.4 0 1 0 -0.8 0Z M18.1 1.5 a0.4 0.4 0 1 0 0.8 0 a0.4 0.4 0 1 0 -0.8 0Z M19.1 1.5 a0.4 0.4 0 1 0 0.8 0 a0.4 0.4 0 1 0 -0.8 0Z M22.1 1.5 a0.4 0.4 0 1 0 0.8 0 a0.4 0.4 0 1 0 -0.8 0Z M24.1 1.5 a0.4 0.4 0 1 0 0.8 0 a0.4 0.4 0 1 0 -0.8 0Z M25.1 1.5 a0.4 0.4 0 1 0 0.8 0 a0.4 0.4 0 1 0 -0.8 0Z M26.1 1.5 a0.4 0.4 0 1 0 0.8 0 a0.4 0.4 0 1 0 -0.8 0Z M29.1 1.5 a0.4 0.4 0 1 0 0.8 0 a0.4 0.4 0 1 0 -0.8 0Z M31.1 1.5 a0.4 0.4 0 1 0 0.8 0 a0.4 0.4 0 1 0 -0.8 0Z M37.1 1.5 a0.4 0.4 0 1 0 0.8 0 a0.4 0.4 0 1 0 -0.8 0Z M39 1 h1 v1 h-1Z M40 1 h1 v1 h-1Z M41 1 h1 v1 h-1Z M42 1 h1 v1 h-1Z M43 1 h1 v1 h-1Z M44 1 h1 v1 h-1Z M45 1 h1 v1 h-1Z M1 2 h1 v1 h-1Z M7 2 h1 v1 h-1Z M9.1 2.5 a0.4 0.4 0 1 0 0.8 0 a0.4 0.4 0 1 0 -0.8 0Z M11.1 2.5 a0.4 0.4 0 1 0 0.8 0 a0.4 0.4 0 1 0 -0.8 0Z M13.1 2.5 a0.4 0.4 0 1 0 0.8 0 a0.4 0.4 0 1 0 -0.8 0Z M16.1 2.5 a0.4 0.4 0 1 0 0.8 0 a0.4 0.4 0 1 0 -0.8 0Z M17.1 2.5 a0.4 0.4 0 1 0 0.8 0 a0.4 0.4 0 1 0 -0.8 0Z M18.1 2.5 a0.4 0.4 0 1 0 0.8 0 a0.4 0.4 0 1 0 -0.8 0Z M20.1 2.5 a0.4 0.4 0 1 0 0.8 0 a0.4 0.4 0 1 0 -0.8 0Z M25.1 2.5 a0.4 0.4 0 1 0 0.8 0 a0.4 0.4 0 1 0 -0.8 0Z M26.1 2.5 a0.4 0.4 0 1 0 0.8 0 a0.4 0.4 0 1 0 -0.8 0Z M30.1 2.5 a0.4 0.4 0 1 0 0.8 0 a0.4 0.4 0 1 0 -0.8 0Z M33.1 2.5 a0.4 0.4 0 1 0 0.8 0 a0.4 0.4 0 1 0 -0.8 0Z M34.1 2.5 a0.4 0.4 0 1 0 0.8 0 a0.4 0.4 0 1 0 -0.8 0Z M36.1 2.5 a0.4 0.4 0 1 0 0.8 0 a0.4 0.4 0 1 0 -0.8 0Z M39 2 h1 v1 h-1Z M45 2 h1 v1 h-1Z M1 3 h1 v1 h-1Z M3 3 h1 v1 h-1Z M4 3 h1 v1 h-1Z M5 3 h1 v1 h-1Z M7 3 h1 v1 h-1Z M11.1 3.5 a0.4 0.4 0 1 0 0.8 0 a0.4 0.4 0 1 0 -0.8 0Z M14.1 3.5 a0.4 0.4 0 1 0 0.8 0 a0.4 0.4 0 1 0 -0.8 0Z M17.1 3.5 a0.4 0.4 0 1 0 0.8 0 a0.4 0.4 0 1 0 -0.8 0Z M22.1 3.5 a0.4 0.4 0 1 0 0.8 0 a0.4 0.4 0 1 0 -0.8 0Z M24.1 3.5 a0.4 0.4 0 1 0 0.8 0 a0.4 0.4 0 1 0 -0.8 0Z M25.1 3.5 a0.4 0.4 0 1 0 0.8 0 a0.4 0.4 0 1 0 -0.8 0Z M26.1 3.5 a0.4 0.4 0 1 0 0.8 0 a0.4 0.4 0 1 0 -0.8 0Z M27.1 3.5 a0.4 0.4 0 1 0 0.8 0 a0.4 0.4 0 1 0 -0.8 0Z M31.1 3.5 a0.4 0.4 0 1 0 0.8 0 a0.4 0.4 0 1 0 -0.8 0Z M36.1 3.5 a0.4 0.4 0 1 0 0.8 0 a0.4 0.4 0 1 0 -0.8 0Z M39 3 h1 v1 h-1Z M41 3 h1 v1 h-1Z M42 3 h1 v1 h-1Z M43 3 h1 v1 h-1Z M45 3 h1 v1 h-1Z M1 4 h1 v1 h-1Z M3 4 h1 v1 h-1Z M4 4 h1 v1 h-1Z M5 4 h1 v1 h-1Z M7 4 h1 v1 h-1Z M9.1 4.5 a0.4 0.4 0 1 0 0.8 0 a0.4 0.4 0 1 0 -0.8 0Z M10.1 4.5 a0.4 0.4 0 1 0 0.8 0 a0.4 0.4 0 1 0 -0.8 0Z M11.1 4.5 a0.4 0.4 0 1 0 0.8 0 a0.4 0.4 0 1 0 -0.8 0Z M16.1 4.5 a0.4 0.4 0 1 0 0.8 0 a0.4 0.4 0 1 0 -0.8 0Z M18.1 4.5 a0.4 0.4 0 1 0 0.8 0 a0.4 0.4 0 1 0 -0.8 0Z M20.1 4.5 a0.4 0.4 0 1 0 0.8 0 a0.4 0.4 0 1 0 -0.8 0Z M25.1 4.5 a0.4 0.4 0 1 0 0.8 0 a0.4 0.4 0 1 0 -0.8 0Z M27.1 4.5 a0.4 0.4 0 1 0 0.8 0 a0.4 0.4 0 1 0 -0.8 0Z M28.1 4.5 a0.4 0.4 0 1 0 0.8 0 a0.4 0.4 0 1 0 -0.8 0Z M30.1 4.5 a0.4 0.4 0 1 0 0.8 0 a0.4 0.4 0 1 0 -0.8 0Z M31.1 4.5 a0.4 0.4 0 1 0 0.8 0 a0.4 0.4 0 1 0 -0.8 0Z M32.1 4.5 a0.4 0.4 0 1 0 0.8 0 a0.4 0.4 0 1 0 -0.8 0Z M33.1 4.5 a0.4 0.4 0 1 0 0.8 0 a0.4 0.4 0 1 0 -0.8 0Z M36.1 4.5 a0.4 0.4 0 1 0 0.8 0 a0.4 0.4 0 1 0 -0.8 0Z M37.1 4.5 a0.4 0.4 0 1 0 0.8 0 a0.4 0.4 0 1 0 -0.8 0Z M39 4 h1 v1 h-1Z M41 4 h1 v1 h-1Z M42 4 h1 v1 h-1Z M43 4 h1 v1 h-1Z M45 4 h1 v1 h-1Z M1 5 h1 v1 h-1Z M3 5 h1 v1 h-1Z M4 5 h1 v1 h-1Z M5 5 h1 v1 h-1Z M7 5 h1 v1 h-1Z M11.1 5.5 a0.4 0.4 0 1 0 0.8 0 a0.4 0.4 0 1 0 -0.8 0Z M13.1 5.5 a0.4 0.4 0 1 0 0.8 0 a0.4 0.4 0 1 0 -0.8 0Z M14.1 5.5 a0.4 0.4 0 1 0 0.8 0 a0.4 0.4 0 1 0 -0.8 0Z M17.1 5.5 a0.4 0.4 0 1 0 0.8 0 a0.4 0.4 0 1 0 -0.8 0Z M19.1 5.5 a0.4 0.4 0 1 0 0.8 0 a0.4 0.4 0 1 0 -0.8 0Z M21 5 h1 v1 h-1Z
M22 5 h1 v1 h-1Z M23 5 h1 v1 h-1Z M24 5 h1 v1 h-1Z M25 5 h1 v1 h-1Z M26.1 5.5 a0.4 0.4 0 1 0 0.8 0 a0.4 0.4 0 1 0 -0.8 0Z M27.1 5.5 a0.4 0.4 0 1 0 0.8 0 a0.4 0.4 0 1 0 -0.8 0Z M31.1 5.5 a0.4 0.4 0 1 0 0.8 0 a0.4 0.4 0 1 0 -0.8 0Z M33.1 5.5 a0.4 0.4 0 1 0 0.8 0 a0.4 0.4 0 1 0 -0.8 0Z M34.1 5.5 a0.4 0.4 0 1 0 0.8 0 a0.4 0.4 0 1 0 -0.8 0Z M35.1 5.5 a0.4 0.4 0 1 0 0.8 0 a0.4 0.4 0 1 0 -0.8 0Z M36.1 5.5 a0.4 0.4 0 1 0 0.8 0 a0.4 0.4 0 1 0 -0.8 0Z M37.1 5.5 a0.4 0.4 0 1 0 0.8 0 a0.4 0.4 0 1 0 -0.8 0Z M39 5 h1 v1 h-1Z M41 5 h1 v1 h-1Z M42 5 h1 v1 h-1Z M43 5 h1 v1 h-1Z M45 5 h1 v1 h-1Z M1 6 h1 v1 h-1Z M7 6 h1 v1 h-1Z M9.1 6.5 a0.4 0.4 0 1 0 0.8 0 a0.4 0.4 0 1 0 -0.8 0Z M10.1 6.5 a0.4 0.4 0 1 0 0.8 0 a0.4 0.4 0 1 0 -0.8 0Z M12.1 6.5 a0.4 0.4 0 1 0 0.8 0 a0.4 0.4 0 1 0 -0.8 0Z M13.1 6.5 a0.4 0.4 0 1 0 0.8 0 a0.4 0.4 0 1 0 -0.8 0Z M16.1 6.5 a0.4 0.4 0 1 0 0.8 0 a0.4 0.4 0 1 0 -0.8 0Z M17.1 6.5 a0.4 0.4 0 1 0 0.8 0 a0.4 0.4 0 1 0 -0.8 0Z M18.1 6.5 a0.4 0.4 0 1 0 0.8 0 a0.4 0.4 0 1 0 -0.8 0Z M21 6 h1 v1 h-1Z M25 6 h1 v1 h-1Z M28.1 6.5 a0.4 0.4 0 1 0 0.8 0 a0.4 0.4 0 1 0 -0.8 0Z M30.1 6.5 a0.4 0.4 0 1 0 0.8 0 a0.4 0.4 0 1 0 -0.8 0Z M31.1 6.5 a0.4 0.4 0 1 0 0.8 0 a0.4 0.4 0 1 0 -0.8 0Z M32.1 6.5 a0.4 0.4 0 1 0 0.8 0 a0.4 0.4 0 1 0 -0.8 0Z M33.1 6.5 a0.4 0.4 0 1 0 0.8 0 a0.4 0.4 0 1 0 -0.8 0Z M34.1 6.5 a0.4 0.4 0 1 0 0.8 0 a0.4 0.4 0 1 0 -0.8 0Z M39 6 h1 v1 h-1Z M45 6 h1 v1 h-1Z M1 7 h1 v1 h-1Z M2 7 h1 v1 h-1Z M3 7 h1 v1 h-1Z M4 7 h1 v1 h-1Z M5 7 h1 v1 h-1Z M6 7 h1 v1 h-1Z M7 7 h1 v1 h-1Z M9.1 7.5 a0.4 0.4 0 1 0 0.8 0 a0.4 0.4 0 1 0 -0.8 0Z M11.1 7.5 a0.4 0.4 0 1 0 0.8 0 a0.4 0.4 0 1 0 -0.8 0Z M13.1 7.5 a0.4 0.4 0 1 0 0.8 0 a0.4 0.4 0 1 0 -0.8 0Z M15.1 7.5 a0.4 0.4 0 1 0 0.8 0 a0.4 0.4 0 1 0 -0.8 0Z M17.1 7.5 a0.4 0.4 0 1 0 0.8 0 a0.4 0.4 0 1 0 -0.8 0Z M19.1 7.5 a0.4 0.4 0 1 0 0.8 0 a0.4 0.4 0 1 0 -0.8 0Z M21 7 h1 v1 h-1Z M23 7 h1 v1 h-1Z M25 7 h1 v1 h-1Z M27.1 7.5 a0.4 0.4 0 1 0 0.8 0 a0.4 0.4 0 1 0 -0.8 0Z M29.1 7.5 a0.4 0.4 0 1 0 0.8 0 a0.4 0.4 0 1 0 -0.8 0Z M31.1 7.5 a0.4 0.4 0 1 0 0.8 0 a0.4 0.4 0 1 0 -0.8 0Z M33.1 7.5 a0.4 0.4 0 1 0 0.8 0 a0.4 0.4 0 1 0 -0.8 0Z M35.1 7.5 a0.4 0.4 0 1 0 0.8 0 a0.4 0.4 0 1 0 -0.8 0Z M37.1 7.5 a0.4 0.4 0 1 0 0.8 0 a0.4 0.4 0 1 0 -0.8 0Z M39 7 h1 v1 h-1Z M40 7 h1 v1 h-1Z M41 7 h1 v1 h-1Z M42 7 h1 v1 h-1Z M43 7 h1 v1 h-1Z M44 7 h1 v1 h-1Z M45 7 h1 v1 h-1Z M11.1 8.5 a0.4 0.4 0 1 0 0.8 0 a0.4 0.4 0 1 0 -0.8 0Z M13.1 8.5 a0.4 0.4 0 1 0 0.8 0 a0.4 0.4 0 1 0 -0.8 0Z M14.1 8.5 a0.4 0.4 0 1 0 0.8 0 a0.4 0.4 0 1 0 -0.8 0Z M17.1 8.5 a0.4 0.4 0 1 0 0.8 0 a0.4 0.4 0 1 0 -0.8 0Z M20.1 8.5 a0.4 0.4 0 1 0 0.8 0 a0.4 0.4 0 1 0 -0.8 0Z M21 8 h1 v1 h-1Z M25 8 h1 v1 h-1Z M27.1 8.5 a0.4 0.4 0 1 0 0.8 0 a0.4 0.4 0 1 0 -0.8 0Z M28.1 8.5 a0.4 0.4 0 1 0 0.8 0 a0.4 0.4 0 1 0 -0.8 0Z M29.1 8.5 a0.4 0.4 0 1 0 0.8 0 a0.4 0.4 0 1 0 -0.8 0Z M30.1 8.5 a0.4 0.4 0 1 0 0.8 0 a0.4 0.4 0 1 0 -0.8 0Z M33.1 8.5 a0.4 0.4 0 1 0 0.8 0 a0.4 0.4 0 1 0 -0.8 0Z M36.1 8.5 a0.4 0.4 0 1 0 0.8 0 a0.4 0.4 0 1 0 -0.8 0Z M1.1 9.5 a0.4 0.4 0 1 0 0.8 0 a0.4 0.4 0 1 0 -0.8 0Z M2.1 9.5 a0.4 0.4 0 1 0 0.8 0 a0.4 0.4 0 1 0 -0.8 0Z M3.1 9.5 a0.4 0.4 0 1 0 0.8 0 a0.4 0.4 0 1 0 -0.8 0Z M4.1 9.5 a0.4 0.4 0 1 0 0.8 0 a0.4 0.4 0 1 0 -0.8 0Z M5.1 9.5 a0.4 0.4 0 1 0 0.8 0 a0.4 0.4 0 1 0 -0.8 0Z M7.1 9.5 a0.4 0.4 0 1 0 0.8 0 a0.4 0.4 0 1 0 -0.8 0Z M8.1 9.5 a0.4 0.4 0 1 0 0.8 0 a0.4 0.4 0 1 0 -0.8 0Z M9.1 9.5 a0.4 0.4 0 1 0 0.8 0 a0.4 0.4 0 1 0 -0.8 0Z M11.1 9.5 a0.4 0.4 0 1 0 0.8 0 a0.4 0.4 0 1 0 -0.8 0Z M13.1 9.5 a0.4 0.4 0 1 0 0.8 0 a0.4 0.4 0 1 0 -0.8 0Z M18.1 9.5 a0.4 0.4 0 1 0 0.8 0 a0.4 0.4 0 1 0 -0.8 0Z M21 9 h1 v1 h-1Z M22 9 h1 v1 h-1Z M23 9 h1 v1 h-1Z M24 9 h1 v1 h-1Z M25 9 h1 v1 h-1Z M30.1 9.5 a0.4 0.4 0 1 0 0.8 0 a0.4 0.4 0 1 0 -0.8 0Z M32.1 9.5 a0.4 0.4 0 1 0 0.8 0 a0.4 0.4 0 1 0 -0.8 0Z M38.1 9.5 a0.4 0.4 0 1 0 0.8 0 a0.4 0.4 0 1 0 -0.8 0Z M40.1 9.5 a0.4 0.4 0 1 0 0.8 0 a0.4 0.4 0 1 0 -0.8 0Z M42.1 9.5 a0.4 0.4 0 1 0 0.8 0 a0.4 0.4 0 1 0 -0.8 0Z M44.1 9.5 a0.4 0.4 0 1 0 0.8 0 a0.4 0.4 0 1 0 -0.8 0Z
M2.1 10.5 a0.4 0.4 0 1 0 0.8 0 a0.4 0.4 0 1 0 -0.8 0Z M3.1 10.5 a0.4 0.4 0 1 0 0.8 0 a0.4 0.4 0 1 0 -0.8 0Z M4.1 10.5 a0.4 0.4 0 1 0 0.8 0 a0.4 0.4 0 1 0 -0.8 0Z M9.1 10.5 a0.4 0.4 0 1 0 0.8 0 a0.4 0.4 0 1 0 -0.8 0Z M10.1 10.5 a0.4 0.4 0 1 0 0.8 0 a0.4 0.4 0 1 0 -0.8 0Z M12.1 10.5 a0.4 0.4 0 1 0 0.8 0 a0.4 0.4 0 1 0 -0.8 0Z M14.1 10.5 a0.4 0.4 0 1 0 0.8 0 a0.4 0.4 0 1 0 -0.8 0Z M16.1 10.5 a0.4 0.4 0 1 0 0.8 0 a0.4 0.4 0 1 0 -0.8 0Z M19.1 10.5 a0.4 0.4 0 1 0 0.8 0 a0.4 0.4 0 1 0 -0.8 0Z M23.1 10.5 a0.4 0.4 0 1 0 0.8 0 a0.4 0.4 0 1 0 -0.8 0Z M25.1 10.5 a0.4 0.4 0 1 0 0.8 0 a0.4 0.4 0 1 0 -0.8 0Z M26.1 10.5 a0.4 0.4 0 1 0 0.8 0 a0.4 0.4 0 1 0 -0.8 0Z M29.1 10.5 a0.4 0.4 0 1 0 0.8 0 a0.4 0.4 0 1 0 -0.8 0Z M30.1 10.5 a0.4 0.4 0 1 0 0.8 0 a0.4 0.4 0 1 0 -0.8 0Z M31.1 10.5 a0.4 0.4 0 1 0 0.8 0 a0.4 0.4 0 1 0 -0.8 0Z M32.1 10.5 a0.4 0.4 0 1 0 0.8 0 a0.4 0.4 0 1 0 -0.8 0Z M33.1 10.5 a0.4 0.4 0 1 0 0.8 0 a0.4 0.4 0 1 0 -0.8 0Z M34.1 10.5 a0.4 0.4 0 1 0 0.8 0 a0.4 0.4 0 1 0 -0.8 0Z M36.1 10.5 a0.4 0.4 0 1 0 0.8 0 a0.4 0.4 0 1 0 -0.8 0Z M37.1 10.5 a0.4 0.4 0 1 0 0.8 0 a0.4 0.4 0 1 0 -0.8 0Z M41.1 10.5 a0.4 0.4 0 1 0 0.8 0 a0.4 0.4 0 1 0 -0.8 0Z M43.1 10.5 a0.4 0.4 0 1 0 0.8 0 a0.4 0.4 0 1 0 -0.8 0Z M44.1 10.5 a0.4 0.4 0 1 0 0.8 0 a0.4 0.4 0 1 0 -0.8 0Z M45.1 10.5 a0.4 0.4 0 1 0 0.8 0 a0.4 0.4 0 1 0 -0.8 0Z M1.1 11.5 a0.4 0.4 0 1 0 0.8 0 a0.4 0.4 0 1 0 -0.8 0Z M3.1 11.5 a0.4 0.4 0 1 0 0.8 0 a0.4 0.4 0 1 0 -0.8 0Z M6.1 11.5 a0.4 0.4 0 1 0 0.8 0 a0.4 0.4 0 1 0 -0.8 0Z M7.1 11.5 a0.4 0.4 0 1 0 0.8 0 a0.4 0.4 0 1 0 -0.8 0Z M8.1 11.5 a0.4 0.4 0 1 0 0.8 0 a0.4 0.4 0 1 0 -0.8 0Z M14.1 11.5 a0.4 0.4 0 1 0 0.8 0 a0.4 0.4 0 1 0 -0.8 0Z M15.1 11.5 a0.4 0.4 0 1 0 0.8 0 a0.4 0.4 0 1 0 -0.8 0Z M19.1 11.5 a0.4 0.4 0 1 0 0.8 0 a0.4 0.4 0 1 0 -0.8 0Z M22.1 11.5 a0.4 0.4 0 1 0 0.8 0 a0.4 0.4 0 1 0 -0.8 0Z M23.1 11.5 a0.4 0.4 0 1 0 0.8 0 a0.4 0.4 0 1 0 -0.8 0Z M24.1 11.5 a0.4 0.4 0 1 0 0.8 0 a0.4 0.4 0 1 0 -0.8 0Z M27.1 11.5 a0.4 0.4 0 1 0 0.8 0 a0.4 0.4 0 1 0 -0.8 0Z M30.1 11.5 a0.4 0.4 0 1 0 0.8 0 a0.4 0.4 0 1 0 -0.8 0Z M34.1 11.5 a0.4 0.4 0 1 0 0.8 0 a0.4 0.4 0 1 0 -0.8 0Z M35.1 11.5 a0.4 0.4 0 1 0 0.8 0 a0.4 0.4 0 1 0 -0.8 0Z M39.1 11.5 a0.4 0.4 0 1 0 0.8 0 a0.4 0.4 0 1 0 -0.8 0Z M42.1 11.5 a0.4 0.4 0 1 0 0.8 0 a0.4 0.4 0 1 0 -0.8 0Z M43.1 11.5 a0.4 0.4 0 1 0 0.8 0 a0.4 0.4 0 1 0 -0.8 0Z M44.1 11.5 a0.4 0.4 0 1 0 0.8 0 a0.4 0.4 0 1 0 -0.8 0Z M1.1 12.5 a0.4 0.4 0 1 0 0.8 0 a0.4 0.4 0 1 0 -0.8 0Z M2.1 12.5 a0.4 0.4 0 1 0 0.8 0 a0.4 0.4 0 1 0 -0.8 0Z M4.1 12.5 a0.4 0.4 0 1 0 0.8 0 a0.4 0.4 0 1 0 -0.8 0Z M6.1 12.5 a0.4 0.4 0 1 0 0.8 0 a0.4 0.4 0 1 0 -0.8 0Z M10.1 12.5 a0.4 0.4 0 1 0 0.8 0 a0.4 0.4 0 1 0 -0.8 0Z M11.1 12.5 a0.4 0.4 0 1 0 0.8 0 a0.4 0.4 0 1 0 -0.8 0Z M12.1 12.5 a0.4 0.4 0 1 0 0.8 0 a0.4 0.4 0 1 0 -0.8 0Z M13.1 12.5 a0.4 0.4 0 1 0 0.8 0 a0.4 0.4 0 1 0 -0.8 0Z M15.1 12.5 a0.4 0.4 0 1 0 0.8 0 a0.4 0.4 0 1 0 -0.8 0Z M16.1 12.5 a0.4 0.4 0 1 0 0.8 0 a0.4 0.4 0 1 0 -0.8 0Z M18.1 12.5 a0.4 0.4 0 1 0 0.8 0 a0.4 0.4 0 1 0 -0.8 0Z M19.1 12.5 a0.4 0.4 0 1 0 0.8 0 a0.4 0.4 0 1 0 -0.8 0Z M20.1 12.5 a0.4 0.4 0 1 0 0.8 0 a0.4 0.4 0 1 0 -0.8 0Z M21.1 12.5 a0.4 0.4 0 1 0 0.8 0 a0.4 0.4 0 1 0 -0.8 0Z M23.1 12.5 a0.4 0.4 0 1 0 0.8 0 a0.4 0.4 0 1 0 -0.8 0Z M28.1 12.5 a0.4 0.4 0 1 0 0.8 0 a0.4 0.4 0 1 0 -0.8 0Z M30.1 12.5 a0.4 0.4 0 1 0 0.8 0 a0.4 0.4 0 1 0 -0.8 0Z M32.1 12.5 a0.4 0.4 0 1 0 0.8 0 a0.4 0.4 0 1 0 -0.8 0Z M34.1 12.5 a0.4 0.4 0 1 0 0.8 0 a0.4 0.4 0 1 0 -0.8 0Z M37.1 12.5 a0.4 0.4 0 1 0 0.8 0 a0.4 0.4 0 1 0 -0.8 0Z M40.1 12.5 a0.4 0.4 0 1 0 0.8 0 a0.4 0.4 0 1 0 -0.8 0Z M43.1 12.5 a0.4 0.4 0 1 0 0.8 0 a0.4 0.4 0 1 0 -0.8 0Z M3.1 13.5 a0.4 0.4 0 1 0 0.8 0 a0.4 0.4 0 1 0 -0.8 0Z M5.1 13.5 a0.4 0.4 0 1 0 0.8 0 a0.4 0.4 0 1 0 -0.8 0Z M7.1 13.5 a0.4 0.4 0 1 0 0.8 0 a0.4 0.4 0 1 0 -0.8 0Z M8.1 13.5 a0.4 0.4 0 1 0 0.8 0 a0.4 0.4 0 1 0 -0.8 0Z M10.1 13.5 a0.4 0.4 0 1 0 0.8 0 a0.4 0.4 0 1 0 -0.8 0Z M11.1 13.5 a0.4 0.4 0 1 0 0.8 0 a0.4 0.4 0 1 0 -0.8 0Z M14.1 13.5 a0.4 0.4 0 1 0 0.8 0 a0.4 0.4 0 1 0 -0.8 0Z M15.1 13.5 a0.4 0.4 0 1 0 0.8 0 a0.4 0.4 0 1 0 -0.8 0Z M19.1 13.5 a0.4 0.4 0 1 0 0.8 0 a0.4 0.4 0 1 0 -0.8 0Z M21.1 13.5 a0.4 0.4 0 1 0 0.8 0 a0.4 0.4 0 1 0 -0.8 0Z M22.1 13.5 a0.4 0.4 0 1 0 0.8 0 a0.4 0.4 0 1 0 -0.8 0Z M24.1 13.5 a0.4 0.4 0 1 0 0.8 0 a0.4 0.4 0 1 0 -0.8 0Z M26.1 13.5 a0.4 0.4 0 1 0 0.8 0 a0.4 0.4 0 1 0 -0.8 0Z M29.1 13.5 a0.4 0.4 0 1 0 0.8 0 a0.4 0.4 0 1 0 -0.8 0Z M36.1 13.5 a0.4 0.4 0 1 0 0.8 0 a0.4 0.4 0 1 0 -0.8 0Z M37.1 13.5 a0.4 0.4 0 1 0 0.8 0 a0.4 0.4 0 1 0 -0.8 0Z M38.1 13.5 a0.4 0.4 0 1 0 0.8 0 a0.4 0.4 0 1 0 -0.8 0Z M41.1 13.5 a0.4 0.4 0 1 0 0.8 0 a0.4 0.4 0 1 0 -0.8 0Z M42.1 13.5 a0.4 0.4 0 1 0 0.8 0 a0.4 0.4 0 1 0 -0.8 0Z M43.1 13.5 a0.4 0.4 0 1 0 0.8 0 a0.4 0.4 0 1 0 -0.8 0Z M44.1 13.5 a0.4 0.4 0 1 0 0.8 0 a0.4 0.4 0 1 0 -0.8 0Z M1.1 14.5 a0.4 0.4 0 1 0 0.8 0 a0.4 0.4 0 1 0 -0.8 0Z M6.1 14.5 a0.4 0.4 0 1 0 0.8 0 a0.4 0.4 0 1 0 -0.8 0Z M8.1 14.5 a0.4 0.4 0 1 0 0.8 0 a0.4 0.4 0 1 0 -0.8 0Z M9.1 14.5 a0.4 0.4 0 1 0 0.8 0 a0.4 0.4 0 1 0 -0.8 0Z M11.1 14.5 a0.4 0.4 0 1 0 0.8 0 a0.4 0.4 0 1 0 -0.8 0Z M12.1 14.5 a0.4 0.4 0 1 0 0.8 0 a0.4 0.4 0 1 0 -0.8 0Z M16.1 14.5 a0.4 0.4 0 1 0 0.8 0 a0.4 0.4 0 1 0 -0.8 0Z M18.1 14.5 a0.4 0.4 0 1 0 0.8 0 a0.4 0.4 0 1 0 -0.8 0Z M19.1 14.5 a0.4 0.4 0 1 0 0.8 0 a0.4 0.4 0 1 0 -0.8 0Z M20.1 14.5 a0.4 0.4 0 1 0 0.8 0 a0.4 0.4 0 1 0 -0.8 0Z M21.1 14.5 a0.4 0.4 0 1 0 0.8 0 a0.4 0.4 0 1 0 -0.8 0Z M23.1 14.5 a0.4 0.4 0 1 0 0.8 0 a0.4 0.4 0 1 0 -0.8 0Z M25.1 14.5 a0.4 0.4 0 1 0 0.8 0 a0.4 0.4 0 1 0 -0.8 0Z M28.1 14.5 a0.4 0.4 0 1 0 0.8 0 a0.4 0.4 0 1 0 -0.8 0Z
M29.1 14.5 a0.4 0.4 0 1 0 0.8 0 a0.4 0.4 0 1 0 -0.8 0Z M30.1 14.5 a0.4 0.4 0 1 0 0.8 0 a0.4 0.4 0 1 0 -0.8 0Z M32.1 14.5 a0.4 0.4 0 1 0 0.8 0 a0.4 0.4 0 1 0 -0.8 0Z M34.1 14.5 a0.4 0.4 0 1 0 0.8 0 a0.4 0.4 0 1 0 -0.8 0Z M37.1 14.5 a0.4 0.4 0 1 0 0.8 0 a0.4 0.4 0 1 0 -0.8 0Z M40.1 14.5 a0.4 0.4 0 1 0 0.8 0 a0.4 0.4 0 1 0 -0.8 0Z M41.1 14.5 a0.4 0.4 0 1 0 0.8 0 a0.4 0.4 0 1 0 -0.8 0Z M43.1 14.5 a0.4 0.4 0 1 0 0.8 0 a0.4 0.4 0 1 0 -0.8 0Z M3.1 15.5 a0.4 0.4 0 1 0 0.8 0 a0.4 0.4 0 1 0 -0.8 0Z M5.1 15.5 a0.4 0.4 0 1 0 0.8 0 a0.4 0.4 0 1 0 -0.8 0Z M7.1 15.5 a0.4 0.4 0 1 0 0.8 0 a0.4 0.4 0 1 0 -0.8 0Z M9.1 15.5 a0.4 0.4 0 1 0 0.8 0 a0.4 0.4 0 1 0 -0.8 0Z M11.1 15.5 a0.4 0.4 0 1 0 0.8 0 a0.4 0.4 0 1 0 -0.8 0Z M12.1 15.5 a0.4 0.4 0 1 0 0.8 0 a0.4 0.4 0 1 0 -0.8 0Z M14.1 15.5 a0.4 0.4 0 1 0 0.8 0 a0.4 0.4 0 1 0 -0.8 0Z M15.1 15.5 a0.4 0.4 0 1 0 0.8 0 a0.4 0.4 0 1 0 -0.8 0Z M19.1 15.5 a0.4 0.4 0 1 0 0.8 0 a0.4 0.4 0 1 0 -0.8 0Z M22.1 15.5 a0.4 0.4 0 1 0 0.8 0 a0.4 0.4 0 1 0 -0.8 0Z M23.1 15.5 a0.4 0.4 0 1 0 0.8 0 a0.4 0.4 0 1 0 -0.8 0Z M24.1 15.5 a0.4 0.4 0 1 0 0.8 0 a0.4 0.4 0 1 0 -0.8 0Z M26.1 15.5 a0.4 0.4 0 1 0 0.8 0 a0.4 0.4 0 1 0 -0.8 0Z M29.1 15.5 a0.4 0.4 0 1 0 0.8 0 a0.4 0.4 0 1 0 -0.8 0Z M31.1 15.5 a0.4 0.4 0 1 0 0.8 0 a0.4 0.4 0 1 0 -0.8 0Z M36.1 15.5 a0.4 0.4 0 1 0 0.8 0 a0.4 0.4 0 1 0 -0.8 0Z M37.1 15.5 a0.4 0.4 0 1 0 0.8 0 a0.4 0.4 0 1 0 -0.8 0Z M38.1 15.5 a0.4 0.4 0 1 0 0.8 0 a0.4 0.4 0 1 0 -0.8 0Z M41.1 15.5 a0.4 0.4 0 1 0 0.8 0 a0.4 0.4 0 1 0 -0.8 0Z M43.1 15.5 a0.4 0.4 0 1 0 0.8 0 a0.4 0.4 0 1 0 -0.8 0Z M44.1 15.5 a0.4 0.4 0 1 0 0.8 0 a0.4 0.4 0 1 0 -0.8 0Z M45.1 15.5 a0.4 0.4 0 1 0 0.8 0 a0.4 0.4 0 1 0 -0.8 0Z M4.1 16.5 a0.4 0.4 0 1 0 0.8 0 a0.4 0.4 0 1 0 -0.8 0Z M6.1 16.5 a0.4 0.4 0 1 0 0.8 0 a0.4 0.4 0 1 0 -0.8 0Z M8.1 16.5 a0.4 0.4 0 1 0 0.8 0 a0.4 0.4 0 1 0 -0.8 0Z M9.1 16.5 a0.4 0.4 0 1 0 0.8 0 a0.4 0.4 0 1 0 -0.8 0Z M10.1 16.5 a0.4 0.4 0 1 0 0.8 0 a0.4 0.4 0 1 0 -0.8 0Z M11.1 16.5 a0.4 0.4 0 1 0 0.8 0 a0.4 0.4 0 1 0 -0.8 0Z M12.1 16.5 a0.4 0.4 0 1 0 0.8 0 a0.4 0.4 0 1 0 -0.8 0Z M15.1 16.5 a0.4 0.4 0 1 0 0.8 0 a0.4 0.4 0 1 0 -0.8 0Z M16.1 16.5 a0.4 0.4 0 1 0 0.8 0 a0.4 0.4 0 1 0 -0.8 0Z M18.1 16.5 a0.4 0.4 0 1 0 0.8 0 a0.4 0.4 0 1 0 -0.8 0Z M19.1 16.5 a0.4 0.4 0 1 0 0.8 0 a0.4 0.4 0 1 0 -0.8 0Z M20.1 16.5 a0.4 0.4 0 1 0 0.8 0 a0.4 0.4 0 1 0 -0.8 0Z M21.1 16.5 a0.4 0.4 0 1 0 0.8 0 a0.4 0.4 0 1 0 -0.8 0Z M23.1 16.5 a0.4 0.4 0 1 0 0.8 0 a0.4 0.4 0 1 0 -0.8 0Z M30.1 16.5 a0.4 0.4 0 1 0 0.8 0 a0.4 0.4 0 1 0 -0.8 0Z M31.1 16.5 a0.4 0.4 0 1 0 0.8 0 a0.4 0.4 0 1 0 -0.8 0Z M33.1 16.5 a0.4 0.4 0 1 0 0.8 0 a0.4 0.4 0 1 0 -0.8 0Z M35.1 16.5 a0.4 0.4 0 1 0 0.8 0 a0.4 0.4 0 1 0 -0.8 0Z M37.1 16.5 a0.4 0.4 0 1 0 0.8 0 a0.4 0.4 0 1 0 -0.8 0Z M38.1 16.5 a0.4 0.4 0 1 0 0.8 0 a0.4 0.4 0 1 0 -0.8 0Z M39.1 16.5 a0.4 0.4 0 1 0 0.8 0 a0.4 0.4 0 1 0 -0.8 0Z M41.1 16.5 a0.4 0.4 0 1 0 0.8 0 a0.4 0.4 0 1 0 -0.8 0Z M42.1 16.5 a0.4 0.4 0 1 0 0.8 0 a0.4 0.4 0 1 0 -0.8 0Z M43.1 16.5 a0.4 0.4 0 1 0 0.8 0 a0.4 0.4 0 1 0 -0.8 0Z M45.1 16.5 a0.4 0.4 0 1 0 0.8 0 a0.4 0.4 0 1 0 -0.8 0Z M2.1 17.5 a0.4 0.4 0 1 0 0.8 0 a0.4 0.4 0 1 0 -0.8 0Z M5.1 17.5 a0.4 0.4 0 1 0 0.8 0 a0.4 0.4 0 1 0 -0.8 0Z M6.1 17.5 a0.4 0.4 0 1 0 0.8 0 a0.4 0.4 0 1 0 -0.8 0Z M7.1 17.5 a0.4 0.4 0 1 0 0.8 0 a0.4 0.4 0 1 0 -0.8 0Z M9.1 17.5 a0.4 0.4 0 1 0 0.8 0 a0.4 0.4 0 1 0 -0.8 0Z M10.1 17.5 a0.4 0.4 0 1 0 0.8 0 a0.4 0.4 0 1 0 -0.8 0Z M12.1 17.5 a0.4 0.4 0 1 0 0.8 0 a0.4 0.4 0 1 0 -0.8 0Z M13.1 17.5 a0.4 0.4 0 1 0 0.8 0 a0.4 0.4 0 1 0 -0.8 0Z M14.1 17.5 a0.4 0.4 0 1 0 0.8 0 a0.4 0.4 0 1 0 -0.8 0Z M15.1 17.5 a0.4 0.4 0 1 0 0.8 0 a0.4 0.4 0 1 0 -0.8 0Z M16.1 17.5 a0.4 0.4 0 1 0 0.8 0 a0.4 0.4 0 1 0 -0.8 0Z M19.1 17.5 a0.4 0.4 0 1 0 0.8 0 a0.4 0.4 0 1 0 -0.8 0Z M21.1 17.5 a0.4 0.4 0 1 0 0.8 0 a0.4 0.4 0 1 0 -0.8 0Z M22.1 17.5 a0.4 0.4 0 1 0 0.8 0 a0.4 0.4 0 1 0 -0.8 0Z M24.1 17.5 a0.4 0.4 0 1 0 0.8 0 a0.4 0.4 0 1 0 -0.8 0Z M26.1 17.5 a0.4 0.4 0 1 0 0.8 0 a0.4 0.4 0 1 0 -0.8 0Z M27.1 17.5 a0.4 0.4 0 1 0 0.8 0 a0.4 0.4 0 1 0 -0.8 0Z M32.1 17.5 a0.4 0.4 0 1 0 0.8 0 a0.4 0.4 0 1 0 -0.8 0Z M34.1 17.5 a0.4 0.4 0 1 0 0.8 0 a0.4 0.4 0 1 0 -0.8 0Z M35.1 17.5 a0.4 0.4 0 1 0 0.8 0 a0.4 0.4 0 1 0 -0.8 0Z M39.1 17.5 a0.4 0.4 0 1 0 0.8 0 a0.4 0.4 0 1 0 -0.8 0Z M42.1 17.5 a0.4 0.4 0 1 0 0.8 0 a0.4 0.4 0 1 0 -0.8 0Z M44.1 17.5 a0.4 0.4 0 1 0 0.8 0 a0.4 0.4 0 1 0 -0.8 0Z M45.1 17.5 a0.4 0.4 0 1 0 0.8 0 a0.4 0.4 0 1 0 -0.8 0Z M1.1 18.5 a0.4 0.4 0 1 0 0.8 0 a0.4 0.4 0 1 0 -0.8 0Z M3.1 18.5 a0.4 0.4 0 1 0 0.8 0 a0.4 0.4 0 1 0 -0.8 0Z M5.1 18.5 a0.4 0.4 0 1 0 0.8 0 a0.4 0.4 0 1 0 -0.8 0Z M8.1 18.5 a0.4 0.4 0 1 0 0.8 0 a0.4 0.4 0 1 0 -0.8 0Z M9.1 18.5 a0.4 0.4 0 1 0 0.8 0 a0.4 0.4 0 1 0 -0.8 0Z M13.1 18.5 a0.4 0.4 0 1 0 0.8 0 a0.4 0.4 0 1 0 -0.8 0Z M17.1 18.5 a0.4 0.4 0 1 0 0.8 0 a0.4 0.4 0 1 0 -0.8 0Z M18.1 18.5 a0.4 0.4 0 1 0 0.8 0 a0.4 0.4 0 1 0 -0.8 0Z M19.1 18.5 a0.4 0.4 0 1 0 0.8 0 a0.4 0.4 0 1 0 -0.8 0Z M20.1 18.5 a0.4 0.4 0 1 0 0.8 0 a0.4 0.4 0 1 0 -0.8 0Z M21.1 18.5 a0.4 0.4 0 1 0 0.8 0 a0.4 0.4 0 1 0 -0.8 0Z M22.1 18.5 a0.4 0.4 0 1 0 0.8 0 a0.4 0.4 0 1 0 -0.8 0Z M24.1 18.5 a0.4 0.4 0 1 0 0.8 0 a0.4 0.4 0 1 0 -0.8 0Z M25.1 18.5 a0.4 0.4 0 1 0 0.8 0 a0.4 0.4 0 1 0 -0.8 0Z M26.1 18.5 a0.4 0.4 0 1 0 0.8 0 a0.4 0.4 0 1 0 -0.8 0Z M31.1 18.5 a0.4 0.4 0 1 0 0.8 0 a0.4 0.4 0 1 0 -0.8 0Z M36.1 18.5 a0.4 0.4 0 1 0 0.8 0 a0.4 0.4 0 1 0 -0.8 0Z M37.1 18.5 a0.4 0.4 0 1 0 0.8 0 a0.4 0.4 0 1 0 -0.8 0Z M38.1 18.5 a0.4 0.4 0 1 0 0.8 0 a0.4 0.4 0 1 0 -0.8 0Z M41.1 18.5 a0.4 0.4 0 1 0 0.8 0 a0.4 0.4 0 1 0 -0.8 0Z M42.1 18.5 a0.4 0.4 0 1 0 0.8 0 a0.4 0.4 0 1 0 -0.8 0Z
M44.1 18.5 a0.4 0.4 0 1 0 0.8 0 a0.4 0.4 0 1 0 -0.8 0Z M45.1 18.5 a0.4 0.4 0 1 0 0.8 0 a0.4 0.4 0 1 0 -0.8 0Z M1.1 19.5 a0.4 0.4 0 1 0 0.8 0 a0.4 0.4 0 1 0 -0.8 0Z M2.1 19.5 a0.4 0.4 0 1 0 0.8 0 a0.4 0.4 0 1 0 -0.8 0Z M4.1 19.5 a0.4 0.4 0 1 0 0.8 0 a0.4 0.4 0 1 0 -0.8 0Z M7.1 19.5 a0.4 0.4 0 1 0 0.8 0 a0.4 0.4 0 1 0 -0.8 0Z M9.1 19.5 a0.4 0.4 0 1 0 0.8 0 a0.4 0.4 0 1 0 -0.8 0Z M10.1 19.5 a0.4 0.4 0 1 0 0.8 0 a0.4 0.4 0 1 0 -0.8 0Z M16.1 19.5 a0.4 0.4 0 1 0 0.8 0 a0.4 0.4 0 1 0 -0.8 0Z M17.1 19.5 a0.4 0.4 0 1 0 0.8 0 a0.4 0.4 0 1 0 -0.8 0Z M18.1 19.5 a0.4 0.4 0 1 0 0.8 0 a0.4 0.4 0 1 0 -0.8 0Z M20.1 19.5 a0.4 0.4 0 1 0 0.8 0 a0.4 0.4 0 1 0 -0.8 0Z M25.1 19.5 a0.4 0.4 0 1 0 0.8 0 a0.4 0.4 0 1 0 -0.8 0Z M26.1 19.5 a0.4 0.4 0 1 0 0.8 0 a0.4 0.4 0 1 0 -0.8 0Z M28.1 19.5 a0.4 0.4 0 1 0 0.8 0 a0.4 0.4 0 1 0 -0.8 0Z M29.1 19.5 a0.4 0.4 0 1 0 0.8 0 a0.4 0.4 0 1 0 -0.8 0Z M30.1 19.5 a0.4 0.4 0 1 0 0.8 0 a0.4 0.4 0 1 0 -0.8 0Z M32.1 19.5 a0.4 0.4 0 1 0 0.8 0 a0.4 0.4 0 1 0 -0.8 0Z M34.1 19.5 a0.4 0.4 0 1 0 0.8 0 a0.4 0.4 0 1 0 -0.8 0Z M35.1 19.5 a0.4 0.4 0 1 0 0.8 0 a0.4 0.4 0 1 0 -0.8 0Z M36.1 19.5 a0.4 0.4 0 1 0 0.8 0 a0.4 0.4 0 1 0 -0.8 0Z M37.1 19.5 a0.4 0.4 0 1 0 0.8 0 a0.4 0.4 0 1 0 -0.8 0Z M38.1 19.5 a0.4 0.4 0 1 0 0.8 0 a0.4 0.4 0 1 0 -0.8 0Z M39.1 19.5 a0.4 0.4 0 1 0 0.8 0 a0.4 0.4 0 1 0 -0.8 0Z M44.1 19.5 a0.4 0.4 0 1 0 0.8 0 a0.4 0.4 0 1 0 -0.8 0Z M4.1 20.5 a0.4 0.4 0 1 0 0.8 0 a0.4 0.4 0 1 0 -0.8 0Z M5.1 20.5 a0.4 0.4 0 1 0 0.8 0 a0.4 0.4 0 1 0 -0.8 0Z M9.1 20.5 a0.4 0.4 0 1 0 0.8 0 a0.4 0.4 0 1 0 -0.8 0Z M10.1 20.5 a0.4 0.4 0 1 0 0.8 0 a0.4 0.4 0 1 0 -0.8 0Z M12.1 20.5 a0.4 0.4 0 1 0 0.8 0 a0.4 0.4 0 1 0 -0.8 0Z M13.1 20.5 a0.4 0.4 0 1 0 0.8 0 a0.4 0.4 0 1 0 -0.8 0Z M14.1 20.5 a0.4 0.4 0 1 0 0.8 0 a0.4 0.4 0 1 0 -0.8 0Z M17.1 20.5 a0.4 0.4 0 1 0 0.8 0 a0.4 0.4 0 1 0 -0.8 0Z M22.1 20.5 a0.4 0.4 0 1 0 0.8 0 a0.4 0.4 0 1 0 -0.8 0Z M24.1 20.5 a0.4 0.4 0 1 0 0.8 0 a0.4 0.4 0 1 0 -0.8 0Z M25.1 20.5 a0.4 0.4 0 1 0 0.8 0 a0.4 0.4 0 1 0 -0.8 0Z M26.1 20.5 a0.4 0.4 0 1 0 0.8 0 a0.4 0.4 0 1 0 -0.8 0Z M27.1 20.5 a0.4 0.4 0 1 0 0.8 0 a0.4 0.4 0 1 0 -0.8 0Z M31.1 20.5 a0.4 0.4 0 1 0 0.8 0 a0.4 0.4 0 1 0 -0.8 0Z M35.1 20.5 a0.4 0.4 0 1 0 0.8 0 a0.4 0.4 0 1 0 -0.8 0Z M36.1 20.5 a0.4 0.4 0 1 0 0.8 0 a0.4 0.4 0 1 0 -0.8 0Z M37.1 20.5 a0.4 0.4 0 1 0 0.8 0 a0.4 0.4 0 1 0 -0.8 0Z M38.1 20.5 a0.4 0.4 0 1 0 0.8 0 a0.4 0.4 0 1 0 -0.8 0Z M39.1 20.5 a0.4 0.4 0 1 0 0.8 0 a0.4 0.4 0 1 0 -0.8 0Z M42.1 20.5 a0.4 0.4 0 1 0 0.8 0 a0.4 0.4 0 1 0 -0.8 0Z M1.1 21.5 a0.4 0.4 0 1 0 0.8 0 a0.4 0.4 0 1 0 -0.8 0Z M4.1 21.5 a0.4 0.4 0 1 0 0.8 0 a0.4 0.4 0 1 0 -0.8 0Z M5 21 h1 v1 h-1Z M6 21 h1 v1 h-1Z M7 21 h1 v1 h-1Z M8 21 h1 v1 h-1Z M9 21 h1 v1 h-1Z M13.1 21.5 a0.4 0.4 0 1 0 0.8 0 a0.4 0.4 0 1 0 -0.8 0Z M16.1 21.5 a0.4 0.4 0 1 0 0.8 0 a0.4 0.4 0 1 0 -0.8 0Z M18.1 21.5 a0.4 0.4 0 1 0 0.8 0 a0.4 0.4 0 1 0 -0.8 0Z M20.1 21.5 a0.4 0.4 0 1 0 0.8 0 a0.4 0.4 0 1 0 -0.8 0Z M21 21 h1 v1 h-1Z M22 21 h1 v1 h-1Z M23 21 h1 v1 h-1Z M24 21 h1 v1 h-1Z M25 21 h1 v1 h-1Z M27.1 21.5 a0.4 0.4 0 1 0 0.8 0 a0.4 0.4 0 1 0 -0.8 0Z M28.1 21.5 a0.4 0.4 0 1 0 0.8 0 a0.4 0.4 0 1 0 -0.8 0Z M30.1 21.5 a0.4 0.4 0 1 0 0.8 0 a0.4 0.4 0 1 0 -0.8 0Z M31.1 21.5 a0.4 0.4 0 1 0 0.8 0 a0.4 0.4 0 1 0 -0.8 0Z M32.1 21.5 a0.4 0.4 0 1 0 0.8 0 a0.4 0.4 0 1 0 -0.8 0Z M33.1 21.5 a0.4 0.4 0 1 0 0.8 0 a0.4 0.4 0 1 0 -0.8 0Z M34.1 21.5 a0.4 0.4 0 1 0 0.8 0 a0.4 0.4 0 1 0 -0.8 0Z M35.1 21.5 a0.4 0.4 0 1 0 0.8 0 a0.4 0.4 0 1 0 -0.8 0Z M37 21 h1 v1 h-1Z M38 21 h1 v1 h-1Z M39 21 h1 v1 h-1Z M40 21 h1 v1 h-1Z M41 21 h1 v1 h-1Z M43.1 21.5 a0.4 0.4 0 1 0 0.8 0 a0.4 0.4 0 1 0 -0.8 0Z M44.1 21.5 a0.4 0.4 0 1 0 0.8 0 a0.4 0.4 0 1 0 -0.8 0Z M1.1 22.5 a0.4 0.4 0 1 0 0.8 0 a0.4 0.4 0 1 0 -0.8 0Z M3.1 22.5 a0.4 0.4 0 1 0 0.8 0 a0.4 0.4 0 1 0 -0.8 0Z M4.1 22.5 a0.4 0.4 0 1 0 0.8 0 a0.4 0.4 0 1 0 -0.8 0Z M5 22 h1 v1 h-1Z M9 22 h1 v1 h-1Z M14.1 22.5 a0.4 0.4 0 1 0 0.8 0 a0.4 0.4 0 1 0 -0.8 0Z M17.1 22.5 a0.4 0.4 0 1 0 0.8 0 a0.4 0.4 0 1 0 -0.8 0Z M19.1 22.5 a0.4 0.4 0 1 0 0.8 0 a0.4 0.4 0 1 0 -0.8 0Z M21 22 h1 v1 h-1Z M25 22 h1 v1 h-1Z M26.1 22.5 a0.4 0.4 0 1 0 0.8 0 a0.4 0.4 0 1 0 -0.8 0Z M27.1 22.5 a0.4 0.4 0 1 0 0.8 0 a0.4 0.4 0 1 0 -0.8 0Z M31.1 22.5 a0.4 0.4 0 1 0 0.8 0 a0.4 0.4 0 1 0 -0.8 0Z M33.1 22.5 a0.4 0.4 0 1 0 0.8 0 a0.4 0.4 0 1 0 -0.8 0Z M35.1 22.5 a0.4 0.4 0 1 0 0.8 0 a0.4 0.4 0 1 0 -0.8 0Z M37 22 h1 v1 h-1Z M41 22 h1 v1 h-1Z M43.1 22.5 a0.4 0.4 0 1 0 0.8 0 a0.4 0.4 0 1 0 -0.8 0Z M44.1 22.5 a0.4 0.4 0 1 0 0.8 0 a0.4 0.4 0 1 0 -0.8 0Z M3.1 23.5 a0.4 0.4 0 1 0 0.8 0 a0.4 0.4 0 1 0 -0.8 0Z M5 23 h1 v1 h-1Z M7 23 h1 v1 h-1Z M9 23 h1 v1 h-1Z M10.1 23.5 a0.4 0.4 0 1 0 0.8 0 a0.4 0.4 0 1 0 -0.8 0Z
M11.1 23.5 a0.4 0.4 0 1 0 0.8 0 a0.4 0.4 0 1 0 -0.8 0Z M16.1 23.5 a0.4 0.4 0 1 0 0.8 0 a0.4 0.4 0 1 0 -0.8 0Z M17.1 23.5 a0.4 0.4 0 1 0 0.8 0 a0.4 0.4 0 1 0 -0.8 0Z M18.1 23.5 a0.4 0.4 0 1 0 0.8 0 a0.4 0.4 0 1 0 -0.8 0Z M21 23 h1 v1 h-1Z M23 23 h1 v1 h-1Z M25 23 h1 v1 h-1Z M28.1 23.5 a0.4 0.4 0 1 0 0.8 0 a0.4 0.4 0 1 0 -0.8 0Z M30.1 23.5 a0.4 0.4 0 1 0 0.8 0 a0.4 0.4 0 1 0 -0.8 0Z M31.1 23.5 a0.4 0.4 0 1 0 0.8 0 a0.4 0.4 0 1 0 -0.8 0Z M32.1 23.5 a0.4 0.4 0 1 0 0.8 0 a0.4 0.4 0 1 0 -0.8 0Z M33.1 23.5 a0.4 0.4 0 1 0 0.8 0 a0.4 0.4 0 1 0 -0.8 0Z M34.1 23.5 a0.4 0.4 0 1 0 0.8 0 a0.4 0.4 0 1 0 -0.8 0Z M36.1 23.5 a0.4 0.4 0 1 0 0.8 0 a0.4 0.4 0 1 0 -0.8 0Z M37 23 h1 v1 h-1Z M39 23 h1 v1 h-1Z M41 23 h1 v1 h-1Z M42.1 23.5 a0.4 0.4 0 1 0 0.8 0 a0.4 0.4 0 1 0 -0.8 0Z M3.1 24.5 a0.4 0.4 0 1 0 0.8 0 a0.4 0.4 0 1 0 -0.8 0Z M4.1 24.5 a0.4 0.4 0 1 0 0.8 0 a0.4 0.4 0 1 0 -0.8 0Z M5 24 h1 v1 h-1Z M9 24 h1 v1 h-1Z M11.1 24.5 a0.4 0.4 0 1 0 0.8 0 a0.4 0.4 0 1 0 -0.8 0Z M12.1 24.5 a0.4 0.4 0 1 0 0.8 0 a0.4 0.4 0 1 0 -0.8 0Z M13.1 24.5 a0.4 0.4 0 1 0 0.8 0 a0.4 0.4 0 1 0 -0.8 0Z M14.1 24.5 a0.4 0.4 0 1 0 0.8 0 a0.4 0.4 0 1 0 -0.8 0Z M17.1 24.5 a0.4 0.4 0 1 0 0.8 0 a0.4 0.4 0 1 0 -0.8 0Z M21 24 h1 v1 h-1Z M25 24 h1 v1 h-1Z M29.1 24.5 a0.4 0.4 0 1 0 0.8 0 a0.4 0.4 0 1 0 -0.8 0Z M30.1 24.5 a0.4 0.4 0 1 0 0.8 0 a0.4 0.4 0 1 0 -0.8 0Z M32.1 24.5 a0.4 0.4 0 1 0 0.8 0 a0.4 0.4 0 1 0 -0.8 0Z M33.1 24.5 a0.4 0.4 0 1 0 0.8 0 a0.4 0.4 0 1 0 -0.8 0Z M34.1 24.5 a0.4 0.4 0 1 0 0.8 0 a0.4 0.4 0 1 0 -0.8 0Z M36.1 24.5 a0.4 0.4 0 1 0 0.8 0 a0.4 0.4 0 1 0 -0.8 0Z M37 24 h1 v1 h-1Z M41 24 h1 v1 h-1Z M43.1 24.5 a0.4 0.4 0 1 0 0.8 0 a0.4 0.4 0 1 0 -0.8 0Z M44.1 24.5 a0.4 0.4 0 1 0 0.8 0 a0.4 0.4 0 1 0 -0.8 0Z M3.1 25.5 a0.4 0.4 0 1 0 0.8 0 a0.4 0.4 0 1 0 -0.8 0Z M4.1 25.5 a0.4 0.4 0 1 0 0.8 0 a0.4 0.4 0 1 0 -0.8 0Z M5 25 h1 v1 h-1Z M6 25 h1 v1 h-1Z M7 25 h1 v1 h-1Z M8 25 h1 v1 h-1Z M9 25 h1 v1 h-1Z M13.1 25.5 a0.4 0.4 0 1 0 0.8 0 a0.4 0.4 0 1 0 -0.8 0Z M18.1 25.5 a0.4 0.4 0 1 0 0.8 0 a0.4 0.4 0 1 0 -0.8 0Z M20.1 25.5 a0.4 0.4 0 1 0 0.8 0 a0.4 0.4 0 1 0 -0.8 0Z M21 25 h1 v1 h-1Z M22 25 h1 v1 h-1Z M23 25 h1 v1 h-1Z M24 25 h1 v1 h-1Z M25 25 h1 v1 h-1Z M26.1 25.5 a0.4 0.4 0 1 0 0.8 0 a0.4 0.4 0 1 0 -0.8 0Z M28.1 25.5 a0.4 0.4 0 1 0 0.8 0 a0.4 0.4 0 1 0 -0.8 0Z M30.1 25.5 a0.4 0.4 0 1 0 0.8 0 a0.4 0.4 0 1 0 -0.8 0Z M31.1 25.5 a0.4 0.4 0 1 0 0.8 0 a0.4 0.4 0 1 0 -0.8 0Z M32.1 25.5 a0.4 0.4 0 1 0 0.8 0 a0.4 0.4 0 1 0 -0.8 0Z M35.1 25.5 a0.4 0.4 0 1 0 0.8 0 a0.4 0.4 0 1 0 -0.8 0Z M37 25 h1 v1 h-1Z M38 25 h1 v1 h-1Z M39 25 h1 v1 h-1Z M40 25 h1 v1 h-1Z M41 25 h1 v1 h-1Z M42.1 25.5 a0.4 0.4 0 1 0 0.8 0 a0.4 0.4 0 1 0 -0.8 0Z M2.1 26.5 a0.4 0.4 0 1 0 0.8 0 a0.4 0.4 0 1 0 -0.8 0Z M5.1 26.5 a0.4 0.4 0 1 0 0.8 0 a0.4 0.4 0 1 0 -0.8 0Z M8.1 26.5 a0.4 0.4 0 1 0 0.8 0 a0.4 0.4 0 1 0 -0.8 0Z M10.1 26.5 a0.4 0.4 0 1 0 0.8 0 a0.4 0.4 0 1 0 -0.8 0Z M12.1 26.5 a0.4 0.4 0 1 0 0.8 0 a0.4 0.4 0 1 0 -0.8 0Z M14.1 26.5 a0.4 0.4 0 1 0 0.8 0 a0.4 0.4 0 1 0 -0.8 0Z M16.1 26.5 a0.4 0.4 0 1 0 0.8 0 a0.4 0.4 0 1 0 -0.8 0Z M19.1 26.5 a0.4 0.4 0 1 0 0.8 0 a0.4 0.4 0 1 0 -0.8 0Z M25.1 26.5 a0.4 0.4 0 1 0 0.8 0 a0.4 0.4 0 1 0 -0.8 0Z M29.1 26.5 a0.4 0.4 0 1 0 0.8 0 a0.4 0.4 0 1 0 -0.8 0Z M30.1 26.5 a0.4 0.4 0 1 0 0.8 0 a0.4 0.4 0 1 0 -0.8 0Z M31.1 26.5 a0.4 0.4 0 1 0 0.8 0 a0.4 0.4 0 1 0 -0.8 0Z M32.1 26.5 a0.4 0.4 0 1 0 0.8 0 a0.4 0.4 0 1 0 -0.8 0Z M36.1 26.5 a0.4 0.4 0 1 0 0.8 0 a0.4 0.4 0 1 0 -0.8 0Z M39.1 26.5 a0.4 0.4 0 1 0 0.8 0 a0.4 0.4 0 1 0 -0.8 0Z M40.1 26.5 a0.4 0.4 0 1 0 0.8 0 a0.4 0.4 0 1 0 -0.8 0Z M43.1 26.5 a0.4 0.4 0 1 0 0.8 0 a0.4 0.4 0 1 0 -0.8 0Z M44.1 26.5 a0.4 0.4 0 1 0 0.8 0 a0.4 0.4 0 1 0 -0.8 0Z M45.1 26.5 a0.4 0.4 0 1 0 0.8 0 a0.4 0.4 0 1 0 -0.8 0Z M4.1 27.5 a0.4 0.4 0 1 0 0.8 0 a0.4 0.4 0 1 0 -0.8 0Z M7.1 27.5 a0.4 0.4 0 1 0 0.8 0 a0.4 0.4 0 1 0 -0.8 0Z M14.1 27.5 a0.4 0.4 0 1 0 0.8 0 a0.4 0.4 0 1 0 -0.8 0Z M15.1 27.5 a0.4 0.4 0 1 0 0.8 0 a0.4 0.4 0 1 0 -0.8 0Z M19.1 27.5 a0.4 0.4 0 1 0 0.8 0 a0.4 0.4 0 1 0 -0.8 0Z M21.1 27.5 a0.4 0.4 0 1 0 0.8 0 a0.4 0.4 0 1 0 -0.8 0Z M22.1 27.5 a0.4 0.4 0 1 0 0.8 0 a0.4 0.4 0 1 0 -0.8 0Z M24.1 27.5 a0.4 0.4 0 1 0 0.8 0 a0.4 0.4 0 1 0 -0.8 0Z M25.1 27.5 a0.4 0.4 0 1 0 0.8 0 a0.4 0.4 0 1 0 -0.8 0Z M34.1 27.5 a0.4 0.4 0 1 0 0.8 0 a0.4 0.4 0 1 0 -0.8 0Z M35.1 27.5 a0.4 0.4 0 1 0 0.8 0 a0.4 0.4 0 1 0 -0.8 0Z M36.1 27.5 a0.4 0.4 0 1 0 0.8 0 a0.4 0.4 0 1 0 -0.8 0Z M38.1 27.5 a0.4 0.4 0 1 0 0.8 0 a0.4 0.4 0 1 0 -0.8 0Z M39.1 27.5 a0.4 0.4 0 1 0 0.8 0 a0.4 0.4 0 1 0 -0.8 0Z M42.1 27.5 a0.4 0.4 0 1 0 0.8 0 a0.4 0.4 0 1 0 -0.8 0Z
M43.1 27.5 a0.4 0.4 0 1 0 0.8 0 a0.4 0.4 0 1 0 -0.8 0Z M44.1 27.5 a0.4 0.4 0 1 0 0.8 0 a0.4 0.4 0 1 0 -0.8 0Z M2.1 28.5 a0.4 0.4 0 1 0 0.8 0 a0.4 0.4 0 1 0 -0.8 0Z M3.1 28.5 a0.4 0.4 0 1 0 0.8 0 a0.4 0.4 0 1 0 -0.8 0Z M6.1 28.5 a0.4 0.4 0 1 0 0.8 0 a0.4 0.4 0 1 0 -0.8 0Z M9.1 28.5 a0.4 0.4 0 1 0 0.8 0 a0.4 0.4 0 1 0 -0.8 0Z M10.1 28.5 a0.4 0.4 0 1 0 0.8 0 a0.4 0.4 0 1 0 -0.8 0Z M11.1 28.5 a0.4 0.4 0 1 0 0.8 0 a0.4 0.4 0 1 0 -0.8 0Z M12.1 28.5 a0.4 0.4 0 1 0 0.8 0 a0.4 0.4 0 1 0 -0.8 0Z M15.1 28.5 a0.4 0.4 0 1 0 0.8 0 a0.4 0.4 0 1 0 -0.8 0Z M16.1 28.5 a0.4 0.4 0 1 0 0.8 0 a0.4 0.4 0 1 0 -0.8 0Z M18.1 28.5 a0.4 0.4 0 1 0 0.8 0 a0.4 0.4 0 1 0 -0.8 0Z M19.1 28.5 a0.4 0.4 0 1 0 0.8 0 a0.4 0.4 0 1 0 -0.8 0Z M25.1 28.5 a0.4 0.4 0 1 0 0.8 0 a0.4 0.4 0 1 0 -0.8 0Z M28.1 28.5 a0.4 0.4 0 1 0 0.8 0 a0.4 0.4 0 1 0 -0.8 0Z M30.1 28.5 a0.4 0.4 0 1 0 0.8 0 a0.4 0.4 0 1 0 -0.8 0Z M32.1 28.5 a0.4 0.4 0 1 0 0.8 0 a0.4 0.4 0 1 0 -0.8 0Z M34.1 28.5 a0.4 0.4 0 1 0 0.8 0 a0.4 0.4 0 1 0 -0.8 0Z M36.1 28.5 a0.4 0.4 0 1 0 0.8 0 a0.4 0.4 0 1 0 -0.8 0Z M40.1 28.5 a0.4 0.4 0 1 0 0.8 0 a0.4 0.4 0 1 0 -0.8 0Z M43.1 28.5 a0.4 0.4 0 1 0 0.8 0 a0.4 0.4 0 1 0 -0.8 0Z M1.1 29.5 a0.4 0.4 0 1 0 0.8 0 a0.4 0.4 0 1 0 -0.8 0Z M4.1 29.5 a0.4 0.4 0 1 0 0.8 0 a0.4 0.4 0 1 0 -0.8 0Z M6.1 29.5 a0.4 0.4 0 1 0 0.8 0 a0.4 0.4 0 1 0 -0.8 0Z M7.1 29.5 a0.4 0.4 0 1 0 0.8 0 a0.4 0.4 0 1 0 -0.8 0Z M9.1 29.5 a0.4 0.4 0 1 0 0.8 0 a0.4 0.4 0 1 0 -0.8 0Z M11.1 29.5 a0.4 0.4 0 1 0 0.8 0 a0.4 0.4 0 1 0 -0.8 0Z M13.1 29.5 a0.4 0.4 0 1 0 0.8 0 a0.4 0.4 0 1 0 -0.8 0Z M14.1 29.5 a0.4 0.4 0 1 0 0.8 0 a0.4 0.4 0 1 0 -0.8 0Z M15.1 29.5 a0.4 0.4 0 1 0 0.8 0 a0.4 0.4 0 1 0 -0.8 0Z M19.1 29.5 a0.4 0.4 0 1 0 0.8 0 a0.4 0.4 0 1 0 -0.8 0Z M22.1 29.5 a0.4 0.4 0 1 0 0.8 0 a0.4 0.4 0 1 0 -0.8 0Z M24.1 29.5 a0.4 0.4 0 1 0 0.8 0 a0.4 0.4 0 1 0 -0.8 0Z M25.1 29.5 a0.4 0.4 0 1 0 0.8 0 a0.4 0.4 0 1 0 -0.8 0Z M26.1 29.5 a0.4 0.4 0 1 0 0.8 0 a0.4 0.4 0 1 0 -0.8 0Z M29.1 29.5 a0.4 0.4 0 1 0 0.8 0 a0.4 0.4 0 1 0 -0.8 0Z M37.1 29.5 a0.4 0.4 0 1 0 0.8 0 a0.4 0.4 0 1 0 -0.8 0Z M39.1 29.5 a0.4 0.4 0 1 0 0.8 0 a0.4 0.4 0 1 0 -0.8 0Z M41.1 29.5 a0.4 0.4 0 1 0 0.8 0 a0.4 0.4 0 1 0 -0.8 0Z M42.1 29.5 a0.4 0.4 0 1 0 0.8 0 a0.4 0.4 0 1 0 -0.8 0Z M43.1 29.5 a0.4 0.4 0 1 0 0.8 0 a0.4 0.4 0 1 0 -0.8 0Z M45.1 29.5 a0.4 0.4 0 1 0 0.8 0 a0.4 0.4 0 1 0 -0.8 0Z M1.1 30.5 a0.4 0.4 0 1 0 0.8 0 a0.4 0.4 0 1 0 -0.8 0Z M2.1 30.5 a0.4 0.4 0 1 0 0.8 0 a0.4 0.4 0 1 0 -0.8 0Z M3.1 30.5 a0.4 0.4 0 1 0 0.8 0 a0.4 0.4 0 1 0 -0.8 0Z M5.1 30.5 a0.4 0.4 0 1 0 0.8 0 a0.4 0.4 0 1 0 -0.8 0Z M6.1 30.5 a0.4 0.4 0 1 0 0.8 0 a0.4 0.4 0 1 0 -0.8 0Z M8.1 30.5 a0.4 0.4 0 1 0 0.8 0 a0.4 0.4 0 1 0 -0.8 0Z M11.1 30.5 a0.4 0.4 0 1 0 0.8 0 a0.4 0.4 0 1 0 -0.8 0Z M12.1 30.5 a0.4 0.4 0 1 0 0.8 0 a0.4 0.4 0 1 0 -0.8 0Z M16.1 30.5 a0.4 0.4 0 1 0 0.8 0 a0.4 0.4 0 1 0 -0.8 0Z M18.1 30.5 a0.4 0.4 0 1 0 0.8 0 a0.4 0.4 0 1 0 -0.8 0Z M19.1 30.5 a0.4 0.4 0 1 0 0.8 0 a0.4 0.4 0 1 0 -0.8 0Z M21.1 30.5 a0.4 0.4 0 1 0 0.8 0 a0.4 0.4 0 1 0 -0.8 0Z M25.1 30.5 a0.4 0.4 0 1 0 0.8 0 a0.4 0.4 0 1 0 -0.8 0Z M28.1 30.5 a0.4 0.4 0 1 0 0.8 0 a0.4 0.4 0 1 0 -0.8 0Z M29.1 30.5 a0.4 0.4 0 1 0 0.8 0 a0.4 0.4 0 1 0 -0.8 0Z M30.1 30.5 a0.4 0.4 0 1 0 0.8 0 a0.4 0.4 0 1 0 -0.8 0Z M32.1 30.5 a0.4 0.4 0 1 0 0.8 0 a0.4 0.4 0 1 0 -0.8 0Z M34.1 30.5 a0.4 0.4 0 1 0 0.8 0 a0.4 0.4 0 1 0 -0.8 0Z M38.1 30.5 a0.4 0.4 0 1 0 0.8 0 a0.4 0.4 0 1 0 -0.8 0Z M1.1 31.5 a0.4 0.4 0 1 0 0.8 0 a0.4 0.4 0 1 0 -0.8 0Z M2.1 31.5 a0.4 0.4 0 1 0 0.8 0 a0.4 0.4 0 1 0 -0.8 0Z M3.1 31.5 a0.4 0.4 0 1 0 0.8 0 a0.4 0.4 0 1 0 -0.8 0Z M6.1 31.5 a0.4 0.4 0 1 0 0.8 0 a0.4 0.4 0 1 0 -0.8 0Z M7.1 31.5 a0.4 0.4 0 1 0 0.8 0 a0.4 0.4 0 1 0 -0.8 0Z M8.1 31.5 a0.4 0.4 0 1 0 0.8 0 a0.4 0.4 0 1 0 -0.8 0Z M9.1 31.5 a0.4 0.4 0 1 0 0.8 0 a0.4 0.4 0 1 0 -0.8 0Z M10.1 31.5 a0.4 0.4 0 1 0 0.8 0 a0.4 0.4 0 1 0 -0.8 0Z M14.1 31.5 a0.4 0.4 0 1 0 0.8 0 a0.4 0.4 0 1 0 -0.8 0Z M15.1 31.5 a0.4 0.4 0 1 0 0.8 0 a0.4 0.4 0 1 0 -0.8 0Z M19.1 31.5 a0.4 0.4 0 1 0 0.8 0 a0.4 0.4 0 1 0 -0.8 0Z M20.1 31.5 a0.4 0.4 0 1 0 0.8 0 a0.4 0.4 0 1 0 -0.8 0Z M23.1 31.5 a0.4 0.4 0 1 0 0.8 0 a0.4 0.4 0 1 0 -0.8 0Z M25.1 31.5 a0.4 0.4 0 1 0 0.8 0 a0.4 0.4 0 1 0 -0.8 0Z M26.1 31.5 a0.4 0.4 0 1 0 0.8 0 a0.4 0.4 0 1 0 -0.8 0Z M29.1 31.5 a0.4 0.4 0 1 0 0.8 0 a0.4 0.4 0 1 0 -0.8 0Z M31.1 31.5 a0.4 0.4 0 1 0 0.8 0 a0.4 0.4 0 1 0 -0.8 0Z M38.1 31.5 a0.4 0.4 0 1 0 0.8 0 a0.4 0.4 0 1 0 -0.8 0Z M41.1 31.5 a0.4 0.4 0 1 0 0.8 0 a0.4 0.4 0 1 0 -0.8 0Z M44.1 31.5 a0.4 0.4 0 1 0 0.8 0 a0.4 0.4 0 1 0 -0.8 0Z M45.1 31.5 a0.4 0.4 0 1 0 0.8 0 a0.4 0.4 0 1 0 -0.8 0Z M2.1 32.5 a0.4 0.4 0 1 0 0.8 0 a0.4 0.4 0 1 0 -0.8 0Z M4.1 32.5 a0.4 0.4 0 1 0 0.8 0 a0.4 0.4 0 1 0 -0.8 0Z M5.1 32.5 a0.4 0.4 0 1 0 0.8 0 a0.4 0.4 0 1 0 -0.8 0Z M8.1 32.5 a0.4 0.4 0 1 0 0.8 0 a0.4 0.4 0 1 0 -0.8 0Z M9.1 32.5 a0.4 0.4 0 1 0 0.8 0 a0.4 0.4 0 1 0 -0.8 0Z M10.1 32.5 a0.4 0.4 0 1 0 0.8 0 a0.4 0.4 0 1 0 -0.8 0Z M11.1 32.5 a0.4 0.4 0 1 0 0.8 0 a0.4 0.4 0 1 0 -0.8 0Z M12.1 32.5 a0.4 0.4 0 1 0 0.8 0 a0.4 0.4 0 1 0 -0.8 0Z M15.1 32.5 a0.4 0.4 0 1 0 0.8 0 a0.4 0.4 0 1 0 -0.8 0Z M16.1 32.5 a0.4 0.4 0 1 0 0.8 0 a0.4 0.4 0 1 0 -0.8 0Z M18.1 32.5 a0.4 0.4 0 1 0 0.8 0 a0.4 0.4 0 1 0 -0.8 0Z M19.1 32.5 a0.4 0.4 0 1 0 0.8 0 a0.4 0.4 0 1 0 -0.8 0Z M20.1 32.5 a0.4 0.4 0 1 0 0.8 0 a0.4 0.4 0 1 0 -0.8 0Z M21.1 32.5 a0.4 0.4 0 1 0 0.8 0 a0.4 0.4 0 1 0 -0.8 0Z M22.1 32.5 a0.4 0.4 0 1 0 0.8 0 a0.4 0.4 0 1 0 -0.8 0Z M23.1 32.5 a0.4 0.4 0 1 0 0.8 0 a0.4 0.4 0 1 0 -0.8 0Z M24.1 32.5 a0.4 0.4 0 1 0 0.8 0 a0.4 0.4 0 1 0 -0.8 0Z M26.1 32.5 a0.4 0.4 0 1 0 0.8 0 a0.4 0.4 0 1 0 -0.8 0Z
M27.1 32.5 a0.4 0.4 0 1 0 0.8 0 a0.4 0.4 0 1 0 -0.8 0Z M29.1 32.5 a0.4 0.4 0 1 0 0.8 0 a0.4 0.4 0 1 0 -0.8 0Z M30.1 32.5 a0.4 0.4 0 1 0 0.8 0 a0.4 0.4 0 1 0 -0.8 0Z M31.1 32.5 a0.4 0.4 0 1 0 0.8 0 a0.4 0.4 0 1 0 -0.8 0Z M33.1 32.5 a0.4 0.4 0 1 0 0.8 0 a0.4 0.4 0 1 0 -0.8 0Z M35.1 32.5 a0.4 0.4 0 1 0 0.8 0 a0.4 0.4 0 1 0 -0.8 0Z M37.1 32.5 a0.4 0.4 0 1 0 0.8 0 a0.4 0.4 0 1 0 -0.8 0Z M39.1 32.5 a0.4 0.4 0 1 0 0.8 0 a0.4 0.4 0 1 0 -0.8 0Z M43.1 32.5 a0.4 0.4 0 1 0 0.8 0 a0.4 0.4 0 1 0 -0.8 0Z M45.1 32.5 a0.4 0.4 0 1 0 0.8 0 a0.4 0.4 0 1 0 -0.8 0Z M1.1 33.5 a0.4 0.4 0 1 0 0.8 0 a0.4 0.4 0 1 0 -0.8 0Z M4.1 33.5 a0.4 0.4 0 1 0 0.8 0 a0.4 0.4 0 1 0 -0.8 0Z M5.1 33.5 a0.4 0.4 0 1 0 0.8 0 a0.4 0.4 0 1 0 -0.8 0Z M6.1 33.5 a0.4 0.4 0 1 0 0.8 0 a0.4 0.4 0 1 0 -0.8 0Z M7.1 33.5 a0.4 0.4 0 1 0 0.8 0 a0.4 0.4 0 1 0 -0.8 0Z M8.1 33.5 a0.4 0.4 0 1 0 0.8 0 a0.4 0.4 0 1 0 -0.8 0Z M10.1 33.5 a0.4 0.4 0 1 0 0.8 0 a0.4 0.4 0 1 0 -0.8 0Z M12.1 33.5 a0.4 0.4 0 1 0 0.8 0 a0.4 0.4 0 1 0 -0.8 0Z M13.1 33.5 a0.4 0.4 0 1 0 0.8 0 a0.4 0.4 0 1 0 -0.8 0Z M14.1 33.5 a0.4 0.4 0 1 0 0.8 0 a0.4 0.4 0 1 0 -0.8 0Z M15.1 33.5 a0.4 0.4 0 1 0 0.8 0 a0.4 0.4 0 1 0 -0.8 0Z M16.1 33.5 a0.4 0.4 0 1 0 0.8 0 a0.4 0.4 0 1 0 -0.8 0Z M19.1 33.5 a0.4 0.4 0 1 0 0.8 0 a0.4 0.4 0 1 0 -0.8 0Z M20.1 33.5 a0.4 0.4 0 1 0 0.8 0 a0.4 0.4 0 1 0 -0.8 0Z M23.1 33.5 a0.4 0.4 0 1 0 0.8 0 a0.4 0.4 0 1 0 -0.8 0Z M27.1 33.5 a0.4 0.4 0 1 0 0.8 0 a0.4 0.4 0 1 0 -0.8 0Z M31.1 33.5 a0.4 0.4 0 1 0 0.8 0 a0.4 0.4 0 1 0 -0.8 0Z M32.1 33.5 a0.4 0.4 0 1 0 0.8 0 a0.4 0.4 0 1 0 -0.8 0Z M35.1 33.5 a0.4 0.4 0 1 0 0.8 0 a0.4 0.4 0 1 0 -0.8 0Z M40.1 33.5 a0.4 0.4 0 1 0 0.8 0 a0.4 0.4 0 1 0 -0.8 0Z M44.1 33.5 a0.4 0.4 0 1 0 0.8 0 a0.4 0.4 0 1 0 -0.8 0Z M45.1 33.5 a0.4 0.4 0 1 0 0.8 0 a0.4 0.4 0 1 0 -0.8 0Z M1.1 34.5 a0.4 0.4 0 1 0 0.8 0 a0.4 0.4 0 1 0 -0.8 0Z M3.1 34.5 a0.4 0.4 0 1 0 0.8 0 a0.4 0.4 0 1 0 -0.8 0Z M6.1 34.5 a0.4 0.4 0 1 0 0.8 0 a0.4 0.4 0 1 0 -0.8 0Z M8.1 34.5 a0.4 0.4 0 1 0 0.8 0 a0.4 0.4 0 1 0 -0.8 0Z M13.1 34.5 a0.4 0.4 0 1 0 0.8 0 a0.4 0.4 0 1 0 -0.8 0Z M17.1 34.5 a0.4 0.4 0 1 0 0.8 0 a0.4 0.4 0 1 0 -0.8 0Z M18.1 34.5 a0.4 0.4 0 1 0 0.8 0 a0.4 0.4 0 1 0 -0.8 0Z M19.1 34.5 a0.4 0.4 0 1 0 0.8 0 a0.4 0.4 0 1 0 -0.8 0Z M21.1 34.5 a0.4 0.4 0 1 0 0.8 0 a0.4 0.4 0 1 0 -0.8 0Z M22.1 34.5 a0.4 0.4 0 1 0 0.8 0 a0.4 0.4 0 1 0 -0.8 0Z M24.1 34.5 a0.4 0.4 0 1 0 0.8 0 a0.4 0.4 0 1 0 -0.8 0Z M26.1 34.5 a0.4 0.4 0 1 0 0.8 0 a0.4 0.4 0 1 0 -0.8 0Z M27.1 34.5 a0.4 0.4 0 1 0 0.8 0 a0.4 0.4 0 1 0 -0.8 0Z M28.1 34.5 a0.4 0.4 0 1 0 0.8 0 a0.4 0.4 0 1 0 -0.8 0Z M30.1 34.5 a0.4 0.4 0 1 0 0.8 0 a0.4 0.4 0 1 0 -0.8 0Z M31.1 34.5 a0.4 0.4 0 1 0 0.8 0 a0.4 0.4 0 1 0 -0.8 0Z M32.1 34.5 a0.4 0.4 0 1 0 0.8 0 a0.4 0.4 0 1 0 -0.8 0Z M33.1 34.5 a0.4 0.4 0 1 0 0.8 0 a0.4 0.4 0 1 0 -0.8 0Z M37.1 34.5 a0.4 0.4 0 1 0 0.8 0 a0.4 0.4 0 1 0 -0.8 0Z M38.1 34.5 a0.4 0.4 0 1 0 0.8 0 a0.4 0.4 0 1 0 -0.8 0Z M41.1 34.5 a0.4 0.4 0 1 0 0.8 0 a0.4 0.4 0 1 0 -0.8 0Z M42.1 34.5 a0.4 0.4 0 1 0 0.8 0 a0.4 0.4 0 1 0 -0.8 0Z M45.1 34.5 a0.4 0.4 0 1 0 0.8 0 a0.4 0.4 0 1 0 -0.8 0Z M5.1 35.5 a0.4 0.4 0 1 0 0.8 0 a0.4 0.4 0 1 0 -0.8 0Z M7.1 35.5 a0.4 0.4 0 1 0 0.8 0 a0.4 0.4 0 1 0 -0.8 0Z M8.1 35.5 a0.4 0.4 0 1 0 0.8 0 a0.4 0.4 0 1 0 -0.8 0Z M9.1 35.5 a0.4 0.4 0 1 0 0.8 0 a0.4 0.4 0 1 0 -0.8 0Z M10.1 35.5 a0.4 0.4 0 1 0 0.8 0 a0.4 0.4 0 1 0 -0.8 0Z M12.1 35.5 a0.4 0.4 0 1 0 0.8 0 a0.4 0.4 0 1 0 -0.8 0Z M13.1 35.5 a0.4 0.4 0 1 0 0.8 0 a0.4 0.4 0 1 0 -0.8 0Z M16.1 35.5 a0.4 0.4 0 1 0 0.8 0 a0.4 0.4 0 1 0 -0.8 0Z M17.1 35.5 a0.4 0.4 0 1 0 0.8 0 a0.4 0.4 0 1 0 -0.8 0Z M18.1 35.5 a0.4 0.4 0 1 0 0.8 0 a0.4 0.4 0 1 0 -0.8 0Z M20.1 35.5 a0.4 0.4 0 1 0 0.8 0 a0.4 0.4 0 1 0 -0.8 0Z M23.1 35.5 a0.4 0.4 0 1 0 0.8 0 a0.4 0.4 0 1 0 -0.8 0Z M25.1 35.5 a0.4 0.4 0 1 0 0.8 0 a0.4 0.4 0 1 0 -0.8 0Z M30.1 35.5 a0.4 0.4 0 1 0 0.8 0 a0.4 0.4 0 1 0 -0.8 0Z M31.1 35.5 a0.4 0.4 0 1 0 0.8 0 a0.4 0.4 0 1 0 -0.8 0Z M32.1 35.5 a0.4 0.4 0 1 0 0.8 0 a0.4 0.4 0 1 0 -0.8 0Z M34.1 35.5 a0.4 0.4 0 1 0 0.8 0 a0.4 0.4 0 1 0 -0.8 0Z M35.1 35.5 a0.4 0.4 0 1 0 0.8 0 a0.4 0.4 0 1 0 -0.8 0Z M40.1 35.5 a0.4 0.4 0 1 0 0.8 0 a0.4 0.4 0 1 0 -0.8 0Z M41.1 35.5 a0.4 0.4 0 1 0 0.8 0 a0.4 0.4 0 1 0 -0.8 0Z M44.1 35.5 a0.4 0.4 0 1 0 0.8 0 a0.4 0.4 0 1 0 -0.8 0Z M2.1 36.5 a0.4 0.4 0 1 0 0.8 0 a0.4 0.4 0 1 0 -0.8 0Z M3.1 36.5 a0.4 0.4 0 1 0 0.8 0 a0.4 0.4 0 1 0 -0.8 0Z M4.1 36.5 a0.4 0.4 0 1 0 0.8 0 a0.4 0.4 0 1 0 -0.8 0Z M5.1 36.5 a0.4 0.4 0 1 0 0.8 0 a0.4 0.4 0 1 0 -0.8 0Z M11.1 36.5 a0.4 0.4 0 1 0 0.8 0 a0.4 0.4 0 1 0 -0.8 0Z M13.1 36.5 a0.4 0.4 0 1 0 0.8 0 a0.4 0.4 0 1 0 -0.8 0Z M14.1 36.5 a0.4 0.4 0 1 0 0.8 0 a0.4 0.4 0 1 0 -0.8 0Z M17.1 36.5 a0.4 0.4 0 1 0 0.8 0 a0.4 0.4 0 1 0 -0.8 0Z M20.1 36.5 a0.4 0.4 0 1 0 0.8 0 a0.4 0.4 0 1 0 -0.8 0Z M21.1 36.5 a0.4 0.4 0 1 0 0.8 0 a0.4 0.4 0 1 0 -0.8 0Z M22.1 36.5 a0.4 0.4 0 1 0 0.8 0 a0.4 0.4 0 1 0 -0.8 0Z M23.1 36.5 a0.4 0.4 0 1 0 0.8 0 a0.4 0.4 0 1 0 -0.8 0Z M24.1 36.5 a0.4 0.4 0 1 0 0.8 0 a0.4 0.4 0 1 0 -0.8 0Z M26.1 36.5 a0.4 0.4 0 1 0 0.8 0 a0.4 0.4 0 1 0 -0.8 0Z M27.1 36.5 a0.4 0.4 0 1 0 0.8 0 a0.4 0.4 0 1 0 -0.8 0Z M31.1 36.5 a0.4 0.4 0 1 0 0.8 0 a0.4 0.4 0 1 0 -0.8 0Z M35.1 36.5 a0.4 0.4 0 1 0 0.8 0 a0.4 0.4 0 1 0 -0.8 0Z M36.1 36.5 a0.4 0.4 0 1 0 0.8 0 a0.4 0.4 0 1 0 -0.8 0Z M38.1 36.5 a0.4 0.4 0 1 0 0.8 0 a0.4 0.4 0 1 0 -0.8 0Z M41.1 36.5 a0.4 0.4 0 1 0 0.8 0 a0.4 0.4 0 1 0 -0.8 0Z M42.1 36.5 a0.4 0.4 0 1 0 0.8 0 a0.4 0.4 0 1 0 -0.8 0Z M44.1 36.5 a0.4 0.4 0 1 0 0.8 0 a0.4 0.4 0 1 0 -0.8 0Z M45.1 36.5 a0.4 0.4 0 1 0 0.8 0 a0.4 0.4 0 1 0 -0.8 0Z M1.1 37.5 a0.4 0.4 0 1 0 0.8 0 a0.4 0.4 0 1 0 -0.8 0Z
M4.1 37.5 a0.4 0.4 0 1 0 0.8 0 a0.4 0.4 0 1 0 -0.8 0Z M5.1 37.5 a0.4 0.4 0 1 0 0.8 0 a0.4 0.4 0 1 0 -0.8 0Z M7.1 37.5 a0.4 0.4 0 1 0 0.8 0 a0.4 0.4 0 1 0 -0.8 0Z M11.1 37.5 a0.4 0.4 0 1 0 0.8 0 a0.4 0.4 0 1 0 -0.8 0Z M12.1 37.5 a0.4 0.4 0 1 0 0.8 0 a0.4 0.4 0 1 0 -0.8 0Z M13.1 37.5 a0.4 0.4 0 1 0 0.8 0 a0.4 0.4 0 1 0 -0.8 0Z M16.1 37.5 a0.4 0.4 0 1 0 0.8 0 a0.4 0.4 0 1 0 -0.8 0Z M18.1 37.5 a0.4 0.4 0 1 0 0.8 0 a0.4 0.4 0 1 0 -0.8 0Z M20.1 37.5 a0.4 0.4 0 1 0 0.8 0 a0.4 0.4 0 1 0 -0.8 0Z M21 37 h1 v1 h-1Z M22 37 h1 v1 h-1Z M23 37 h1 v1 h-1Z M24 37 h1 v1 h-1Z M25 37 h1 v1 h-1Z M27.1 37.5 a0.4 0.4 0 1 0 0.8 0 a0.4 0.4 0 1 0 -0.8 0Z M28.1 37.5 a0.4 0.4 0 1 0 0.8 0 a0.4 0.4 0 1 0 -0.8 0Z M30.1 37.5 a0.4 0.4 0 1 0 0.8 0 a0.4 0.4 0 1 0 -0.8 0Z M31.1 37.5 a0.4 0.4 0 1 0 0.8 0 a0.4 0.4 0 1 0 -0.8 0Z M32.1 37.5 a0.4 0.4 0 1 0 0.8 0 a0.4 0.4 0 1 0 -0.8 0Z M33.1 37.5 a0.4 0.4 0 1 0 0.8 0 a0.4 0.4 0 1 0 -0.8 0Z M34.1 37.5 a0.4 0.4 0 1 0 0.8 0 a0.4 0.4 0 1 0 -0.8 0Z M35.1 37.5 a0.4 0.4 0 1 0 0.8 0 a0.4 0.4 0 1 0 -0.8 0Z M37 37 h1 v1 h-1Z M38 37 h1 v1 h-1Z M39 37 h1 v1 h-1Z M40 37 h1 v1 h-1Z M41 37 h1 v1 h-1Z M43.1 37.5 a0.4 0.4 0 1 0 0.8 0 a0.4 0.4 0 1 0 -0.8 0Z M45.1 37.5 a0.4 0.4 0 1 0 0.8 0 a0.4 0.4 0 1 0 -0.8 0Z M9.1 38.5 a0.4 0.4 0 1 0 0.8 0 a0.4 0.4 0 1 0 -0.8 0Z M10.1 38.5 a0.4 0.4 0 1 0 0.8 0 a0.4 0.4 0 1 0 -0.8 0Z M13.1 38.5 a0.4 0.4 0 1 0 0.8 0 a0.4 0.4 0 1 0 -0.8 0Z M14.1 38.5 a0.4 0.4 0 1 0 0.8 0 a0.4 0.4 0 1 0 -0.8 0Z M17.1 38.5 a0.4 0.4 0 1 0 0.8 0 a0.4 0.4 0 1 0 -0.8 0Z M19.1 38.5 a0.4 0.4 0 1 0 0.8 0 a0.4 0.4 0 1 0 -0.8 0Z M20.1 38.5 a0.4 0.4 0 1 0 0.8 0 a0.4 0.4 0 1 0 -0.8 0Z M21 38 h1 v1 h-1Z M25 38 h1 v1 h-1Z M26.1 38.5 a0.4 0.4 0 1 0 0.8 0 a0.4 0.4 0 1 0 -0.8 0Z M27.1 38.5 a0.4 0.4 0 1 0 0.8 0 a0.4 0.4 0 1 0 -0.8 0Z M31.1 38.5 a0.4 0.4 0 1 0 0.8 0 a0.4 0.4 0 1 0 -0.8 0Z M33.1 38.5 a0.4 0.4 0 1 0 0.8 0 a0.4 0.4 0 1 0 -0.8 0Z M35.1 38.5 a0.4 0.4 0 1 0 0.8 0 a0.4 0.4 0 1 0 -0.8 0Z M36.1 38.5 a0.4 0.4 0 1 0 0.8 0 a0.4 0.4 0 1 0 -0.8 0Z M37 38 h1 v1 h-1Z M41 38 h1 v1 h-1Z M42.1 38.5 a0.4 0.4 0 1 0 0.8 0 a0.4 0.4 0 1 0 -0.8 0Z M44.1 38.5 a0.4 0.4 0 1 0 0.8 0 a0.4 0.4 0 1 0 -0.8 0Z M1 39 h1 v1 h-1Z M2 39 h1 v1 h-1Z M3 39 h1 v1 h-1Z M4 39 h1 v1 h-1Z M5 39 h1 v1 h-1Z M6 39 h1 v1 h-1Z M7 39 h1 v1 h-1Z M9.1 39.5 a0.4 0.4 0 1 0 0.8 0 a0.4 0.4 0 1 0 -0.8 0Z M12.1 39.5 a0.4 0.4 0 1 0 0.8 0 a0.4 0.4 0 1 0 -0.8 0Z M13.1 39.5 a0.4 0.4 0 1 0 0.8 0 a0.4 0.4 0 1 0 -0.8 0Z M16.1 39.5 a0.4 0.4 0 1 0 0.8 0 a0.4 0.4 0 1 0 -0.8 0Z M17.1 39.5 a0.4 0.4 0 1 0 0.8 0 a0.4 0.4 0 1 0 -0.8 0Z M18.1 39.5 a0.4 0.4 0 1 0 0.8 0 a0.4 0.4 0 1 0 -0.8 0Z M21 39 h1 v1 h-1Z M23 39 h1 v1 h-1Z M25 39 h1 v1 h-1Z M28.1 39.5 a0.4 0.4 0 1 0 0.8 0 a0.4 0.4 0 1 0 -0.8 0Z M30.1 39.5 a0.4 0.4 0 1 0 0.8 0 a0.4 0.4 0 1 0 -0.8 0Z M31.1 39.5 a0.4 0.4 0 1 0 0.8 0 a0.4 0.4 0 1 0 -0.8 0Z M32.1 39.5 a0.4 0.4 0 1 0 0.8 0 a0.4 0.4 0 1 0 -0.8 0Z M33.1 39.5 a0.4 0.4 0 1 0 0.8 0 a0.4 0.4 0 1 0 -0.8 0Z M34.1 39.5 a0.4 0.4 0 1 0 0.8 0 a0.4 0.4 0 1 0 -0.8 0Z M37 39 h1 v1 h-1Z M39 39 h1 v1 h-1Z M41 39 h1 v1 h-1Z M42.1 39.5 a0.4 0.4 0 1 0 0.8 0 a0.4 0.4 0 1 0 -0.8 0Z M1 40 h1 v1 h-1Z M7 40 h1 v1 h-1Z M13.1 40.5 a0.4 0.4 0 1 0 0.8 0 a0.4 0.4 0 1 0 -0.8 0Z M14.1 40.5 a0.4 0.4 0 1 0 0.8 0 a0.4 0.4 0 1 0 -0.8 0Z M17.1 40.5 a0.4 0.4 0 1 0 0.8 0 a0.4 0.4 0 1 0 -0.8 0Z M21 40 h1 v1 h-1Z M25 40 h1 v1 h-1Z M29.1 40.5 a0.4 0.4 0 1 0 0.8 0 a0.4 0.4 0 1 0 -0.8 0Z M31.1 40.5 a0.4 0.4 0 1 0 0.8 0 a0.4 0.4 0 1 0 -0.8 0Z M32.1 40.5 a0.4 0.4 0 1 0 0.8 0 a0.4 0.4 0 1 0 -0.8 0Z M33.1 40.5 a0.4 0.4 0 1 0 0.8 0 a0.4 0.4 0 1 0 -0.8 0Z M35.1 40.5 a0.4 0.4 0 1 0 0.8 0 a0.4 0.4 0 1 0 -0.8 0Z M36.1 40.5 a0.4 0.4 0 1 0 0.8 0 a0.4 0.4 0 1 0 -0.8 0Z M37 40 h1 v1 h-1Z M41 40 h1 v1 h-1Z M43.1 40.5 a0.4 0.4 0 1 0 0.8 0 a0.4 0.4 0 1 0 -0.8 0Z M44.1 40.5 a0.4 0.4 0 1 0 0.8 0 a0.4 0.4 0 1 0 -0.8 0Z M1 41 h1 v1 h-1Z M3 41 h1 v1 h-1Z M4 41 h1 v1 h-1Z M5 41 h1 v1 h-1Z M7 41 h1 v1 h-1Z M9.1 41.5 a0.4 0.4 0 1 0 0.8 0 a0.4 0.4 0 1 0 -0.8 0Z M11.1 41.5 a0.4 0.4 0 1 0 0.8 0 a0.4 0.4 0 1 0 -0.8 0Z M13.1 41.5 a0.4 0.4 0 1 0 0.8 0 a0.4 0.4 0 1 0 -0.8 0Z M18.1 41.5 a0.4 0.4 0 1 0 0.8 0 a0.4 0.4 0 1 0 -0.8 0Z
M21 41 h1 v1 h-1Z M22 41 h1 v1 h-1Z M23 41 h1 v1 h-1Z M24 41 h1 v1 h-1Z M25 41 h1 v1 h-1Z M26.1 41.5 a0.4 0.4 0 1 0 0.8 0 a0.4 0.4 0 1 0 -0.8 0Z M28.1 41.5 a0.4 0.4 0 1 0 0.8 0 a0.4 0.4 0 1 0 -0.8 0Z M30.1 41.5 a0.4 0.4 0 1 0 0.8 0 a0.4 0.4 0 1 0 -0.8 0Z M31.1 41.5 a0.4 0.4 0 1 0 0.8 0 a0.4 0.4 0 1 0 -0.8 0Z M32.1 41.5 a0.4 0.4 0 1 0 0.8 0 a0.4 0.4 0 1 0 -0.8 0Z M37 41 h1 v1 h-1Z M38 41 h1 v1 h-1Z M39 41 h1 v1 h-1Z M40 41 h1 v1 h-1Z M41 41 h1 v1 h-1Z M1 42 h1 v1 h-1Z M3 42 h1 v1 h-1Z M4 42 h1 v1 h-1Z M5 42 h1 v1 h-1Z M7 42 h1 v1 h-1Z M9.1 42.5 a0.4 0.4 0 1 0 0.8 0 a0.4 0.4 0 1 0 -0.8 0Z M12.1 42.5 a0.4 0.4 0 1 0 0.8 0 a0.4 0.4 0 1 0 -0.8 0Z M14.1 42.5 a0.4 0.4 0 1 0 0.8 0 a0.4 0.4 0 1 0 -0.8 0Z M16.1 42.5 a0.4 0.4 0 1 0 0.8 0 a0.4 0.4 0 1 0 -0.8 0Z M19.1 42.5 a0.4 0.4 0 1 0 0.8 0 a0.4 0.4 0 1 0 -0.8 0Z M20.1 42.5 a0.4 0.4 0 1 0 0.8 0 a0.4 0.4 0 1 0 -0.8 0Z M23.1 42.5 a0.4 0.4 0 1 0 0.8 0 a0.4 0.4 0 1 0 -0.8 0Z M29.1 42.5 a0.4 0.4 0 1 0 0.8 0 a0.4 0.4 0 1 0 -0.8 0Z M30.1 42.5 a0.4 0.4 0 1 0 0.8 0 a0.4 0.4 0 1 0 -0.8 0Z M31.1 42.5 a0.4 0.4 0 1 0 0.8 0 a0.4 0.4 0 1 0 -0.8 0Z M32.1 42.5 a0.4 0.4 0 1 0 0.8 0 a0.4 0.4 0 1 0 -0.8 0Z M33.1 42.5 a0.4 0.4 0 1 0 0.8 0 a0.4 0.4 0 1 0 -0.8 0Z M34.1 42.5 a0.4 0.4 0 1 0 0.8 0 a0.4 0.4 0 1 0 -0.8 0Z M37.1 42.5 a0.4 0.4 0 1 0 0.8 0 a0.4 0.4 0 1 0 -0.8 0Z M38.1 42.5 a0.4 0.4 0 1 0 0.8 0 a0.4 0.4 0 1 0 -0.8 0Z M39.1 42.5 a0.4 0.4 0 1 0 0.8 0 a0.4 0.4 0 1 0 -0.8 0Z M41.1 42.5 a0.4 0.4 0 1 0 0.8 0 a0.4 0.4 0 1 0 -0.8 0Z M43.1 42.5 a0.4 0.4 0 1 0 0.8 0 a0.4 0.4 0 1 0 -0.8 0Z M45.1 42.5 a0.4 0.4 0 1 0 0.8 0 a0.4 0.4 0 1 0 -0.8 0Z M1 43 h1 v1 h-1Z M3 43 h1 v1 h-1Z M4 43 h1 v1 h-1Z M5 43 h1 v1 h-1Z M7 43 h1 v1 h-1Z M9.1 43.5 a0.4 0.4 0 1 0 0.8 0 a0.4 0.4 0 1 0 -0.8 0Z M11.1 43.5 a0.4 0.4 0 1 0 0.8 0 a0.4 0.4 0 1 0 -0.8 0Z M14.1 43.5 a0.4 0.4 0 1 0 0.8 0 a0.4 0.4 0 1 0 -0.8 0Z M15.1 43.5 a0.4 0.4 0 1 0 0.8 0 a0.4 0.4 0 1 0 -0.8 0Z M19.1 43.5 a0.4 0.4 0 1 0 0.8 0 a0.4 0.4 0 1 0 -0.8 0Z M22.1 43.5 a0.4 0.4 0 1 0 0.8 0 a0.4 0.4 0 1 0 -0.8 0Z M24.1 43.5 a0.4 0.4 0 1 0 0.8 0 a0.4 0.4 0 1 0 -0.8 0Z M26.1 43.5 a0.4 0.4 0 1 0 0.8 0 a0.4 0.4 0 1 0 -0.8 0Z M30.1 43.5 a0.4 0.4 0 1 0 0.8 0 a0.4 0.4 0 1 0 -0.8 0Z M32.1 43.5 a0.4 0.4 0 1 0 0.8 0 a0.4 0.4 0 1 0 -0.8 0Z M33.1 43.5 a0.4 0.4 0 1 0 0.8 0 a0.4 0.4 0 1 0 -0.8 0Z M34.1 43.5 a0.4 0.4 0 1 0 0.8 0 a0.4 0.4 0 1 0 -0.8 0Z M35.1 43.5 a0.4 0.4 0 1 0 0.8 0 a0.4 0.4 0 1 0 -0.8 0Z M36.1 43.5 a0.4 0.4 0 1 0 0.8 0 a0.4 0.4 0 1 0 -0.8 0Z M38.1 43.5 a0.4 0.4 0 1 0 0.8 0 a0.4 0.4 0 1 0 -0.8 0Z M39.1 43.5 a0.4 0.4 0 1 0 0.8 0 a0.4 0.4 0 1 0 -0.8 0Z M42.1 43.5 a0.4 0.4 0 1 0 0.8 0 a0.4 0.4 0 1 0 -0.8 0Z M43.1 43.5 a0.4 0.4 0 1 0 0.8 0 a0.4 0.4 0 1 0 -0.8 0Z M1 44 h1 v1 h-1Z M7 44 h1 v1 h-1Z M9.1 44.5 a0.4 0.4 0 1 0 0.8 0 a0.4 0.4 0 1 0 -0.8 0Z M10.1 44.5 a0.4 0.4 0 1 0 0.8 0 a0.4 0.4 0 1 0 -0.8 0Z M11.1 44.5 a0.4 0.4 0 1 0 0.8 0 a0.4 0.4 0 1 0 -0.8 0Z M12.1 44.5 a0.4 0.4 0 1 0 0.8 0 a0.4 0.4 0 1 0 -0.8 0Z M15.1 44.5 a0.4 0.4 0 1 0 0.8 0 a0.4 0.4 0 1 0 -0.8 0Z M16.1 44.5 a0.4 0.4 0 1 0 0.8 0 a0.4 0.4 0 1 0 -0.8 0Z M18.1 44.5 a0.4 0.4 0 1 0 0.8 0 a0.4 0.4 0 1 0 -0.8 0Z M19.1 44.5 a0.4 0.4 0 1 0 0.8 0 a0.4 0.4 0 1 0 -0.8 0Z M20.1 44.5 a0.4 0.4 0 1 0 0.8 0 a0.4 0.4 0 1 0 -0.8 0Z M22.1 44.5 a0.4 0.4 0 1 0 0.8 0 a0.4 0.4 0 1 0 -0.8 0Z M24.1 44.5 a0.4 0.4 0 1 0 0.8 0 a0.4 0.4 0 1 0 -0.8 0Z M25.1 44.5 a0.4 0.4 0 1 0 0.8 0 a0.4 0.4 0 1 0 -0.8 0Z M28.1 44.5 a0.4 0.4 0 1 0 0.8 0 a0.4 0.4 0 1 0 -0.8 0Z M30.1 44.5 a0.4 0.4 0 1 0 0.8 0 a0.4 0.4 0 1 0 -0.8 0Z M32.1 44.5 a0.4 0.4 0 1 0 0.8 0 a0.4 0.4 0 1 0 -0.8 0Z M34.1 44.5 a0.4 0.4 0 1 0 0.8 0 a0.4 0.4 0 1 0 -0.8 0Z M38.1 44.5 a0.4 0.4 0 1 0 0.8 0 a0.4 0.4 0 1 0 -0.8 0Z M41.1 44.5 a0.4 0.4 0 1 0 0.8 0 a0.4 0.4 0 1 0 -0.8 0Z M43.1 44.5 a0.4 0.4 0 1 0 0.8 0 a0.4 0.4 0 1 0 -0.8 0Z M1 45 h1 v1 h-1Z M2 45 h1 v1 h-1Z M3 45 h1 v1 h-1Z M4 45 h1 v1 h-1Z M5 45 h1 v1 h-1Z M6 45 h1 v1 h-1Z M7 45 h1 v1 h-1Z M9.1 45.5 a0.4 0.4 0 1 0 0.8 0 a0.4 0.4 0 1 0 -0.8 0Z M11.1 45.5 a0.4 0.4 0 1 0 0.8 0 a0.4 0.4 0 1 0 -0.8 0Z M13.1 45.5 a0.4 0.4 0 1 0 0.8 0 a0.4 0.4 0 1 0 -0.8 0Z M14.1 45.5 a0.4 0.4 0 1 0 0.8 0 a0.4 0.4 0 1 0 -0.8 0Z M15.1 45.5 a0.4 0.4 0 1 0 0.8 0 a0.4 0.4 0 1 0 -0.8 0Z M19.1 45.5 a0.4 0.4 0 1 0 0.8 0 a0.4 0.4 0 1 0 -0.8 0Z M25.1 45.5 a0.4 0.4 0 1 0 0.8 0 a0.4 0.4 0 1 0 -0.8 0Z M26.1 45.5 a0.4 0.4 0 1 0 0.8 0 a0.4 0.4 0 1 0 -0.8 0Z M29.1 45.5 a0.4 0.4 0 1 0 0.8 0 a0.4 0.4 0 1 0 -0.8 0Z M36.1 45.5 a0.4 0.4 0 1 0 0.8 0 a0.4 0.4 0 1 0 -0.8 0Z
M38.1 45.5 a0.4 0.4 0 1 0 0.8 0 a0.4 0.4 0 1 0 -0.8 0Z M39.1 45.5 a0.4 0.4 0 1 0 0.8 0 a0.4 0.4 0 1 0 -0.8 0Z M41.1 45.5 a0.4 0.4 0 1 0 0.8 0 a0.4 0.4 0 1 0 -0.8 0Z M42.1 45.5 a0.4 0.4 0 1 0 0.8 0 a0.4 0.4 0 1 0 -0.8 0Z M43.1 45.5 a0.4 0.4 0 1 0 0.8 0 a0.4 0.4 0 1 0 -0.8 0Z M44.1 45.5 a0.4 0.4 0 1 0 0.8 0 a0.4 0.4 0 1 0 -0.8 0Z"/>
</svg>
