<?xml version="1.0" encoding="UTF-8"?>
<svg xmlns="http://www.w3.org/2000/svg" class="qr-svg qrcode" viewBox="0 0 45 45" preserveAspectRatio="xMidYMid">
	<defs>
		<linearGradient id="gradient" x1="100%" y2="100%">
			<stop stop-color="#D70071" offset="0"/>
			<stop stop-color="#9C4E97" offset="0.5"/>
			<stop stop-color="#0035A9" offset="1"/>
		</linearGradient>
		<style><![CDATA[
		.dark{fill: url(#gradient);}
		.light{fill: #eaeaea;}
	]]></style>
	</defs>
	<path class="qr-data-dark dark qrcode" d="M0 0 h1 v1 h-1Z M1 0 h1 v1 h-1Z M2 0 h1 v1 h-1Z M3 0 h1 v1 h-1Z M4 0 h1 v1 h-1Z M5 0 h1 v1 h-1Z M6 0 h1 v1 h-1Z M8.05 0.5 a0.45 0.45 0 1 0 0.9 0 a0.45 0.45 0 1 0 -0.9 0Z M10.05 0.5 a0.45 0.45 0 1 0 0.9 0 a0.45 0.45 0 1 0 -0.9 0Z M12.05 0.5 a0.45 0.45 0 1 0 0.9 0 a0.45 0.45 0 1 0 -0.9 0Z M13.05 0.5 a0.45 0.45 0 1 0 0.9 0 a0.45 0.45 0 1 0 -0.9 0Z M14.05 0.5 a0.45 0.45 0 1 0 0.9 0 a0.45 0.45 0 1 0 -0.9 0Z M15.05 0.5 a0.45 0.45 0 1 0 0.9 0 a0.45 0.45 0 1 0 -0.9 0Z M16.05 0.5 a0.45 0.45 0 1 0 0.9 0 a0.45 0.45 0 1 0 -0.9 0Z M20.05 0.5 a0.45 0.45 0 1 0 0.9 0 a0.45 0.45 0 1 0 -0.9 0Z M21.05 0.5 a0.45 0.45 0 1 0 0.9 0 a0.45 0.45 0 1 0 -0.9 0Z M25.05 0.5 a0.45 0.45 0 1 0 0.9 0 a0.45 0.45 0 1 0 -0.9 0Z M26.05 0.5 a0.45 0.45 0 1 0 0.9 0 a0.45 0.45 0 1 0 -0.9 0Z M30.05 0.5 a0.45 0.45 0 1 0 0.9 0 a0.45 0.45 0 1 0 -0.9 0Z M31.05 0.5 a0.45 0.45 0 1 0 0.9 0 a0.45 0.45 0 1 0 -0.9 0Z M32.05 0.5 a0.45 0.45 0 1 0 0.9 0 a0.45 0.45 0 1 0 -0.9 0Z M36.05 0.5 a0.45 0.45 0 1 0 0.9 0 a0.45 0.45 0 1 0 -0.9 0Z M38 0 h1 v1 h-1Z M39 0 h1 v1 h-1Z M40 0 h1 v1 h-1Z M41 0 h1 v1 h-1Z M42 0 h1 v1 h-1Z M43 0 h1 v1 h-1Z M44 0 h1 v1 h-1Z M0 1 h1 v1 h-1Z M6 1 h1 v1 h-1Z M8.05 1.5 a0.45 0.45 0 1 0 0.9 0 a0.45 0.45 0 1 0 -0.9 0Z M9.05 1.5 a0.45 0.45 0 1 0 0.9 0 a0.45 0.45 0 1 0 -0.9 0Z M11.05 1.5 a0.45 0.45 0 1 0 0.9 0 a0.45 0.45 0 1 0 -0.9 0Z M13.05 1.5 a0.45 0.45 0 1 0 0.9 0 a0.45 0.45 0 1 0 -0.9 0Z M15.05 1.5 a0.45 0.45 0 1 0 0.9 0 a0.45 0.45 0 1 0 -0.9 0Z M16.05 1.5 a0.45 0.45 0 1 0 0.9 0 a0.45 0.45 0 1 0 -0.9 0Z M20.05 1.5 a0.45 0.45 0 1 0 0.9 0 a0.45 0.45 0 1 0 -0.9 0Z M21.05 1.5 a0.45 0.45 0 1 0 0.9 0 a0.45 0.45 0 1 0 -0.9 0Z M22.05 1.5 a0.45 0.45 0 1 0 0.9 0 a0.45 0.45 0 1 0 -0.9 0Z M23.05 1.5 a0.45 0.45 0 1 0 0.9 0 a0.45 0.45 0 1 0 -0.9 0Z M25.05 1.5 a0.45 0.45 0 1 0 0.9 0 a0.45 0.45 0 1 0 -0.9 0Z M31.05 1.5 a0.45 0.45 0 1 0 0.9 0 a0.45 0.45 0 1 0 -0.9 0Z M33.05 1.5 a0.45 0.45 0 1 0 0.9 0 a0.45 0.45 0 1 0 -0.9 0Z M35.05 1.5 a0.45 0.45 0 1 0 0.9 0 a0.45 0.45 0 1 0 -0.9 0Z M38 1 h1 v1 h-1Z M44 1 h1 v1 h-1Z M0 2 h1 v1 h-1Z M2 2 h1 v1 h-1Z M3 2 h1 v1 h-1Z M4 2 h1 v1 h-1Z M6 2 h1 v1 h-1Z M8.05 2.5 a0.45 0.45 0 1 0 0.9 0 a0.45 0.45 0 1 0 -0.9 0Z M9.05 2.5 a0.45 0.45 0 1 0 0.9 0 a0.45 0.45 0 1 0 -0.9 0Z M15.05 2.5 a0.45 0.45 0 1 0 0.9 0 a0.45 0.45 0 1 0 -0.9 0Z M18.05 2.5 a0.45 0.45 0 1 0 0.9 0 a0.45 0.45 0 1 0 -0.9 0Z M20.05 2.5 a0.45 0.45 0 1 0 0.9 0 a0.45 0.45 0 1 0 -0.9 0Z M22.05 2.5 a0.45 0.45 0 1 0 0.9 0 a0.45 0.45 0 1 0 -0.9 0Z M23.05 2.5 a0.45 0.45 0 1 0 0.9 0 a0.45 0.45 0 1 0 -0.9 0Z M24.05 2.5 a0.45 0.45 0 1 0 0.9 0 a0.45 0.45 0 1 0 -0.9 0Z M25.05 2.5 a0.45 0.45 0 1 0 0.9 0 a0.45 0.45 0 1 0 -0.9 0Z M28.05 2.5 a0.45 0.45 0 1 0 0.9 0 a0.45 0.45 0 1 0 -0.9 0Z M29.05 2.5 a0.45 0.45 0 1 0 0.9 0 a0.45 0.45 0 1 0 -0.9 0Z M35.05 2.5 a0.45 0.45 0 1 0 0.9 0 a0.45 0.45 0 1 0 -0.9 0Z M38 2 h1 v1 h-1Z M40 2 h1 v1 h-1Z M41 2 h1 v1 h-1Z M42 2 h1 v1 h-1Z M44 2 h1 v1 h-1Z M0 3 h1 v1 h-1Z M2 3 h1 v1 h-1Z M3 3 h1 v1 h-1Z M4 3 h1 v1 h-1Z M6 3 h1 v1 h-1Z M10.05 3.5 a0.45 0.45 0 1 0 0.9 0 a0.45 0.45 0 1 0 -0.9 0Z M11.05 3.5 a0.45 0.45 0 1 0 0.9 0 a0.45 0.45 0 1 0 -0.9 0Z M13.05 3.5 a0.45 0.45 0 1 0 0.9 0 a0.45 0.45 0 1 0 -0.9 0Z M14.05 3.5 a0.45 0.45 0 1 0 0.9 0 a0.45 0.45 0 1 0 -0.9 0Z M19.05 3.5 a0.45 0.45 0 1 0 0.9 0 a0.45 0.45 0 1 0 -0.9 0Z M21.05 3.5 a0.45 0.45 0 1 0 0.9 0 a0.45 0.45 0 1 0 -0.9 0Z M23.05 3.5 a0.45 0.45 0 1 0 0.9 0 a0.45 0.45 0 1 0 -0.9 0Z M24.05 3.5 a0.45 0.45 0 1 0 0.9 0 a0.45 0.45 0 1 0 -0.9 0Z M26.05 3.5 a0.45 0.45 0 1 0 0.9 0 a0.45 0.45 0 1 0 -0.9 0Z M27.05 3.5 a0.45 0.45 0 1 0 0.9 0 a0.45 0.45 0 1 0 -0.9 0Z M28.05 3.5 a0.45 0.45 0 1 0 0.9 0 a0.45 0.45 0 1 0 -0.9 0Z M29.05 3.5 a0.45 0.45 0 1 0 0.9 0 a0.45 0.45 0 1 0 -0.9 0Z M31.05 3.5 a0.45 0.45 0 1 0 0.9 0 a0.45 0.45 0 1 0 -0.9 0Z M32.05 3.5 a0.45 0.45 0 1 0 0.9 0 a0.45 0.45 0 1 0 -0.9 0Z M35.05 3.5 a0.45 0.45 0 1 0 0.9 0 a0.45 0.45 0 1 0 -0.9 0Z M36.05 3.5 a0.45 0.45 0 1 0 0.9 0 a0.45 0.45 0 1 0 -0.9 0Z M38 3 h1 v1 h-1Z M40 3 h1 v1 h-1Z M41 3 h1 v1 h-1Z M42 3 h1 v1 h-1Z M44 3 h1 v1 h-1Z M0 4 h1 v1 h-1Z M2 4 h1 v1 h-1Z M3 4 h1 v1 h-1Z M4 4 h1 v1 h-1Z M6 4 h1 v1 h-1Z
M9.05 4.5 a0.45 0.45 0 1 0 0.9 0 a0.45 0.45 0 1 0 -0.9 0Z M10.05 4.5 a0.45 0.45 0 1 0 0.9 0 a0.45 0.45 0 1 0 -0.9 0Z M12.05 4.5 a0.45 0.45 0 1 0 0.9 0 a0.45 0.45 0 1 0 -0.9 0Z M15.05 4.5 a0.45 0.45 0 1 0 0.9 0 a0.45 0.45 0 1 0 -0.9 0Z M18.05 4.5 a0.45 0.45 0 1 0 0.9 0 a0.45 0.45 0 1 0 -0.9 0Z M19.05 4.5 a0.45 0.45 0 1 0 0.9 0 a0.45 0.45 0 1 0 -0.9 0Z M20 4 h1 v1 h-1Z M21 4 h1 v1 h-1Z M22 4 h1 v1 h-1Z M23 4 h1 v1 h-1Z M24 4 h1 v1 h-1Z M25.05 4.5 a0.45 0.45 0 1 0 0.9 0 a0.45 0.45 0 1 0 -0.9 0Z M27.05 4.5 a0.45 0.45 0 1 0 0.9 0 a0.45 0.45 0 1 0 -0.9 0Z M29.05 4.5 a0.45 0.45 0 1 0 0.9 0 a0.45 0.45 0 1 0 -0.9 0Z M30.05 4.5 a0.45 0.45 0 1 0 0.9 0 a0.45 0.45 0 1 0 -0.9 0Z M32.05 4.5 a0.45 0.45 0 1 0 0.9 0 a0.45 0.45 0 1 0 -0.9 0Z M33.05 4.5 a0.45 0.45 0 1 0 0.9 0 a0.45 0.45 0 1 0 -0.9 0Z M34.05 4.5 a0.45 0.45 0 1 0 0.9 0 a0.45 0.45 0 1 0 -0.9 0Z M35.05 4.5 a0.45 0.45 0 1 0 0.9 0 a0.45 0.45 0 1 0 -0.9 0Z M36.05 4.5 a0.45 0.45 0 1 0 0.9 0 a0.45 0.45 0 1 0 -0.9 0Z M38 4 h1 v1 h-1Z M40 4 h1 v1 h-1Z M41 4 h1 v1 h-1Z M42 4 h1 v1 h-1Z M44 4 h1 v1 h-1Z M0 5 h1 v1 h-1Z M6 5 h1 v1 h-1Z M8.05 5.5 a0.45 0.45 0 1 0 0.9 0 a0.45 0.45 0 1 0 -0.9 0Z M11.05 5.5 a0.45 0.45 0 1 0 0.9 0 a0.45 0.45 0 1 0 -0.9 0Z M12.05 5.5 a0.45 0.45 0 1 0 0.9 0 a0.45 0.45 0 1 0 -0.9 0Z M16.05 5.5 a0.45 0.45 0 1 0 0.9 0 a0.45 0.45 0 1 0 -0.9 0Z M17.05 5.5 a0.45 0.45 0 1 0 0.9 0 a0.45 0.45 0 1 0 -0.9 0Z M18.05 5.5 a0.45 0.45 0 1 0 0.9 0 a0.45 0.45 0 1 0 -0.9 0Z M19.05 5.5 a0.45 0.45 0 1 0 0.9 0 a0.45 0.45 0 1 0 -0.9 0Z M20 5 h1 v1 h-1Z M24 5 h1 v1 h-1Z M26.05 5.5 a0.45 0.45 0 1 0 0.9 0 a0.45 0.45 0 1 0 -0.9 0Z M29.05 5.5 a0.45 0.45 0 1 0 0.9 0 a0.45 0.45 0 1 0 -0.9 0Z M31.05 5.5 a0.45 0.45 0 1 0 0.9 0 a0.45 0.45 0 1 0 -0.9 0Z M32.05 5.5 a0.45 0.45 0 1 0 0.9 0 a0.45 0.45 0 1 0 -0.9 0Z M33.05 5.5 a0.45 0.45 0 1 0 0.9 0 a0.45 0.45 0 1 0 -0.9 0Z M38 5 h1 v1 h-1Z M44 5 h1 v1 h-1Z M0 6 h1 v1 h-1Z M1 6 h1 v1 h-1Z M2 6 h1 v1 h-1Z M3 6 h1 v1 h-1Z M4 6 h1 v1 h-1Z M5 6 h1 v1 h-1Z M6 6 h1 v1 h-1Z M8.05 6.5 a0.45 0.45 0 1 0 0.9 0 a0.45 0.45 0 1 0 -0.9 0Z M10.05 6.5 a0.45 0.45 0 1 0 0.9 0 a0.45 0.45 0 1 0 -0.9 0Z M12.05 6.5 a0.45 0.45 0 1 0 0.9 0 a0.45 0.45 0 1 0 -0.9 0Z M14.05 6.5 a0.45 0.45 0 1 0 0.9 0 a0.45 0.45 0 1 0 -0.9 0Z M16.05 6.5 a0.45 0.45 0 1 0 0.9 0 a0.45 0.45 0 1 0 -0.9 0Z M18.05 6.5 a0.45 0.45 0 1 0 0.9 0 a0.45 0.45 0 1 0 -0.9 0Z M20 6 h1 v1 h-1Z M22 6 h1 v1 h-1Z M24 6 h1 v1 h-1Z M26.05 6.5 a0.45 0.45 0 1 0 0.9 0 a0.45 0.45 0 1 0 -0.9 0Z M28.05 6.5 a0.45 0.45 0 1 0 0.9 0 a0.45 0.45 0 1 0 -0.9 0Z M30.05 6.5 a0.45 0.45 0 1 0 0.9 0 a0.45 0.45 0 1 0 -0.9 0Z M32.05 6.5 a0.45 0.45 0 1 0 0.9 0 a0.45 0.45 0 1 0 -0.9 0Z M34.05 6.5 a0.45 0.45 0 1 0 0.9 0 a0.45 0.45 0 1 0 -0.9 0Z M36.05 6.5 a0.45 0.45 0 1 0 0.9 0 a0.45 0.45 0 1 0 -0.9 0Z M38 6 h1 v1 h-1Z M39 6 h1 v1 h-1Z M40 6 h1 v1 h-1Z M41 6 h1 v1 h-1Z M42 6 h1 v1 h-1Z M43 6 h1 v1 h-1Z M44 6 h1 v1 h-1Z M8.05 7.5 a0.45 0.45 0 1 0 0.9 0 a0.45 0.45 0 1 0 -0.9 0Z M9.05 7.5 a0.45 0.45 0 1 0 0.9 0 a0.45 0.45 0 1 0 -0.9 0Z M11.05 7.5 a0.45 0.45 0 1 0 0.9 0 a0.45 0.45 0 1 0 -0.9 0Z M12.05 7.5 a0.45 0.45 0 1 0 0.9 0 a0.45 0.45 0 1 0 -0.9 0Z M13.05 7.5 a0.45 0.45 0 1 0 0.9 0 a0.45 0.45 0 1 0 -0.9 0Z M20 7 h1 v1 h-1Z M24 7 h1 v1 h-1Z M26.05 7.5 a0.45 0.45 0 1 0 0.9 0 a0.45 0.45 0 1 0 -0.9 0Z M27.05 7.5 a0.45 0.45 0 1 0 0.9 0 a0.45 0.45 0 1 0 -0.9 0Z M29.05 7.5 a0.45 0.45 0 1 0 0.9 0 a0.45 0.45 0 1 0 -0.9 0Z M30.05 7.5 a0.45 0.45 0 1 0 0.9 0 a0.45 0.45 0 1 0 -0.9 0Z M31.05 7.5 a0.45 0.45 0 1 0 0.9 0 a0.45 0.45 0 1 0 -0.9 0Z M34.05 7.5 a0.45 0.45 0 1 0 0.9 0 a0.45 0.45 0 1 0 -0.9 0Z M35.05 7.5 a0.45 0.45 0 1 0 0.9 0 a0.45 0.45 0 1 0 -0.9 0Z M2.05 8.5 a0.45 0.45 0 1 0 0.9 0 a0.45 0.45 0 1 0 -0.9 0Z M3.05 8.5 a0.45 0.45 0 1 0 0.9 0 a0.45 0.45 0 1 0 -0.9 0Z M4.05 8.5 a0.45 0.45 0 1 0 0.9 0 a0.45 0.45 0 1 0 -0.9 0Z M6.05 8.5 a0.45 0.45 0 1 0 0.9 0 a0.45 0.45 0 1 0 -0.9 0Z M8.05 8.5 a0.45 0.45 0 1 0 0.9 0 a0.45 0.45 0 1 0 -0.9 0Z M10.05 8.5 a0.45 0.45 0 1 0 0.9 0 a0.45 0.45 0 1 0 -0.9 0Z M12.05 8.5 a0.45 0.45 0 1 0 0.9 0 a0.45 0.45 0 1 0 -0.9 0Z M13.05 8.5 a0.45 0.45 0 1 0 0.9 0 a0.45 0.45 0 1 0 -0.9 0Z M15.05 8.5 a0.45 0.45 0 1 0 0.9 0 a0.45 0.45 0 1 0 -0.9 0Z M17.05 8.5 a0.45 0.45 0 1 0 0.9 0 a0.45 0.45 0 1 0 -0.9 0Z M20 8 h1 v1 h-1Z M21 8 h1 v1 h-1Z M22 8 h1 v1 h-1Z M23 8 h1 v1 h-1Z
M24 8 h1 v1 h-1Z M25.05 8.5 a0.45 0.45 0 1 0 0.9 0 a0.45 0.45 0 1 0 -0.9 0Z M27.05 8.5 a0.45 0.45 0 1 0 0.9 0 a0.45 0.45 0 1 0 -0.9 0Z M28.05 8.5 a0.45 0.45 0 1 0 0.9 0 a0.45 0.45 0 1 0 -0.9 0Z M29.05 8.5 a0.45 0.45 0 1 0 0.9 0 a0.45 0.45 0 1 0 -0.9 0Z M34.05 8.5 a0.45 0.45 0 1 0 0.9 0 a0.45 0.45 0 1 0 -0.9 0Z M35.05 8.5 a0.45 0.45 0 1 0 0.9 0 a0.45 0.45 0 1 0 -0.9 0Z M36.05 8.5 a0.45 0.45 0 1 0 0.9 0 a0.45 0.45 0 1 0 -0.9 0Z M37.05 8.5 a0.45 0.45 0 1 0 0.9 0 a0.45 0.45 0 1 0 -0.9 0Z M38.05 8.5 a0.45 0.45 0 1 0 0.9 0 a0.45 0.45 0 1 0 -0.9 0Z M39.05 8.5 a0.45 0.45 0 1 0 0.9 0 a0.45 0.45 0 1 0 -0.9 0Z M42.05 8.5 a0.45 0.45 0 1 0 0.9 0 a0.45 0.45 0 1 0 -0.9 0Z M43.05 8.5 a0.45 0.45 0 1 0 0.9 0 a0.45 0.45 0 1 0 -0.9 0Z M44.05 8.5 a0.45 0.45 0 1 0 0.9 0 a0.45 0.45 0 1 0 -0.9 0Z M1.05 9.5 a0.45 0.45 0 1 0 0.9 0 a0.45 0.45 0 1 0 -0.9 0Z M7.05 9.5 a0.45 0.45 0 1 0 0.9 0 a0.45 0.45 0 1 0 -0.9 0Z M9.05 9.5 a0.45 0.45 0 1 0 0.9 0 a0.45 0.45 0 1 0 -0.9 0Z M11.05 9.5 a0.45 0.45 0 1 0 0.9 0 a0.45 0.45 0 1 0 -0.9 0Z M12.05 9.5 a0.45 0.45 0 1 0 0.9 0 a0.45 0.45 0 1 0 -0.9 0Z M13.05 9.5 a0.45 0.45 0 1 0 0.9 0 a0.45 0.45 0 1 0 -0.9 0Z M14.05 9.5 a0.45 0.45 0 1 0 0.9 0 a0.45 0.45 0 1 0 -0.9 0Z M19.05 9.5 a0.45 0.45 0 1 0 0.9 0 a0.45 0.45 0 1 0 -0.9 0Z M21.05 9.5 a0.45 0.45 0 1 0 0.9 0 a0.45 0.45 0 1 0 -0.9 0Z M22.05 9.5 a0.45 0.45 0 1 0 0.9 0 a0.45 0.45 0 1 0 -0.9 0Z M26.05 9.5 a0.45 0.45 0 1 0 0.9 0 a0.45 0.45 0 1 0 -0.9 0Z M27.05 9.5 a0.45 0.45 0 1 0 0.9 0 a0.45 0.45 0 1 0 -0.9 0Z M28.05 9.5 a0.45 0.45 0 1 0 0.9 0 a0.45 0.45 0 1 0 -0.9 0Z M30.05 9.5 a0.45 0.45 0 1 0 0.9 0 a0.45 0.45 0 1 0 -0.9 0Z M31.05 9.5 a0.45 0.45 0 1 0 0.9 0 a0.45 0.45 0 1 0 -0.9 0Z M33.05 9.5 a0.45 0.45 0 1 0 0.9 0 a0.45 0.45 0 1 0 -0.9 0Z M36.05 9.5 a0.45 0.45 0 1 0 0.9 0 a0.45 0.45 0 1 0 -0.9 0Z M41.05 9.5 a0.45 0.45 0 1 0 0.9 0 a0.45 0.45 0 1 0 -0.9 0Z M44.05 9.5 a0.45 0.45 0 1 0 0.9 0 a0.45 0.45 0 1 0 -0.9 0Z M3.05 10.5 a0.45 0.45 0 1 0 0.9 0 a0.45 0.45 0 1 0 -0.9 0Z M5.05 10.5 a0.45 0.45 0 1 0 0.9 0 a0.45 0.45 0 1 0 -0.9 0Z M6.05 10.5 a0.45 0.45 0 1 0 0.9 0 a0.45 0.45 0 1 0 -0.9 0Z M8.05 10.5 a0.45 0.45 0 1 0 0.9 0 a0.45 0.45 0 1 0 -0.9 0Z M13.05 10.5 a0.45 0.45 0 1 0 0.9 0 a0.45 0.45 0 1 0 -0.9 0Z M15.05 10.5 a0.45 0.45 0 1 0 0.9 0 a0.45 0.45 0 1 0 -0.9 0Z M16.05 10.5 a0.45 0.45 0 1 0 0.9 0 a0.45 0.45 0 1 0 -0.9 0Z M18.05 10.5 a0.45 0.45 0 1 0 0.9 0 a0.45 0.45 0 1 0 -0.9 0Z M20.05 10.5 a0.45 0.45 0 1 0 0.9 0 a0.45 0.45 0 1 0 -0.9 0Z M23.05 10.5 a0.45 0.45 0 1 0 0.9 0 a0.45 0.45 0 1 0 -0.9 0Z M25.05 10.5 a0.45 0.45 0 1 0 0.9 0 a0.45 0.45 0 1 0 -0.9 0Z M26.05 10.5 a0.45 0.45 0 1 0 0.9 0 a0.45 0.45 0 1 0 -0.9 0Z M28.05 10.5 a0.45 0.45 0 1 0 0.9 0 a0.45 0.45 0 1 0 -0.9 0Z M29.05 10.5 a0.45 0.45 0 1 0 0.9 0 a0.45 0.45 0 1 0 -0.9 0Z M33.05 10.5 a0.45 0.45 0 1 0 0.9 0 a0.45 0.45 0 1 0 -0.9 0Z M34.05 10.5 a0.45 0.45 0 1 0 0.9 0 a0.45 0.45 0 1 0 -0.9 0Z M35.05 10.5 a0.45 0.45 0 1 0 0.9 0 a0.45 0.45 0 1 0 -0.9 0Z M36.05 10.5 a0.45 0.45 0 1 0 0.9 0 a0.45 0.45 0 1 0 -0.9 0Z M37.05 10.5 a0.45 0.45 0 1 0 0.9 0 a0.45 0.45 0 1 0 -0.9 0Z M39.05 10.5 a0.45 0.45 0 1 0 0.9 0 a0.45 0.45 0 1 0 -0.9 0Z M43.05 10.5 a0.45 0.45 0 1 0 0.9 0 a0.45 0.45 0 1 0 -0.9 0Z M1.05 11.5 a0.45 0.45 0 1 0 0.9 0 a0.45 0.45 0 1 0 -0.9 0Z M2.05 11.5 a0.45 0.45 0 1 0 0.9 0 a0.45 0.45 0 1 0 -0.9 0Z M4.05 11.5 a0.45 0.45 0 1 0 0.9 0 a0.45 0.45 0 1 0 -0.9 0Z M10.05 11.5 a0.45 0.45 0 1 0 0.9 0 a0.45 0.45 0 1 0 -0.9 0Z M11.05 11.5 a0.45 0.45 0 1 0 0.9 0 a0.45 0.45 0 1 0 -0.9 0Z M13.05 11.5 a0.45 0.45 0 1 0 0.9 0 a0.45 0.45 0 1 0 -0.9 0Z M15.05 11.5 a0.45 0.45 0 1 0 0.9 0 a0.45 0.45 0 1 0 -0.9 0Z M17.05 11.5 a0.45 0.45 0 1 0 0.9 0 a0.45 0.45 0 1 0 -0.9 0Z M21.05 11.5 a0.45 0.45 0 1 0 0.9 0 a0.45 0.45 0 1 0 -0.9 0Z M23.05 11.5 a0.45 0.45 0 1 0 0.9 0 a0.45 0.45 0 1 0 -0.9 0Z M29.05 11.5 a0.45 0.45 0 1 0 0.9 0 a0.45 0.45 0 1 0 -0.9 0Z M31.05 11.5 a0.45 0.45 0 1 0 0.9 0 a0.45 0.45 0 1 0 -0.9 0Z M32.05 11.5 a0.45 0.45 0 1 0 0.9 0 a0.45 0.45 0 1 0 -0.9 0Z M34.05 11.5 a0.45 0.45 0 1 0 0.9 0 a0.45 0.45 0 1 0 -0.9 0Z M36.05 11.5 a0.45 0.45 0 1 0 0.9 0 a0.45 0.45 0 1 0 -0.9 0Z M41.05 11.5 a0.45 0.45 0 1 0 0.9 0 a0.45 0.45 0 1 0 -0.9 0Z M43.05 11.5 a0.45 0.45 0 1 0 0.9 0 a0.45 0.45 0 1 0 -0.9 0Z M44.05 11.5 a0.45 0.45 0 1 0 0.9 0 a0.45 0.45 0 1 0 -0.9 0Z M3.05 12.5 a0.45 0.45 0 1 0 0.9 0 a0.45 0.45 0 1 0 -0.9 0Z M4.05 12.5 a0.45 0.45 0 1 0 0.9 0 a0.45 0.45 0 1 0 -0.9 0Z M5.05 12.5 a0.45 0.45 0 1 0 0.9 0 a0.45 0.45 0 1 0 -0.9 0Z M6.05 12.5 a0.45 0.45 0 1 0 0.9 0 a0.45 0.45 0 1 0 -0.9 0Z M9.05 12.5 a0.45 0.45 0 1 0 0.9 0 a0.45 0.45 0 1 0 -0.9 0Z M15.05 12.5 a0.45 0.45 0 1 0 0.9 0 a0.45 0.45 0 1 0 -0.9 0Z M17.05 12.5 a0.45 0.45 0 1 0 0.9 0 a0.45 0.45 0 1 0 -0.9 0Z M23.05 12.5 a0.45 0.45 0 1 0 0.9 0 a0.45 0.45 0 1 0 -0.9 0Z M24.05 12.5 a0.45 0.45 0 1 0 0.9 0 a0.45 0.45 0 1 0 -0.9 0Z M31.05 12.5 a0.45 0.45 0 1 0 0.9 0 a0.45 0.45 0 1 0 -0.9 0Z M33.05 12.5 a0.45 0.45 0 1 0 0.9 0 a0.45 0.45 0 1 0 -0.9 0Z M34.05 12.5 a0.45 0.45 0 1 0 0.9 0 a0.45 0.45 0 1 0 -0.9 0Z M42.05 12.5 a0.45 0.45 0 1 0 0.9 0 a0.45 0.45 0 1 0 -0.9 0Z M43.05 12.5 a0.45 0.45 0 1 0 0.9 0 a0.45 0.45 0 1 0 -0.9 0Z M0.05 13.5 a0.45 0.45 0 1 0 0.9 0 a0.45 0.45 0 1 0 -0.9 0Z M2.05 13.5 a0.45 0.45 0 1 0 0.9 0 a0.45 0.45 0 1 0 -0.9 0Z M4.05 13.5 a0.45 0.45 0 1 0 0.9 0 a0.45 0.45 0 1 0 -0.9 0Z M7.05 13.5 a0.45 0.45 0 1 0 0.9 0 a0.45 0.45 0 1 0 -0.9 0Z M8.05 13.5 a0.45 0.45 0 1 0 0.9 0 a0.45 0.45 0 1 0 -0.9 0Z M10.05 13.5 a0.45 0.45 0 1 0 0.9 0 a0.45 0.45 0 1 0 -0.9 0Z M11.05 13.5 a0.45 0.45 0 1 0 0.9 0 a0.45 0.45 0 1 0 -0.9 0Z M13.05 13.5 a0.45 0.45 0 1 0 0.9 0 a0.45 0.45 0 1 0 -0.9 0Z M16.05 13.5 a0.45 0.45 0 1 0 0.9 0 a0.45 0.45 0 1 0 -0.9 0Z M22.05 13.5 a0.45 0.45 0 1 0 0.9 0 a0.45 0.45 0 1 0 -0.9 0Z M23.05 13.5 a0.45 0.45 0 1 0 0.9 0 a0.45 0.45 0 1 0 -0.9 0Z M25.05 13.5 a0.45 0.45 0 1 0 0.9 0 a0.45 0.45 0 1 0 -0.9 0Z M27.05 13.5 a0.45 0.45 0 1 0 0.9 0 a0.45 0.45 0 1 0 -0.9 0Z M28.05 13.5 a0.45 0.45 0 1 0 0.9 0 a0.45 0.45 0 1 0 -0.9 0Z
M29.05 13.5 a0.45 0.45 0 1 0 0.9 0 a0.45 0.45 0 1 0 -0.9 0Z M35.05 13.5 a0.45 0.45 0 1 0 0.9 0 a0.45 0.45 0 1 0 -0.9 0Z M36.05 13.5 a0.45 0.45 0 1 0 0.9 0 a0.45 0.45 0 1 0 -0.9 0Z M37.05 13.5 a0.45 0.45 0 1 0 0.9 0 a0.45 0.45 0 1 0 -0.9 0Z M40.05 13.5 a0.45 0.45 0 1 0 0.9 0 a0.45 0.45 0 1 0 -0.9 0Z M43.05 13.5 a0.45 0.45 0 1 0 0.9 0 a0.45 0.45 0 1 0 -0.9 0Z M44.05 13.5 a0.45 0.45 0 1 0 0.9 0 a0.45 0.45 0 1 0 -0.9 0Z M0.05 14.5 a0.45 0.45 0 1 0 0.9 0 a0.45 0.45 0 1 0 -0.9 0Z M2.05 14.5 a0.45 0.45 0 1 0 0.9 0 a0.45 0.45 0 1 0 -0.9 0Z M3.05 14.5 a0.45 0.45 0 1 0 0.9 0 a0.45 0.45 0 1 0 -0.9 0Z M4.05 14.5 a0.45 0.45 0 1 0 0.9 0 a0.45 0.45 0 1 0 -0.9 0Z M5.05 14.5 a0.45 0.45 0 1 0 0.9 0 a0.45 0.45 0 1 0 -0.9 0Z M6.05 14.5 a0.45 0.45 0 1 0 0.9 0 a0.45 0.45 0 1 0 -0.9 0Z M7.05 14.5 a0.45 0.45 0 1 0 0.9 0 a0.45 0.45 0 1 0 -0.9 0Z M10.05 14.5 a0.45 0.45 0 1 0 0.9 0 a0.45 0.45 0 1 0 -0.9 0Z M11.05 14.5 a0.45 0.45 0 1 0 0.9 0 a0.45 0.45 0 1 0 -0.9 0Z M12.05 14.5 a0.45 0.45 0 1 0 0.9 0 a0.45 0.45 0 1 0 -0.9 0Z M13.05 14.5 a0.45 0.45 0 1 0 0.9 0 a0.45 0.45 0 1 0 -0.9 0Z M14.05 14.5 a0.45 0.45 0 1 0 0.9 0 a0.45 0.45 0 1 0 -0.9 0Z M19.05 14.5 a0.45 0.45 0 1 0 0.9 0 a0.45 0.45 0 1 0 -0.9 0Z M20.05 14.5 a0.45 0.45 0 1 0 0.9 0 a0.45 0.45 0 1 0 -0.9 0Z M21.05 14.5 a0.45 0.45 0 1 0 0.9 0 a0.45 0.45 0 1 0 -0.9 0Z M22.05 14.5 a0.45 0.45 0 1 0 0.9 0 a0.45 0.45 0 1 0 -0.9 0Z M23.05 14.5 a0.45 0.45 0 1 0 0.9 0 a0.45 0.45 0 1 0 -0.9 0Z M24.05 14.5 a0.45 0.45 0 1 0 0.9 0 a0.45 0.45 0 1 0 -0.9 0Z M30.05 14.5 a0.45 0.45 0 1 0 0.9 0 a0.45 0.45 0 1 0 -0.9 0Z M31.05 14.5 a0.45 0.45 0 1 0 0.9 0 a0.45 0.45 0 1 0 -0.9 0Z M33.05 14.5 a0.45 0.45 0 1 0 0.9 0 a0.45 0.45 0 1 0 -0.9 0Z M34.05 14.5 a0.45 0.45 0 1 0 0.9 0 a0.45 0.45 0 1 0 -0.9 0Z M35.05 14.5 a0.45 0.45 0 1 0 0.9 0 a0.45 0.45 0 1 0 -0.9 0Z M36.05 14.5 a0.45 0.45 0 1 0 0.9 0 a0.45 0.45 0 1 0 -0.9 0Z M37.05 14.5 a0.45 0.45 0 1 0 0.9 0 a0.45 0.45 0 1 0 -0.9 0Z M38.05 14.5 a0.45 0.45 0 1 0 0.9 0 a0.45 0.45 0 1 0 -0.9 0Z M39.05 14.5 a0.45 0.45 0 1 0 0.9 0 a0.45 0.45 0 1 0 -0.9 0Z M42.05 14.5 a0.45 0.45 0 1 0 0.9 0 a0.45 0.45 0 1 0 -0.9 0Z M43.05 14.5 a0.45 0.45 0 1 0 0.9 0 a0.45 0.45 0 1 0 -0.9 0Z M0.05 15.5 a0.45 0.45 0 1 0 0.9 0 a0.45 0.45 0 1 0 -0.9 0Z M2.05 15.5 a0.45 0.45 0 1 0 0.9 0 a0.45 0.45 0 1 0 -0.9 0Z M4.05 15.5 a0.45 0.45 0 1 0 0.9 0 a0.45 0.45 0 1 0 -0.9 0Z M7.05 15.5 a0.45 0.45 0 1 0 0.9 0 a0.45 0.45 0 1 0 -0.9 0Z M10.05 15.5 a0.45 0.45 0 1 0 0.9 0 a0.45 0.45 0 1 0 -0.9 0Z M12.05 15.5 a0.45 0.45 0 1 0 0.9 0 a0.45 0.45 0 1 0 -0.9 0Z M13.05 15.5 a0.45 0.45 0 1 0 0.9 0 a0.45 0.45 0 1 0 -0.9 0Z M14.05 15.5 a0.45 0.45 0 1 0 0.9 0 a0.45 0.45 0 1 0 -0.9 0Z M15.05 15.5 a0.45 0.45 0 1 0 0.9 0 a0.45 0.45 0 1 0 -0.9 0Z M20.05 15.5 a0.45 0.45 0 1 0 0.9 0 a0.45 0.45 0 1 0 -0.9 0Z M21.05 15.5 a0.45 0.45 0 1 0 0.9 0 a0.45 0.45 0 1 0 -0.9 0Z M23.05 15.5 a0.45 0.45 0 1 0 0.9 0 a0.45 0.45 0 1 0 -0.9 0Z M24.05 15.5 a0.45 0.45 0 1 0 0.9 0 a0.45 0.45 0 1 0 -0.9 0Z M25.05 15.5 a0.45 0.45 0 1 0 0.9 0 a0.45 0.45 0 1 0 -0.9 0Z M26.05 15.5 a0.45 0.45 0 1 0 0.9 0 a0.45 0.45 0 1 0 -0.9 0Z M27.05 15.5 a0.45 0.45 0 1 0 0.9 0 a0.45 0.45 0 1 0 -0.9 0Z M30.05 15.5 a0.45 0.45 0 1 0 0.9 0 a0.45 0.45 0 1 0 -0.9 0Z M32.05 15.5 a0.45 0.45 0 1 0 0.9 0 a0.45 0.45 0 1 0 -0.9 0Z M35.05 15.5 a0.45 0.45 0 1 0 0.9 0 a0.45 0.45 0 1 0 -0.9 0Z M37.05 15.5 a0.45 0.45 0 1 0 0.9 0 a0.45 0.45 0 1 0 -0.9 0Z M40.05 15.5 a0.45 0.45 0 1 0 0.9 0 a0.45 0.45 0 1 0 -0.9 0Z M41.05 15.5 a0.45 0.45 0 1 0 0.9 0 a0.45 0.45 0 1 0 -0.9 0Z M42.05 15.5 a0.45 0.45 0 1 0 0.9 0 a0.45 0.45 0 1 0 -0.9 0Z M43.05 15.5 a0.45 0.45 0 1 0 0.9 0 a0.45 0.45 0 1 0 -0.9 0Z M1.05 16.5 a0.45 0.45 0 1 0 0.9 0 a0.45 0.45 0 1 0 -0.9 0Z M2.05 16.5 a0.45 0.45 0 1 0 0.9 0 a0.45 0.45 0 1 0 -0.9 0Z M5.05 16.5 a0.45 0.45 0 1 0 0.9 0 a0.45 0.45 0 1 0 -0.9 0Z M6.05 16.5 a0.45 0.45 0 1 0 0.9 0 a0.45 0.45 0 1 0 -0.9 0Z M8.05 16.5 a0.45 0.45 0 1 0 0.9 0 a0.45 0.45 0 1 0 -0.9 0Z M9.05 16.5 a0.45 0.45 0 1 0 0.9 0 a0.45 0.45 0 1 0 -0.9 0Z M12.05 16.5 a0.45 0.45 0 1 0 0.9 0 a0.45 0.45 0 1 0 -0.9 0Z M13.05 16.5 a0.45 0.45 0 1 0 0.9 0 a0.45 0.45 0 1 0 -0.9 0Z M29.05 16.5 a0.45 0.45 0 1 0 0.9 0 a0.45 0.45 0 1 0 -0.9 0Z M30.05 16.5 a0.45 0.45 0 1 0 0.9 0 a0.45 0.45 0 1 0 -0.9 0Z M33.05 16.5 a0.45 0.45 0 1 0 0.9 0 a0.45 0.45 0 1 0 -0.9 0Z M37.05 16.5 a0.45 0.45 0 1 0 0.9 0 a0.45 0.45 0 1 0 -0.9 0Z M39.05 16.5 a0.45 0.45 0 1 0 0.9 0 a0.45 0.45 0 1 0 -0.9 0Z M41.05 16.5 a0.45 0.45 0 1 0 0.9 0 a0.45 0.45 0 1 0 -0.9 0Z M0.05 17.5 a0.45 0.45 0 1 0 0.9 0 a0.45 0.45 0 1 0 -0.9 0Z M2.05 17.5 a0.45 0.45 0 1 0 0.9 0 a0.45 0.45 0 1 0 -0.9 0Z M4.05 17.5 a0.45 0.45 0 1 0 0.9 0 a0.45 0.45 0 1 0 -0.9 0Z M8.05 17.5 a0.45 0.45 0 1 0 0.9 0 a0.45 0.45 0 1 0 -0.9 0Z M12.05 17.5 a0.45 0.45 0 1 0 0.9 0 a0.45 0.45 0 1 0 -0.9 0Z M14.05 17.5 a0.45 0.45 0 1 0 0.9 0 a0.45 0.45 0 1 0 -0.9 0Z M15.05 17.5 a0.45 0.45 0 1 0 0.9 0 a0.45 0.45 0 1 0 -0.9 0Z M30.05 17.5 a0.45 0.45 0 1 0 0.9 0 a0.45 0.45 0 1 0 -0.9 0Z M31.05 17.5 a0.45 0.45 0 1 0 0.9 0 a0.45 0.45 0 1 0 -0.9 0Z M36.05 17.5 a0.45 0.45 0 1 0 0.9 0 a0.45 0.45 0 1 0 -0.9 0Z M37.05 17.5 a0.45 0.45 0 1 0 0.9 0 a0.45 0.45 0 1 0 -0.9 0Z M39.05 17.5 a0.45 0.45 0 1 0 0.9 0 a0.45 0.45 0 1 0 -0.9 0Z M41.05 17.5 a0.45 0.45 0 1 0 0.9 0 a0.45 0.45 0 1 0 -0.9 0Z M44.05 17.5 a0.45 0.45 0 1 0 0.9 0 a0.45 0.45 0 1 0 -0.9 0Z M0.05 18.5 a0.45 0.45 0 1 0 0.9 0 a0.45 0.45 0 1 0 -0.9 0Z M4.05 18.5 a0.45 0.45 0 1 0 0.9 0 a0.45 0.45 0 1 0 -0.9 0Z M6.05 18.5 a0.45 0.45 0 1 0 0.9 0 a0.45 0.45 0 1 0 -0.9 0Z M7.05 18.5 a0.45 0.45 0 1 0 0.9 0 a0.45 0.45 0 1 0 -0.9 0Z M12.05 18.5 a0.45 0.45 0 1 0 0.9 0 a0.45 0.45 0 1 0 -0.9 0Z M13.05 18.5 a0.45 0.45 0 1 0 0.9 0 a0.45 0.45 0 1 0 -0.9 0Z M29.05 18.5 a0.45 0.45 0 1 0 0.9 0 a0.45 0.45 0 1 0 -0.9 0Z M30.05 18.5 a0.45 0.45 0 1 0 0.9 0 a0.45 0.45 0 1 0 -0.9 0Z M31.05 18.5 a0.45 0.45 0 1 0 0.9 0 a0.45 0.45 0 1 0 -0.9 0Z M32.05 18.5 a0.45 0.45 0 1 0 0.9 0 a0.45 0.45 0 1 0 -0.9 0Z M35.05 18.5 a0.45 0.45 0 1 0 0.9 0 a0.45 0.45 0 1 0 -0.9 0Z M36.05 18.5 a0.45 0.45 0 1 0 0.9 0 a0.45 0.45 0 1 0 -0.9 0Z
M38.05 18.5 a0.45 0.45 0 1 0 0.9 0 a0.45 0.45 0 1 0 -0.9 0Z M39.05 18.5 a0.45 0.45 0 1 0 0.9 0 a0.45 0.45 0 1 0 -0.9 0Z M40.05 18.5 a0.45 0.45 0 1 0 0.9 0 a0.45 0.45 0 1 0 -0.9 0Z M41.05 18.5 a0.45 0.45 0 1 0 0.9 0 a0.45 0.45 0 1 0 -0.9 0Z M43.05 18.5 a0.45 0.45 0 1 0 0.9 0 a0.45 0.45 0 1 0 -0.9 0Z M3.05 19.5 a0.45 0.45 0 1 0 0.9 0 a0.45 0.45 0 1 0 -0.9 0Z M8.05 19.5 a0.45 0.45 0 1 0 0.9 0 a0.45 0.45 0 1 0 -0.9 0Z M9.05 19.5 a0.45 0.45 0 1 0 0.9 0 a0.45 0.45 0 1 0 -0.9 0Z M10.05 19.5 a0.45 0.45 0 1 0 0.9 0 a0.45 0.45 0 1 0 -0.9 0Z M13.05 19.5 a0.45 0.45 0 1 0 0.9 0 a0.45 0.45 0 1 0 -0.9 0Z M14.05 19.5 a0.45 0.45 0 1 0 0.9 0 a0.45 0.45 0 1 0 -0.9 0Z M29.05 19.5 a0.45 0.45 0 1 0 0.9 0 a0.45 0.45 0 1 0 -0.9 0Z M31.05 19.5 a0.45 0.45 0 1 0 0.9 0 a0.45 0.45 0 1 0 -0.9 0Z M32.05 19.5 a0.45 0.45 0 1 0 0.9 0 a0.45 0.45 0 1 0 -0.9 0Z M34.05 19.5 a0.45 0.45 0 1 0 0.9 0 a0.45 0.45 0 1 0 -0.9 0Z M35.05 19.5 a0.45 0.45 0 1 0 0.9 0 a0.45 0.45 0 1 0 -0.9 0Z M36.05 19.5 a0.45 0.45 0 1 0 0.9 0 a0.45 0.45 0 1 0 -0.9 0Z M37.05 19.5 a0.45 0.45 0 1 0 0.9 0 a0.45 0.45 0 1 0 -0.9 0Z M38.05 19.5 a0.45 0.45 0 1 0 0.9 0 a0.45 0.45 0 1 0 -0.9 0Z M40.05 19.5 a0.45 0.45 0 1 0 0.9 0 a0.45 0.45 0 1 0 -0.9 0Z M41.05 19.5 a0.45 0.45 0 1 0 0.9 0 a0.45 0.45 0 1 0 -0.9 0Z M42.05 19.5 a0.45 0.45 0 1 0 0.9 0 a0.45 0.45 0 1 0 -0.9 0Z M43.05 19.5 a0.45 0.45 0 1 0 0.9 0 a0.45 0.45 0 1 0 -0.9 0Z M4 20 h1 v1 h-1Z M5 20 h1 v1 h-1Z M6 20 h1 v1 h-1Z M7 20 h1 v1 h-1Z M8 20 h1 v1 h-1Z M9.05 20.5 a0.45 0.45 0 1 0 0.9 0 a0.45 0.45 0 1 0 -0.9 0Z M12.05 20.5 a0.45 0.45 0 1 0 0.9 0 a0.45 0.45 0 1 0 -0.9 0Z M13.05 20.5 a0.45 0.45 0 1 0 0.9 0 a0.45 0.45 0 1 0 -0.9 0Z M14.05 20.5 a0.45 0.45 0 1 0 0.9 0 a0.45 0.45 0 1 0 -0.9 0Z M31.05 20.5 a0.45 0.45 0 1 0 0.9 0 a0.45 0.45 0 1 0 -0.9 0Z M33.05 20.5 a0.45 0.45 0 1 0 0.9 0 a0.45 0.45 0 1 0 -0.9 0Z M34.05 20.5 a0.45 0.45 0 1 0 0.9 0 a0.45 0.45 0 1 0 -0.9 0Z M36 20 h1 v1 h-1Z M37 20 h1 v1 h-1Z M38 20 h1 v1 h-1Z M39 20 h1 v1 h-1Z M40 20 h1 v1 h-1Z M41.05 20.5 a0.45 0.45 0 1 0 0.9 0 a0.45 0.45 0 1 0 -0.9 0Z M44.05 20.5 a0.45 0.45 0 1 0 0.9 0 a0.45 0.45 0 1 0 -0.9 0Z M2.05 21.5 a0.45 0.45 0 1 0 0.9 0 a0.45 0.45 0 1 0 -0.9 0Z M3.05 21.5 a0.45 0.45 0 1 0 0.9 0 a0.45 0.45 0 1 0 -0.9 0Z M4 21 h1 v1 h-1Z M8 21 h1 v1 h-1Z M10.05 21.5 a0.45 0.45 0 1 0 0.9 0 a0.45 0.45 0 1 0 -0.9 0Z M14.05 21.5 a0.45 0.45 0 1 0 0.9 0 a0.45 0.45 0 1 0 -0.9 0Z M29.05 21.5 a0.45 0.45 0 1 0 0.9 0 a0.45 0.45 0 1 0 -0.9 0Z M31.05 21.5 a0.45 0.45 0 1 0 0.9 0 a0.45 0.45 0 1 0 -0.9 0Z M32.05 21.5 a0.45 0.45 0 1 0 0.9 0 a0.45 0.45 0 1 0 -0.9 0Z M34.05 21.5 a0.45 0.45 0 1 0 0.9 0 a0.45 0.45 0 1 0 -0.9 0Z M35.05 21.5 a0.45 0.45 0 1 0 0.9 0 a0.45 0.45 0 1 0 -0.9 0Z M36 21 h1 v1 h-1Z M40 21 h1 v1 h-1Z M41.05 21.5 a0.45 0.45 0 1 0 0.9 0 a0.45 0.45 0 1 0 -0.9 0Z M42.05 21.5 a0.45 0.45 0 1 0 0.9 0 a0.45 0.45 0 1 0 -0.9 0Z M44.05 21.5 a0.45 0.45 0 1 0 0.9 0 a0.45 0.45 0 1 0 -0.9 0Z M2.05 22.5 a0.45 0.45 0 1 0 0.9 0 a0.45 0.45 0 1 0 -0.9 0Z M4 22 h1 v1 h-1Z M6 22 h1 v1 h-1Z M8 22 h1 v1 h-1Z M11.05 22.5 a0.45 0.45 0 1 0 0.9 0 a0.45 0.45 0 1 0 -0.9 0Z M12.05 22.5 a0.45 0.45 0 1 0 0.9 0 a0.45 0.45 0 1 0 -0.9 0Z M13.05 22.5 a0.45 0.45 0 1 0 0.9 0 a0.45 0.45 0 1 0 -0.9 0Z M30.05 22.5 a0.45 0.45 0 1 0 0.9 0 a0.45 0.45 0 1 0 -0.9 0Z M31.05 22.5 a0.45 0.45 0 1 0 0.9 0 a0.45 0.45 0 1 0 -0.9 0Z M33.05 22.5 a0.45 0.45 0 1 0 0.9 0 a0.45 0.45 0 1 0 -0.9 0Z M36 22 h1 v1 h-1Z M38 22 h1 v1 h-1Z M40 22 h1 v1 h-1Z M42.05 22.5 a0.45 0.45 0 1 0 0.9 0 a0.45 0.45 0 1 0 -0.9 0Z M43.05 22.5 a0.45 0.45 0 1 0 0.9 0 a0.45 0.45 0 1 0 -0.9 0Z M2.05 23.5 a0.45 0.45 0 1 0 0.9 0 a0.45 0.45 0 1 0 -0.9 0Z M3.05 23.5 a0.45 0.45 0 1 0 0.9 0 a0.45 0.45 0 1 0 -0.9 0Z M4 23 h1 v1 h-1Z M8 23 h1 v1 h-1Z M10.05 23.5 a0.45 0.45 0 1 0 0.9 0 a0.45 0.45 0 1 0 -0.9 0Z M12.05 23.5 a0.45 0.45 0 1 0 0.9 0 a0.45 0.45 0 1 0 -0.9 0Z M14.05 23.5 a0.45 0.45 0 1 0 0.9 0 a0.45 0.45 0 1 0 -0.9 0Z M15.05 23.5 a0.45 0.45 0 1 0 0.9 0 a0.45 0.45 0 1 0 -0.9 0Z M30.05 23.5 a0.45 0.45 0 1 0 0.9 0 a0.45 0.45 0 1 0 -0.9 0Z M31.05 23.5 a0.45 0.45 0 1 0 0.9 0 a0.45 0.45 0 1 0 -0.9 0Z M33.05 23.5 a0.45 0.45 0 1 0 0.9 0 a0.45 0.45 0 1 0 -0.9 0Z M36 23 h1 v1 h-1Z M40 23 h1 v1 h-1Z M41.05 23.5 a0.45 0.45 0 1 0 0.9 0 a0.45 0.45 0 1 0 -0.9 0Z M42.05 23.5 a0.45 0.45 0 1 0 0.9 0 a0.45 0.45 0 1 0 -0.9 0Z M43.05 23.5 a0.45 0.45 0 1 0 0.9 0 a0.45 0.45 0 1 0 -0.9 0Z M44.05 23.5 a0.45 0.45 0 1 0 0.9 0 a0.45 0.45 0 1 0 -0.9 0Z M1.05 24.5 a0.45 0.45 0 1 0 0.9 0 a0.45 0.45 0 1 0 -0.9 0Z M2.05 24.5 a0.45 0.45 0 1 0 0.9 0 a0.45 0.45 0 1 0 -0.9 0Z M3.05 24.5 a0.45 0.45 0 1 0 0.9 0 a0.45 0.45 0 1 0 -0.9 0Z M4 24 h1 v1 h-1Z M5 24 h1 v1 h-1Z M6 24 h1 v1 h-1Z M7 24 h1 v1 h-1Z M8 24 h1 v1 h-1Z M10.05 24.5 a0.45 0.45 0 1 0 0.9 0 a0.45 0.45 0 1 0 -0.9 0Z M36 24 h1 v1 h-1Z
M37 24 h1 v1 h-1Z M38 24 h1 v1 h-1Z M39 24 h1 v1 h-1Z M40 24 h1 v1 h-1Z M44.05 24.5 a0.45 0.45 0 1 0 0.9 0 a0.45 0.45 0 1 0 -0.9 0Z M4.05 25.5 a0.45 0.45 0 1 0 0.9 0 a0.45 0.45 0 1 0 -0.9 0Z M5.05 25.5 a0.45 0.45 0 1 0 0.9 0 a0.45 0.45 0 1 0 -0.9 0Z M8.05 25.5 a0.45 0.45 0 1 0 0.9 0 a0.45 0.45 0 1 0 -0.9 0Z M9.05 25.5 a0.45 0.45 0 1 0 0.9 0 a0.45 0.45 0 1 0 -0.9 0Z M10.05 25.5 a0.45 0.45 0 1 0 0.9 0 a0.45 0.45 0 1 0 -0.9 0Z M11.05 25.5 a0.45 0.45 0 1 0 0.9 0 a0.45 0.45 0 1 0 -0.9 0Z M13.05 25.5 a0.45 0.45 0 1 0 0.9 0 a0.45 0.45 0 1 0 -0.9 0Z M15.05 25.5 a0.45 0.45 0 1 0 0.9 0 a0.45 0.45 0 1 0 -0.9 0Z M29.05 25.5 a0.45 0.45 0 1 0 0.9 0 a0.45 0.45 0 1 0 -0.9 0Z M31.05 25.5 a0.45 0.45 0 1 0 0.9 0 a0.45 0.45 0 1 0 -0.9 0Z M33.05 25.5 a0.45 0.45 0 1 0 0.9 0 a0.45 0.45 0 1 0 -0.9 0Z M35.05 25.5 a0.45 0.45 0 1 0 0.9 0 a0.45 0.45 0 1 0 -0.9 0Z M36.05 25.5 a0.45 0.45 0 1 0 0.9 0 a0.45 0.45 0 1 0 -0.9 0Z M37.05 25.5 a0.45 0.45 0 1 0 0.9 0 a0.45 0.45 0 1 0 -0.9 0Z M38.05 25.5 a0.45 0.45 0 1 0 0.9 0 a0.45 0.45 0 1 0 -0.9 0Z M41.05 25.5 a0.45 0.45 0 1 0 0.9 0 a0.45 0.45 0 1 0 -0.9 0Z M42.05 25.5 a0.45 0.45 0 1 0 0.9 0 a0.45 0.45 0 1 0 -0.9 0Z M43.05 25.5 a0.45 0.45 0 1 0 0.9 0 a0.45 0.45 0 1 0 -0.9 0Z M0.05 26.5 a0.45 0.45 0 1 0 0.9 0 a0.45 0.45 0 1 0 -0.9 0Z M1.05 26.5 a0.45 0.45 0 1 0 0.9 0 a0.45 0.45 0 1 0 -0.9 0Z M3.05 26.5 a0.45 0.45 0 1 0 0.9 0 a0.45 0.45 0 1 0 -0.9 0Z M4.05 26.5 a0.45 0.45 0 1 0 0.9 0 a0.45 0.45 0 1 0 -0.9 0Z M5.05 26.5 a0.45 0.45 0 1 0 0.9 0 a0.45 0.45 0 1 0 -0.9 0Z M6.05 26.5 a0.45 0.45 0 1 0 0.9 0 a0.45 0.45 0 1 0 -0.9 0Z M10.05 26.5 a0.45 0.45 0 1 0 0.9 0 a0.45 0.45 0 1 0 -0.9 0Z M12.05 26.5 a0.45 0.45 0 1 0 0.9 0 a0.45 0.45 0 1 0 -0.9 0Z M14.05 26.5 a0.45 0.45 0 1 0 0.9 0 a0.45 0.45 0 1 0 -0.9 0Z M30.05 26.5 a0.45 0.45 0 1 0 0.9 0 a0.45 0.45 0 1 0 -0.9 0Z M35.05 26.5 a0.45 0.45 0 1 0 0.9 0 a0.45 0.45 0 1 0 -0.9 0Z M37.05 26.5 a0.45 0.45 0 1 0 0.9 0 a0.45 0.45 0 1 0 -0.9 0Z M39.05 26.5 a0.45 0.45 0 1 0 0.9 0 a0.45 0.45 0 1 0 -0.9 0Z M41.05 26.5 a0.45 0.45 0 1 0 0.9 0 a0.45 0.45 0 1 0 -0.9 0Z M0.05 27.5 a0.45 0.45 0 1 0 0.9 0 a0.45 0.45 0 1 0 -0.9 0Z M1.05 27.5 a0.45 0.45 0 1 0 0.9 0 a0.45 0.45 0 1 0 -0.9 0Z M2.05 27.5 a0.45 0.45 0 1 0 0.9 0 a0.45 0.45 0 1 0 -0.9 0Z M4.05 27.5 a0.45 0.45 0 1 0 0.9 0 a0.45 0.45 0 1 0 -0.9 0Z M8.05 27.5 a0.45 0.45 0 1 0 0.9 0 a0.45 0.45 0 1 0 -0.9 0Z M10.05 27.5 a0.45 0.45 0 1 0 0.9 0 a0.45 0.45 0 1 0 -0.9 0Z M14.05 27.5 a0.45 0.45 0 1 0 0.9 0 a0.45 0.45 0 1 0 -0.9 0Z M30.05 27.5 a0.45 0.45 0 1 0 0.9 0 a0.45 0.45 0 1 0 -0.9 0Z M34.05 27.5 a0.45 0.45 0 1 0 0.9 0 a0.45 0.45 0 1 0 -0.9 0Z M36.05 27.5 a0.45 0.45 0 1 0 0.9 0 a0.45 0.45 0 1 0 -0.9 0Z M37.05 27.5 a0.45 0.45 0 1 0 0.9 0 a0.45 0.45 0 1 0 -0.9 0Z M38.05 27.5 a0.45 0.45 0 1 0 0.9 0 a0.45 0.45 0 1 0 -0.9 0Z M41.05 27.5 a0.45 0.45 0 1 0 0.9 0 a0.45 0.45 0 1 0 -0.9 0Z M42.05 27.5 a0.45 0.45 0 1 0 0.9 0 a0.45 0.45 0 1 0 -0.9 0Z M43.05 27.5 a0.45 0.45 0 1 0 0.9 0 a0.45 0.45 0 1 0 -0.9 0Z M3.05 28.5 a0.45 0.45 0 1 0 0.9 0 a0.45 0.45 0 1 0 -0.9 0Z M6.05 28.5 a0.45 0.45 0 1 0 0.9 0 a0.45 0.45 0 1 0 -0.9 0Z M7.05 28.5 a0.45 0.45 0 1 0 0.9 0 a0.45 0.45 0 1 0 -0.9 0Z M8.05 28.5 a0.45 0.45 0 1 0 0.9 0 a0.45 0.45 0 1 0 -0.9 0Z M10.05 28.5 a0.45 0.45 0 1 0 0.9 0 a0.45 0.45 0 1 0 -0.9 0Z M11.05 28.5 a0.45 0.45 0 1 0 0.9 0 a0.45 0.45 0 1 0 -0.9 0Z M12.05 28.5 a0.45 0.45 0 1 0 0.9 0 a0.45 0.45 0 1 0 -0.9 0Z M13.05 28.5 a0.45 0.45 0 1 0 0.9 0 a0.45 0.45 0 1 0 -0.9 0Z M15.05 28.5 a0.45 0.45 0 1 0 0.9 0 a0.45 0.45 0 1 0 -0.9 0Z M31.05 28.5 a0.45 0.45 0 1 0 0.9 0 a0.45 0.45 0 1 0 -0.9 0Z M32.05 28.5 a0.45 0.45 0 1 0 0.9 0 a0.45 0.45 0 1 0 -0.9 0Z M34.05 28.5 a0.45 0.45 0 1 0 0.9 0 a0.45 0.45 0 1 0 -0.9 0Z M40.05 28.5 a0.45 0.45 0 1 0 0.9 0 a0.45 0.45 0 1 0 -0.9 0Z M41.05 28.5 a0.45 0.45 0 1 0 0.9 0 a0.45 0.45 0 1 0 -0.9 0Z M42.05 28.5 a0.45 0.45 0 1 0 0.9 0 a0.45 0.45 0 1 0 -0.9 0Z M0.05 29.5 a0.45 0.45 0 1 0 0.9 0 a0.45 0.45 0 1 0 -0.9 0Z M5.05 29.5 a0.45 0.45 0 1 0 0.9 0 a0.45 0.45 0 1 0 -0.9 0Z M7.05 29.5 a0.45 0.45 0 1 0 0.9 0 a0.45 0.45 0 1 0 -0.9 0Z M10.05 29.5 a0.45 0.45 0 1 0 0.9 0 a0.45 0.45 0 1 0 -0.9 0Z M12.05 29.5 a0.45 0.45 0 1 0 0.9 0 a0.45 0.45 0 1 0 -0.9 0Z M13.05 29.5 a0.45 0.45 0 1 0 0.9 0 a0.45 0.45 0 1 0 -0.9 0Z M14.05 29.5 a0.45 0.45 0 1 0 0.9 0 a0.45 0.45 0 1 0 -0.9 0Z M16.05 29.5 a0.45 0.45 0 1 0 0.9 0 a0.45 0.45 0 1 0 -0.9 0Z M18.05 29.5 a0.45 0.45 0 1 0 0.9 0 a0.45 0.45 0 1 0 -0.9 0Z M19.05 29.5 a0.45 0.45 0 1 0 0.9 0 a0.45 0.45 0 1 0 -0.9 0Z M20.05 29.5 a0.45 0.45 0 1 0 0.9 0 a0.45 0.45 0 1 0 -0.9 0Z M21.05 29.5 a0.45 0.45 0 1 0 0.9 0 a0.45 0.45 0 1 0 -0.9 0Z M24.05 29.5 a0.45 0.45 0 1 0 0.9 0 a0.45 0.45 0 1 0 -0.9 0Z M26.05 29.5 a0.45 0.45 0 1 0 0.9 0 a0.45 0.45 0 1 0 -0.9 0Z M28.05 29.5 a0.45 0.45 0 1 0 0.9 0 a0.45 0.45 0 1 0 -0.9 0Z M32.05 29.5 a0.45 0.45 0 1 0 0.9 0 a0.45 0.45 0 1 0 -0.9 0Z M36.05 29.5 a0.45 0.45 0 1 0 0.9 0 a0.45 0.45 0 1 0 -0.9 0Z M37.05 29.5 a0.45 0.45 0 1 0 0.9 0 a0.45 0.45 0 1 0 -0.9 0Z M42.05 29.5 a0.45 0.45 0 1 0 0.9 0 a0.45 0.45 0 1 0 -0.9 0Z M43.05 29.5 a0.45 0.45 0 1 0 0.9 0 a0.45 0.45 0 1 0 -0.9 0Z M0.05 30.5 a0.45 0.45 0 1 0 0.9 0 a0.45 0.45 0 1 0 -0.9 0Z M5.05 30.5 a0.45 0.45 0 1 0 0.9 0 a0.45 0.45 0 1 0 -0.9 0Z M6.05 30.5 a0.45 0.45 0 1 0 0.9 0 a0.45 0.45 0 1 0 -0.9 0Z M7.05 30.5 a0.45 0.45 0 1 0 0.9 0 a0.45 0.45 0 1 0 -0.9 0Z M8.05 30.5 a0.45 0.45 0 1 0 0.9 0 a0.45 0.45 0 1 0 -0.9 0Z M9.05 30.5 a0.45 0.45 0 1 0 0.9 0 a0.45 0.45 0 1 0 -0.9 0Z M10.05 30.5 a0.45 0.45 0 1 0 0.9 0 a0.45 0.45 0 1 0 -0.9 0Z M12.05 30.5 a0.45 0.45 0 1 0 0.9 0 a0.45 0.45 0 1 0 -0.9 0Z M14.05 30.5 a0.45 0.45 0 1 0 0.9 0 a0.45 0.45 0 1 0 -0.9 0Z M17.05 30.5 a0.45 0.45 0 1 0 0.9 0 a0.45 0.45 0 1 0 -0.9 0Z M18.05 30.5 a0.45 0.45 0 1 0 0.9 0 a0.45 0.45 0 1 0 -0.9 0Z M21.05 30.5 a0.45 0.45 0 1 0 0.9 0 a0.45 0.45 0 1 0 -0.9 0Z M23.05 30.5 a0.45 0.45 0 1 0 0.9 0 a0.45 0.45 0 1 0 -0.9 0Z
M25.05 30.5 a0.45 0.45 0 1 0 0.9 0 a0.45 0.45 0 1 0 -0.9 0Z M26.05 30.5 a0.45 0.45 0 1 0 0.9 0 a0.45 0.45 0 1 0 -0.9 0Z M27.05 30.5 a0.45 0.45 0 1 0 0.9 0 a0.45 0.45 0 1 0 -0.9 0Z M29.05 30.5 a0.45 0.45 0 1 0 0.9 0 a0.45 0.45 0 1 0 -0.9 0Z M30.05 30.5 a0.45 0.45 0 1 0 0.9 0 a0.45 0.45 0 1 0 -0.9 0Z M31.05 30.5 a0.45 0.45 0 1 0 0.9 0 a0.45 0.45 0 1 0 -0.9 0Z M32.05 30.5 a0.45 0.45 0 1 0 0.9 0 a0.45 0.45 0 1 0 -0.9 0Z M34.05 30.5 a0.45 0.45 0 1 0 0.9 0 a0.45 0.45 0 1 0 -0.9 0Z M36.05 30.5 a0.45 0.45 0 1 0 0.9 0 a0.45 0.45 0 1 0 -0.9 0Z M39.05 30.5 a0.45 0.45 0 1 0 0.9 0 a0.45 0.45 0 1 0 -0.9 0Z M41.05 30.5 a0.45 0.45 0 1 0 0.9 0 a0.45 0.45 0 1 0 -0.9 0Z M42.05 30.5 a0.45 0.45 0 1 0 0.9 0 a0.45 0.45 0 1 0 -0.9 0Z M43.05 30.5 a0.45 0.45 0 1 0 0.9 0 a0.45 0.45 0 1 0 -0.9 0Z M0.05 31.5 a0.45 0.45 0 1 0 0.9 0 a0.45 0.45 0 1 0 -0.9 0Z M7.05 31.5 a0.45 0.45 0 1 0 0.9 0 a0.45 0.45 0 1 0 -0.9 0Z M8.05 31.5 a0.45 0.45 0 1 0 0.9 0 a0.45 0.45 0 1 0 -0.9 0Z M10.05 31.5 a0.45 0.45 0 1 0 0.9 0 a0.45 0.45 0 1 0 -0.9 0Z M14.05 31.5 a0.45 0.45 0 1 0 0.9 0 a0.45 0.45 0 1 0 -0.9 0Z M15.05 31.5 a0.45 0.45 0 1 0 0.9 0 a0.45 0.45 0 1 0 -0.9 0Z M21.05 31.5 a0.45 0.45 0 1 0 0.9 0 a0.45 0.45 0 1 0 -0.9 0Z M22.05 31.5 a0.45 0.45 0 1 0 0.9 0 a0.45 0.45 0 1 0 -0.9 0Z M23.05 31.5 a0.45 0.45 0 1 0 0.9 0 a0.45 0.45 0 1 0 -0.9 0Z M28.05 31.5 a0.45 0.45 0 1 0 0.9 0 a0.45 0.45 0 1 0 -0.9 0Z M29.05 31.5 a0.45 0.45 0 1 0 0.9 0 a0.45 0.45 0 1 0 -0.9 0Z M30.05 31.5 a0.45 0.45 0 1 0 0.9 0 a0.45 0.45 0 1 0 -0.9 0Z M31.05 31.5 a0.45 0.45 0 1 0 0.9 0 a0.45 0.45 0 1 0 -0.9 0Z M32.05 31.5 a0.45 0.45 0 1 0 0.9 0 a0.45 0.45 0 1 0 -0.9 0Z M33.05 31.5 a0.45 0.45 0 1 0 0.9 0 a0.45 0.45 0 1 0 -0.9 0Z M42.05 31.5 a0.45 0.45 0 1 0 0.9 0 a0.45 0.45 0 1 0 -0.9 0Z M43.05 31.5 a0.45 0.45 0 1 0 0.9 0 a0.45 0.45 0 1 0 -0.9 0Z M0.05 32.5 a0.45 0.45 0 1 0 0.9 0 a0.45 0.45 0 1 0 -0.9 0Z M2.05 32.5 a0.45 0.45 0 1 0 0.9 0 a0.45 0.45 0 1 0 -0.9 0Z M3.05 32.5 a0.45 0.45 0 1 0 0.9 0 a0.45 0.45 0 1 0 -0.9 0Z M4.05 32.5 a0.45 0.45 0 1 0 0.9 0 a0.45 0.45 0 1 0 -0.9 0Z M5.05 32.5 a0.45 0.45 0 1 0 0.9 0 a0.45 0.45 0 1 0 -0.9 0Z M6.05 32.5 a0.45 0.45 0 1 0 0.9 0 a0.45 0.45 0 1 0 -0.9 0Z M9.05 32.5 a0.45 0.45 0 1 0 0.9 0 a0.45 0.45 0 1 0 -0.9 0Z M11.05 32.5 a0.45 0.45 0 1 0 0.9 0 a0.45 0.45 0 1 0 -0.9 0Z M12.05 32.5 a0.45 0.45 0 1 0 0.9 0 a0.45 0.45 0 1 0 -0.9 0Z M15.05 32.5 a0.45 0.45 0 1 0 0.9 0 a0.45 0.45 0 1 0 -0.9 0Z M16.05 32.5 a0.45 0.45 0 1 0 0.9 0 a0.45 0.45 0 1 0 -0.9 0Z M17.05 32.5 a0.45 0.45 0 1 0 0.9 0 a0.45 0.45 0 1 0 -0.9 0Z M20.05 32.5 a0.45 0.45 0 1 0 0.9 0 a0.45 0.45 0 1 0 -0.9 0Z M21.05 32.5 a0.45 0.45 0 1 0 0.9 0 a0.45 0.45 0 1 0 -0.9 0Z M22.05 32.5 a0.45 0.45 0 1 0 0.9 0 a0.45 0.45 0 1 0 -0.9 0Z M25.05 32.5 a0.45 0.45 0 1 0 0.9 0 a0.45 0.45 0 1 0 -0.9 0Z M27.05 32.5 a0.45 0.45 0 1 0 0.9 0 a0.45 0.45 0 1 0 -0.9 0Z M29.05 32.5 a0.45 0.45 0 1 0 0.9 0 a0.45 0.45 0 1 0 -0.9 0Z M34.05 32.5 a0.45 0.45 0 1 0 0.9 0 a0.45 0.45 0 1 0 -0.9 0Z M35.05 32.5 a0.45 0.45 0 1 0 0.9 0 a0.45 0.45 0 1 0 -0.9 0Z M36.05 32.5 a0.45 0.45 0 1 0 0.9 0 a0.45 0.45 0 1 0 -0.9 0Z M37.05 32.5 a0.45 0.45 0 1 0 0.9 0 a0.45 0.45 0 1 0 -0.9 0Z M38.05 32.5 a0.45 0.45 0 1 0 0.9 0 a0.45 0.45 0 1 0 -0.9 0Z M39.05 32.5 a0.45 0.45 0 1 0 0.9 0 a0.45 0.45 0 1 0 -0.9 0Z M41.05 32.5 a0.45 0.45 0 1 0 0.9 0 a0.45 0.45 0 1 0 -0.9 0Z M42.05 32.5 a0.45 0.45 0 1 0 0.9 0 a0.45 0.45 0 1 0 -0.9 0Z M44.05 32.5 a0.45 0.45 0 1 0 0.9 0 a0.45 0.45 0 1 0 -0.9 0Z M1.05 33.5 a0.45 0.45 0 1 0 0.9 0 a0.45 0.45 0 1 0 -0.9 0Z M4.05 33.5 a0.45 0.45 0 1 0 0.9 0 a0.45 0.45 0 1 0 -0.9 0Z M8.05 33.5 a0.45 0.45 0 1 0 0.9 0 a0.45 0.45 0 1 0 -0.9 0Z M14.05 33.5 a0.45 0.45 0 1 0 0.9 0 a0.45 0.45 0 1 0 -0.9 0Z M16.05 33.5 a0.45 0.45 0 1 0 0.9 0 a0.45 0.45 0 1 0 -0.9 0Z M21.05 33.5 a0.45 0.45 0 1 0 0.9 0 a0.45 0.45 0 1 0 -0.9 0Z M23.05 33.5 a0.45 0.45 0 1 0 0.9 0 a0.45 0.45 0 1 0 -0.9 0Z M28.05 33.5 a0.45 0.45 0 1 0 0.9 0 a0.45 0.45 0 1 0 -0.9 0Z M30.05 33.5 a0.45 0.45 0 1 0 0.9 0 a0.45 0.45 0 1 0 -0.9 0Z M31.05 33.5 a0.45 0.45 0 1 0 0.9 0 a0.45 0.45 0 1 0 -0.9 0Z M32.05 33.5 a0.45 0.45 0 1 0 0.9 0 a0.45 0.45 0 1 0 -0.9 0Z M35.05 33.5 a0.45 0.45 0 1 0 0.9 0 a0.45 0.45 0 1 0 -0.9 0Z M38.05 33.5 a0.45 0.45 0 1 0 0.9 0 a0.45 0.45 0 1 0 -0.9 0Z M40.05 33.5 a0.45 0.45 0 1 0 0.9 0 a0.45 0.45 0 1 0 -0.9 0Z M41.05 33.5 a0.45 0.45 0 1 0 0.9 0 a0.45 0.45 0 1 0 -0.9 0Z M42.05 33.5 a0.45 0.45 0 1 0 0.9 0 a0.45 0.45 0 1 0 -0.9 0Z M44.05 33.5 a0.45 0.45 0 1 0 0.9 0 a0.45 0.45 0 1 0 -0.9 0Z M4.05 34.5 a0.45 0.45 0 1 0 0.9 0 a0.45 0.45 0 1 0 -0.9 0Z M6.05 34.5 a0.45 0.45 0 1 0 0.9 0 a0.45 0.45 0 1 0 -0.9 0Z M8.05 34.5 a0.45 0.45 0 1 0 0.9 0 a0.45 0.45 0 1 0 -0.9 0Z M9.05 34.5 a0.45 0.45 0 1 0 0.9 0 a0.45 0.45 0 1 0 -0.9 0Z M10.05 34.5 a0.45 0.45 0 1 0 0.9 0 a0.45 0.45 0 1 0 -0.9 0Z M13.05 34.5 a0.45 0.45 0 1 0 0.9 0 a0.45 0.45 0 1 0 -0.9 0Z M14.05 34.5 a0.45 0.45 0 1 0 0.9 0 a0.45 0.45 0 1 0 -0.9 0Z M18.05 34.5 a0.45 0.45 0 1 0 0.9 0 a0.45 0.45 0 1 0 -0.9 0Z M20.05 34.5 a0.45 0.45 0 1 0 0.9 0 a0.45 0.45 0 1 0 -0.9 0Z M21.05 34.5 a0.45 0.45 0 1 0 0.9 0 a0.45 0.45 0 1 0 -0.9 0Z M26.05 34.5 a0.45 0.45 0 1 0 0.9 0 a0.45 0.45 0 1 0 -0.9 0Z M28.05 34.5 a0.45 0.45 0 1 0 0.9 0 a0.45 0.45 0 1 0 -0.9 0Z M30.05 34.5 a0.45 0.45 0 1 0 0.9 0 a0.45 0.45 0 1 0 -0.9 0Z M31.05 34.5 a0.45 0.45 0 1 0 0.9 0 a0.45 0.45 0 1 0 -0.9 0Z M33.05 34.5 a0.45 0.45 0 1 0 0.9 0 a0.45 0.45 0 1 0 -0.9 0Z M34.05 34.5 a0.45 0.45 0 1 0 0.9 0 a0.45 0.45 0 1 0 -0.9 0Z M35.05 34.5 a0.45 0.45 0 1 0 0.9 0 a0.45 0.45 0 1 0 -0.9 0Z M37.05 34.5 a0.45 0.45 0 1 0 0.9 0 a0.45 0.45 0 1 0 -0.9 0Z M38.05 34.5 a0.45 0.45 0 1 0 0.9 0 a0.45 0.45 0 1 0 -0.9 0Z M39.05 34.5 a0.45 0.45 0 1 0 0.9 0 a0.45 0.45 0 1 0 -0.9 0Z M40.05 34.5 a0.45 0.45 0 1 0 0.9 0 a0.45 0.45 0 1 0 -0.9 0Z M42.05 34.5 a0.45 0.45 0 1 0 0.9 0 a0.45 0.45 0 1 0 -0.9 0Z M43.05 34.5 a0.45 0.45 0 1 0 0.9 0 a0.45 0.45 0 1 0 -0.9 0Z M1.05 35.5 a0.45 0.45 0 1 0 0.9 0 a0.45 0.45 0 1 0 -0.9 0Z M2.05 35.5 a0.45 0.45 0 1 0 0.9 0 a0.45 0.45 0 1 0 -0.9 0Z M3.05 35.5 a0.45 0.45 0 1 0 0.9 0 a0.45 0.45 0 1 0 -0.9 0Z
M4.05 35.5 a0.45 0.45 0 1 0 0.9 0 a0.45 0.45 0 1 0 -0.9 0Z M7.05 35.5 a0.45 0.45 0 1 0 0.9 0 a0.45 0.45 0 1 0 -0.9 0Z M13.05 35.5 a0.45 0.45 0 1 0 0.9 0 a0.45 0.45 0 1 0 -0.9 0Z M14.05 35.5 a0.45 0.45 0 1 0 0.9 0 a0.45 0.45 0 1 0 -0.9 0Z M15.05 35.5 a0.45 0.45 0 1 0 0.9 0 a0.45 0.45 0 1 0 -0.9 0Z M16.05 35.5 a0.45 0.45 0 1 0 0.9 0 a0.45 0.45 0 1 0 -0.9 0Z M17.05 35.5 a0.45 0.45 0 1 0 0.9 0 a0.45 0.45 0 1 0 -0.9 0Z M18.05 35.5 a0.45 0.45 0 1 0 0.9 0 a0.45 0.45 0 1 0 -0.9 0Z M21.05 35.5 a0.45 0.45 0 1 0 0.9 0 a0.45 0.45 0 1 0 -0.9 0Z M22.05 35.5 a0.45 0.45 0 1 0 0.9 0 a0.45 0.45 0 1 0 -0.9 0Z M23.05 35.5 a0.45 0.45 0 1 0 0.9 0 a0.45 0.45 0 1 0 -0.9 0Z M24.05 35.5 a0.45 0.45 0 1 0 0.9 0 a0.45 0.45 0 1 0 -0.9 0Z M25.05 35.5 a0.45 0.45 0 1 0 0.9 0 a0.45 0.45 0 1 0 -0.9 0Z M27.05 35.5 a0.45 0.45 0 1 0 0.9 0 a0.45 0.45 0 1 0 -0.9 0Z M29.05 35.5 a0.45 0.45 0 1 0 0.9 0 a0.45 0.45 0 1 0 -0.9 0Z M32.05 35.5 a0.45 0.45 0 1 0 0.9 0 a0.45 0.45 0 1 0 -0.9 0Z M33.05 35.5 a0.45 0.45 0 1 0 0.9 0 a0.45 0.45 0 1 0 -0.9 0Z M35.05 35.5 a0.45 0.45 0 1 0 0.9 0 a0.45 0.45 0 1 0 -0.9 0Z M36.05 35.5 a0.45 0.45 0 1 0 0.9 0 a0.45 0.45 0 1 0 -0.9 0Z M40.05 35.5 a0.45 0.45 0 1 0 0.9 0 a0.45 0.45 0 1 0 -0.9 0Z M41.05 35.5 a0.45 0.45 0 1 0 0.9 0 a0.45 0.45 0 1 0 -0.9 0Z M42.05 35.5 a0.45 0.45 0 1 0 0.9 0 a0.45 0.45 0 1 0 -0.9 0Z M43.05 35.5 a0.45 0.45 0 1 0 0.9 0 a0.45 0.45 0 1 0 -0.9 0Z M44.05 35.5 a0.45 0.45 0 1 0 0.9 0 a0.45 0.45 0 1 0 -0.9 0Z M0.05 36.5 a0.45 0.45 0 1 0 0.9 0 a0.45 0.45 0 1 0 -0.9 0Z M3.05 36.5 a0.45 0.45 0 1 0 0.9 0 a0.45 0.45 0 1 0 -0.9 0Z M4.05 36.5 a0.45 0.45 0 1 0 0.9 0 a0.45 0.45 0 1 0 -0.9 0Z M6.05 36.5 a0.45 0.45 0 1 0 0.9 0 a0.45 0.45 0 1 0 -0.9 0Z M9.05 36.5 a0.45 0.45 0 1 0 0.9 0 a0.45 0.45 0 1 0 -0.9 0Z M10.05 36.5 a0.45 0.45 0 1 0 0.9 0 a0.45 0.45 0 1 0 -0.9 0Z M11.05 36.5 a0.45 0.45 0 1 0 0.9 0 a0.45 0.45 0 1 0 -0.9 0Z M12.05 36.5 a0.45 0.45 0 1 0 0.9 0 a0.45 0.45 0 1 0 -0.9 0Z M13.05 36.5 a0.45 0.45 0 1 0 0.9 0 a0.45 0.45 0 1 0 -0.9 0Z M16.05 36.5 a0.45 0.45 0 1 0 0.9 0 a0.45 0.45 0 1 0 -0.9 0Z M17.05 36.5 a0.45 0.45 0 1 0 0.9 0 a0.45 0.45 0 1 0 -0.9 0Z M19.05 36.5 a0.45 0.45 0 1 0 0.9 0 a0.45 0.45 0 1 0 -0.9 0Z M20 36 h1 v1 h-1Z M21 36 h1 v1 h-1Z M22 36 h1 v1 h-1Z M23 36 h1 v1 h-1Z M24 36 h1 v1 h-1Z M28.05 36.5 a0.45 0.45 0 1 0 0.9 0 a0.45 0.45 0 1 0 -0.9 0Z M29.05 36.5 a0.45 0.45 0 1 0 0.9 0 a0.45 0.45 0 1 0 -0.9 0Z M31.05 36.5 a0.45 0.45 0 1 0 0.9 0 a0.45 0.45 0 1 0 -0.9 0Z M36 36 h1 v1 h-1Z M37 36 h1 v1 h-1Z M38 36 h1 v1 h-1Z M39 36 h1 v1 h-1Z M40 36 h1 v1 h-1Z M41.05 36.5 a0.45 0.45 0 1 0 0.9 0 a0.45 0.45 0 1 0 -0.9 0Z M43.05 36.5 a0.45 0.45 0 1 0 0.9 0 a0.45 0.45 0 1 0 -0.9 0Z M8.05 37.5 a0.45 0.45 0 1 0 0.9 0 a0.45 0.45 0 1 0 -0.9 0Z M14.05 37.5 a0.45 0.45 0 1 0 0.9 0 a0.45 0.45 0 1 0 -0.9 0Z M15.05 37.5 a0.45 0.45 0 1 0 0.9 0 a0.45 0.45 0 1 0 -0.9 0Z M16.05 37.5 a0.45 0.45 0 1 0 0.9 0 a0.45 0.45 0 1 0 -0.9 0Z M17.05 37.5 a0.45 0.45 0 1 0 0.9 0 a0.45 0.45 0 1 0 -0.9 0Z M18.05 37.5 a0.45 0.45 0 1 0 0.9 0 a0.45 0.45 0 1 0 -0.9 0Z M20 37 h1 v1 h-1Z M24 37 h1 v1 h-1Z M26.05 37.5 a0.45 0.45 0 1 0 0.9 0 a0.45 0.45 0 1 0 -0.9 0Z M27.05 37.5 a0.45 0.45 0 1 0 0.9 0 a0.45 0.45 0 1 0 -0.9 0Z M28.05 37.5 a0.45 0.45 0 1 0 0.9 0 a0.45 0.45 0 1 0 -0.9 0Z M30.05 37.5 a0.45 0.45 0 1 0 0.9 0 a0.45 0.45 0 1 0 -0.9 0Z M31.05 37.5 a0.45 0.45 0 1 0 0.9 0 a0.45 0.45 0 1 0 -0.9 0Z M32.05 37.5 a0.45 0.45 0 1 0 0.9 0 a0.45 0.45 0 1 0 -0.9 0Z M36 37 h1 v1 h-1Z M40 37 h1 v1 h-1Z M41.05 37.5 a0.45 0.45 0 1 0 0.9 0 a0.45 0.45 0 1 0 -0.9 0Z M42.05 37.5 a0.45 0.45 0 1 0 0.9 0 a0.45 0.45 0 1 0 -0.9 0Z M43.05 37.5 a0.45 0.45 0 1 0 0.9 0 a0.45 0.45 0 1 0 -0.9 0Z M44.05 37.5 a0.45 0.45 0 1 0 0.9 0 a0.45 0.45 0 1 0 -0.9 0Z M0 38 h1 v1 h-1Z M1 38 h1 v1 h-1Z M2 38 h1 v1 h-1Z M3 38 h1 v1 h-1Z M4 38 h1 v1 h-1Z M5 38 h1 v1 h-1Z M6 38 h1 v1 h-1Z M10.05 38.5 a0.45 0.45 0 1 0 0.9 0 a0.45 0.45 0 1 0 -0.9 0Z M12.05 38.5 a0.45 0.45 0 1 0 0.9 0 a0.45 0.45 0 1 0 -0.9 0Z M13.05 38.5 a0.45 0.45 0 1 0 0.9 0 a0.45 0.45 0 1 0 -0.9 0Z M16.05 38.5 a0.45 0.45 0 1 0 0.9 0 a0.45 0.45 0 1 0 -0.9 0Z M18.05 38.5 a0.45 0.45 0 1 0 0.9 0 a0.45 0.45 0 1 0 -0.9 0Z M20 38 h1 v1 h-1Z M22 38 h1 v1 h-1Z M24 38 h1 v1 h-1Z M27.05 38.5 a0.45 0.45 0 1 0 0.9 0 a0.45 0.45 0 1 0 -0.9 0Z M30.05 38.5 a0.45 0.45 0 1 0 0.9 0 a0.45 0.45 0 1 0 -0.9 0Z M31.05 38.5 a0.45 0.45 0 1 0 0.9 0 a0.45 0.45 0 1 0 -0.9 0Z M32.05 38.5 a0.45 0.45 0 1 0 0.9 0 a0.45 0.45 0 1 0 -0.9 0Z M34.05 38.5 a0.45 0.45 0 1 0 0.9 0 a0.45 0.45 0 1 0 -0.9 0Z M35.05 38.5 a0.45 0.45 0 1 0 0.9 0 a0.45 0.45 0 1 0 -0.9 0Z M36 38 h1 v1 h-1Z M38 38 h1 v1 h-1Z M40 38 h1 v1 h-1Z M41.05 38.5 a0.45 0.45 0 1 0 0.9 0 a0.45 0.45 0 1 0 -0.9 0Z M42.05 38.5 a0.45 0.45 0 1 0 0.9 0 a0.45 0.45 0 1 0 -0.9 0Z M43.05 38.5 a0.45 0.45 0 1 0 0.9 0 a0.45 0.45 0 1 0 -0.9 0Z M0 39 h1 v1 h-1Z M6 39 h1 v1 h-1Z
M12.05 39.5 a0.45 0.45 0 1 0 0.9 0 a0.45 0.45 0 1 0 -0.9 0Z M13.05 39.5 a0.45 0.45 0 1 0 0.9 0 a0.45 0.45 0 1 0 -0.9 0Z M14.05 39.5 a0.45 0.45 0 1 0 0.9 0 a0.45 0.45 0 1 0 -0.9 0Z M17.05 39.5 a0.45 0.45 0 1 0 0.9 0 a0.45 0.45 0 1 0 -0.9 0Z M18.05 39.5 a0.45 0.45 0 1 0 0.9 0 a0.45 0.45 0 1 0 -0.9 0Z M19.05 39.5 a0.45 0.45 0 1 0 0.9 0 a0.45 0.45 0 1 0 -0.9 0Z M20 39 h1 v1 h-1Z M24 39 h1 v1 h-1Z M26.05 39.5 a0.45 0.45 0 1 0 0.9 0 a0.45 0.45 0 1 0 -0.9 0Z M27.05 39.5 a0.45 0.45 0 1 0 0.9 0 a0.45 0.45 0 1 0 -0.9 0Z M28.05 39.5 a0.45 0.45 0 1 0 0.9 0 a0.45 0.45 0 1 0 -0.9 0Z M29.05 39.5 a0.45 0.45 0 1 0 0.9 0 a0.45 0.45 0 1 0 -0.9 0Z M31.05 39.5 a0.45 0.45 0 1 0 0.9 0 a0.45 0.45 0 1 0 -0.9 0Z M32.05 39.5 a0.45 0.45 0 1 0 0.9 0 a0.45 0.45 0 1 0 -0.9 0Z M33.05 39.5 a0.45 0.45 0 1 0 0.9 0 a0.45 0.45 0 1 0 -0.9 0Z M35.05 39.5 a0.45 0.45 0 1 0 0.9 0 a0.45 0.45 0 1 0 -0.9 0Z M36 39 h1 v1 h-1Z M40 39 h1 v1 h-1Z M41.05 39.5 a0.45 0.45 0 1 0 0.9 0 a0.45 0.45 0 1 0 -0.9 0Z M42.05 39.5 a0.45 0.45 0 1 0 0.9 0 a0.45 0.45 0 1 0 -0.9 0Z M44.05 39.5 a0.45 0.45 0 1 0 0.9 0 a0.45 0.45 0 1 0 -0.9 0Z M0 40 h1 v1 h-1Z M2 40 h1 v1 h-1Z M3 40 h1 v1 h-1Z M4 40 h1 v1 h-1Z M6 40 h1 v1 h-1Z M8.05 40.5 a0.45 0.45 0 1 0 0.9 0 a0.45 0.45 0 1 0 -0.9 0Z M9.05 40.5 a0.45 0.45 0 1 0 0.9 0 a0.45 0.45 0 1 0 -0.9 0Z M10.05 40.5 a0.45 0.45 0 1 0 0.9 0 a0.45 0.45 0 1 0 -0.9 0Z M12.05 40.5 a0.45 0.45 0 1 0 0.9 0 a0.45 0.45 0 1 0 -0.9 0Z M13.05 40.5 a0.45 0.45 0 1 0 0.9 0 a0.45 0.45 0 1 0 -0.9 0Z M15.05 40.5 a0.45 0.45 0 1 0 0.9 0 a0.45 0.45 0 1 0 -0.9 0Z M18.05 40.5 a0.45 0.45 0 1 0 0.9 0 a0.45 0.45 0 1 0 -0.9 0Z M20 40 h1 v1 h-1Z M21 40 h1 v1 h-1Z M22 40 h1 v1 h-1Z M23 40 h1 v1 h-1Z M24 40 h1 v1 h-1Z M28.05 40.5 a0.45 0.45 0 1 0 0.9 0 a0.45 0.45 0 1 0 -0.9 0Z M31.05 40.5 a0.45 0.45 0 1 0 0.9 0 a0.45 0.45 0 1 0 -0.9 0Z M36 40 h1 v1 h-1Z M37 40 h1 v1 h-1Z M38 40 h1 v1 h-1Z M39 40 h1 v1 h-1Z M40 40 h1 v1 h-1Z M41.05 40.5 a0.45 0.45 0 1 0 0.9 0 a0.45 0.45 0 1 0 -0.9 0Z M43.05 40.5 a0.45 0.45 0 1 0 0.9 0 a0.45 0.45 0 1 0 -0.9 0Z M44.05 40.5 a0.45 0.45 0 1 0 0.9 0 a0.45 0.45 0 1 0 -0.9 0Z M0 41 h1 v1 h-1Z M2 41 h1 v1 h-1Z M3 41 h1 v1 h-1Z M4 41 h1 v1 h-1Z M6 41 h1 v1 h-1Z M8.05 41.5 a0.45 0.45 0 1 0 0.9 0 a0.45 0.45 0 1 0 -0.9 0Z M11.05 41.5 a0.45 0.45 0 1 0 0.9 0 a0.45 0.45 0 1 0 -0.9 0Z M16.05 41.5 a0.45 0.45 0 1 0 0.9 0 a0.45 0.45 0 1 0 -0.9 0Z M20.05 41.5 a0.45 0.45 0 1 0 0.9 0 a0.45 0.45 0 1 0 -0.9 0Z M23.05 41.5 a0.45 0.45 0 1 0 0.9 0 a0.45 0.45 0 1 0 -0.9 0Z M24.05 41.5 a0.45 0.45 0 1 0 0.9 0 a0.45 0.45 0 1 0 -0.9 0Z M25.05 41.5 a0.45 0.45 0 1 0 0.9 0 a0.45 0.45 0 1 0 -0.9 0Z M31.05 41.5 a0.45 0.45 0 1 0 0.9 0 a0.45 0.45 0 1 0 -0.9 0Z M32.05 41.5 a0.45 0.45 0 1 0 0.9 0 a0.45 0.45 0 1 0 -0.9 0Z M33.05 41.5 a0.45 0.45 0 1 0 0.9 0 a0.45 0.45 0 1 0 -0.9 0Z M39.05 41.5 a0.45 0.45 0 1 0 0.9 0 a0.45 0.45 0 1 0 -0.9 0Z M40.05 41.5 a0.45 0.45 0 1 0 0.9 0 a0.45 0.45 0 1 0 -0.9 0Z M42.05 41.5 a0.45 0.45 0 1 0 0.9 0 a0.45 0.45 0 1 0 -0.9 0Z M44.05 41.5 a0.45 0.45 0 1 0 0.9 0 a0.45 0.45 0 1 0 -0.9 0Z M0 42 h1 v1 h-1Z M2 42 h1 v1 h-1Z M3 42 h1 v1 h-1Z M4 42 h1 v1 h-1Z M6 42 h1 v1 h-1Z M8.05 42.5 a0.45 0.45 0 1 0 0.9 0 a0.45 0.45 0 1 0 -0.9 0Z M11.05 42.5 a0.45 0.45 0 1 0 0.9 0 a0.45 0.45 0 1 0 -0.9 0Z M13.05 42.5 a0.45 0.45 0 1 0 0.9 0 a0.45 0.45 0 1 0 -0.9 0Z M14.05 42.5 a0.45 0.45 0 1 0 0.9 0 a0.45 0.45 0 1 0 -0.9 0Z M16.05 42.5 a0.45 0.45 0 1 0 0.9 0 a0.45 0.45 0 1 0 -0.9 0Z M18.05 42.5 a0.45 0.45 0 1 0 0.9 0 a0.45 0.45 0 1 0 -0.9 0Z M21.05 42.5 a0.45 0.45 0 1 0 0.9 0 a0.45 0.45 0 1 0 -0.9 0Z M22.05 42.5 a0.45 0.45 0 1 0 0.9 0 a0.45 0.45 0 1 0 -0.9 0Z M24.05 42.5 a0.45 0.45 0 1 0 0.9 0 a0.45 0.45 0 1 0 -0.9 0Z M25.05 42.5 a0.45 0.45 0 1 0 0.9 0 a0.45 0.45 0 1 0 -0.9 0Z M26.05 42.5 a0.45 0.45 0 1 0 0.9 0 a0.45 0.45 0 1 0 -0.9 0Z M29.05 42.5 a0.45 0.45 0 1 0 0.9 0 a0.45 0.45 0 1 0 -0.9 0Z M30.05 42.5 a0.45 0.45 0 1 0 0.9 0 a0.45 0.45 0 1 0 -0.9 0Z M31.05 42.5 a0.45 0.45 0 1 0 0.9 0 a0.45 0.45 0 1 0 -0.9 0Z M35.05 42.5 a0.45 0.45 0 1 0 0.9 0 a0.45 0.45 0 1 0 -0.9 0Z M36.05 42.5 a0.45 0.45 0 1 0 0.9 0 a0.45 0.45 0 1 0 -0.9 0Z M37.05 42.5 a0.45 0.45 0 1 0 0.9 0 a0.45 0.45 0 1 0 -0.9 0Z M38.05 42.5 a0.45 0.45 0 1 0 0.9 0 a0.45 0.45 0 1 0 -0.9 0Z M41.05 42.5 a0.45 0.45 0 1 0 0.9 0 a0.45 0.45 0 1 0 -0.9 0Z M0 43 h1 v1 h-1Z M6 43 h1 v1 h-1Z M9.05 43.5 a0.45 0.45 0 1 0 0.9 0 a0.45 0.45 0 1 0 -0.9 0Z M15.05 43.5 a0.45 0.45 0 1 0 0.9 0 a0.45 0.45 0 1 0 -0.9 0Z M21.05 43.5 a0.45 0.45 0 1 0 0.9 0 a0.45 0.45 0 1 0 -0.9 0Z M22.05 43.5 a0.45 0.45 0 1 0 0.9 0 a0.45 0.45 0 1 0 -0.9 0Z M23.05 43.5 a0.45 0.45 0 1 0 0.9 0 a0.45 0.45 0 1 0 -0.9 0Z M27.05 43.5 a0.45 0.45 0 1 0 0.9 0 a0.45 0.45 0 1 0 -0.9 0Z M28.05 43.5 a0.45 0.45 0 1 0 0.9 0 a0.45 0.45 0 1 0 -0.9 0Z
M34.05 43.5 a0.45 0.45 0 1 0 0.9 0 a0.45 0.45 0 1 0 -0.9 0Z M39.05 43.5 a0.45 0.45 0 1 0 0.9 0 a0.45 0.45 0 1 0 -0.9 0Z M41.05 43.5 a0.45 0.45 0 1 0 0.9 0 a0.45 0.45 0 1 0 -0.9 0Z M42.05 43.5 a0.45 0.45 0 1 0 0.9 0 a0.45 0.45 0 1 0 -0.9 0Z M0 44 h1 v1 h-1Z M1 44 h1 v1 h-1Z M2 44 h1 v1 h-1Z M3 44 h1 v1 h-1Z M4 44 h1 v1 h-1Z M5 44 h1 v1 h-1Z M6 44 h1 v1 h-1Z M9.05 44.5 a0.45 0.45 0 1 0 0.9 0 a0.45 0.45 0 1 0 -0.9 0Z M16.05 44.5 a0.45 0.45 0 1 0 0.9 0 a0.45 0.45 0 1 0 -0.9 0Z M19.05 44.5 a0.45 0.45 0 1 0 0.9 0 a0.45 0.45 0 1 0 -0.9 0Z M21.05 44.5 a0.45 0.45 0 1 0 0.9 0 a0.45 0.45 0 1 0 -0.9 0Z M23.05 44.5 a0.45 0.45 0 1 0 0.9 0 a0.45 0.45 0 1 0 -0.9 0Z M28.05 44.5 a0.45 0.45 0 1 0 0.9 0 a0.45 0.45 0 1 0 -0.9 0Z M31.05 44.5 a0.45 0.45 0 1 0 0.9 0 a0.45 0.45 0 1 0 -0.9 0Z M32.05 44.5 a0.45 0.45 0 1 0 0.9 0 a0.45 0.45 0 1 0 -0.9 0Z M33.05 44.5 a0.45 0.45 0 1 0 0.9 0 a0.45 0.45 0 1 0 -0.9 0Z M34.05 44.5 a0.45 0.45 0 1 0 0.9 0 a0.45 0.45 0 1 0 -0.9 0Z M36.05 44.5 a0.45 0.45 0 1 0 0.9 0 a0.45 0.45 0 1 0 -0.9 0Z M37.05 44.5 a0.45 0.45 0 1 0 0.9 0 a0.45 0.45 0 1 0 -0.9 0Z M38.05 44.5 a0.45 0.45 0 1 0 0.9 0 a0.45 0.45 0 1 0 -0.9 0Z M39.05 44.5 a0.45 0.45 0 1 0 0.9 0 a0.45 0.45 0 1 0 -0.9 0Z M40.05 44.5 a0.45 0.45 0 1 0 0.9 0 a0.45 0.45 0 1 0 -0.9 0Z M43.05 44.5 a0.45 0.45 0 1 0 0.9 0 a0.45 0.45 0 1 0 -0.9 0Z"/>
	<g transform="translate(16.875 16.875) scale(0.25)" class="dark">
		<svg role="img" viewBox="0 0 24 24" xmlns="http://www.w3.org/2000/svg"><title>GitHub</title><path d="M12 .297c-6.63 0-12 5.373-12 12 0 5.303 3.438 9.8 8.205 11.385.6.113.82-.258.82-.577 0-.285-.01-1.04-.015-2.04-3.338.724-4.042-1.61-4.042-1.61C4.422 18.07 3.633 17.7 3.633 17.7c-1.087-.744.084-.729.084-.729 1.205.084 1.838 1.236 1.838 1.236 1.07 1.835 2.809 1.305 3.495.998.108-.776.417-1.305.76-1.605-2.665-.3-5.466-1.332-5.466-5.93 0-1.31.465-2.38 1.235-3.22-.135-.303-.54-1.523.105-3.176 0 0 1.005-.322 3.3 1.23.96-.267 1.98-.399 3-.405 1.02.006 2.04.138 3 .405 2.28-1.552 3.285-1.23 3.285-1.23.645 1.653.24 2.873.12 3.176.765.84 1.23 1.91 1.23 3.22 0 4.61-2.805 5.625-5.475 5.92.42.36.81 1.096.81 2.22 0 1.606-.015 2.896-.015 3.286 0 .315.21.69.825.57C20.565 22.092 24 17.592 24 12.297c0-6.627-5.373-12-12-12"/></svg>
	</g>
</svg>
